%TF.GenerationSoftware,Altium Limited,Altium Designer,25.4.2 (15)*%
G04 Layer_Physical_Order=1*
G04 Layer_Color=255*
%FSLAX45Y45*%
%MOMM*%
%TF.SameCoordinates,0640AC9D-8A5E-4001-91DE-6D45CD138FA6*%
%TF.FilePolarity,Positive*%
%TF.FileFunction,Copper,L1,Top,Signal*%
%TF.Part,Single*%
G01*
G75*
%TA.AperFunction,SMDPad,CuDef*%
%ADD10R,6.47000X7.46000*%
G04:AMPARAMS|DCode=11|XSize=1.97mm|YSize=0.6mm|CornerRadius=0.075mm|HoleSize=0mm|Usage=FLASHONLY|Rotation=0.000|XOffset=0mm|YOffset=0mm|HoleType=Round|Shape=RoundedRectangle|*
%AMROUNDEDRECTD11*
21,1,1.97000,0.45000,0,0,0.0*
21,1,1.82000,0.60000,0,0,0.0*
1,1,0.15000,0.91000,-0.22500*
1,1,0.15000,-0.91000,-0.22500*
1,1,0.15000,-0.91000,0.22500*
1,1,0.15000,0.91000,0.22500*
%
%ADD11ROUNDEDRECTD11*%
%ADD12R,2.41300X3.30200*%
%ADD13R,0.90000X0.65000*%
%ADD14R,0.98000X0.92000*%
%ADD15R,0.59000X1.21000*%
%ADD16R,0.65000X0.90000*%
G04:AMPARAMS|DCode=17|XSize=1.21mm|YSize=0.59mm|CornerRadius=0.1475mm|HoleSize=0mm|Usage=FLASHONLY|Rotation=270.000|XOffset=0mm|YOffset=0mm|HoleType=Round|Shape=RoundedRectangle|*
%AMROUNDEDRECTD17*
21,1,1.21000,0.29500,0,0,270.0*
21,1,0.91500,0.59000,0,0,270.0*
1,1,0.29500,-0.14750,-0.45750*
1,1,0.29500,-0.14750,0.45750*
1,1,0.29500,0.14750,0.45750*
1,1,0.29500,0.14750,-0.45750*
%
%ADD17ROUNDEDRECTD17*%
%ADD18R,1.80000X1.80000*%
%ADD19R,2.00000X2.00000*%
%ADD20R,0.80000X0.80000*%
%TA.AperFunction,Conductor*%
%ADD21C,0.88900*%
%ADD22C,1.77800*%
%ADD23C,1.52400*%
%ADD24C,0.38100*%
%TA.AperFunction,ComponentPad*%
%ADD25C,3.45000*%
%ADD26C,2.39000*%
%ADD27C,2.40000*%
%ADD28R,2.40000X2.40000*%
%ADD29O,1.20000X4.00000*%
%ADD30O,1.20000X3.80000*%
%ADD31O,5.00000X1.60000*%
%ADD32R,1.42500X1.42500*%
%ADD33C,1.42500*%
%ADD34C,1.58000*%
%ADD35R,1.58000X1.58000*%
%ADD36C,1.60020*%
%ADD37C,1.50800*%
%TA.AperFunction,ViaPad*%
%ADD38C,1.52400*%
%TA.AperFunction,ComponentPad*%
%ADD39O,1.54000X3.08000*%
%ADD40C,2.25000*%
%ADD41R,2.25000X2.25000*%
%TA.AperFunction,ViaPad*%
%ADD42C,1.27000*%
G36*
X64236603Y20929601D02*
Y9753600D01*
X62382397Y7899400D01*
X51117499D01*
X48602899Y10414000D01*
Y19812000D01*
X51498499Y22707600D01*
X62458600D01*
X64236603Y20929601D01*
D02*
G37*
%LPC*%
G36*
X57062146Y22291299D02*
X57034656D01*
X57008105Y22284184D01*
X56984296Y22270441D01*
X56964856Y22251003D01*
X56951117Y22227197D01*
X56948267Y22216573D01*
X56940521Y22213364D01*
X56935468Y22209483D01*
X56904462Y22215640D01*
X56892822Y22222942D01*
X56891687Y22227197D01*
X56877942Y22251003D01*
X56858502Y22270441D01*
X56834698Y22284184D01*
X56808142Y22291299D01*
X56780658D01*
X56754102Y22284184D01*
X56730298Y22270441D01*
X56717212Y22257353D01*
X54711603D01*
X54693365Y22254951D01*
X54676373Y22247914D01*
X54661780Y22236719D01*
X53583264Y21158200D01*
X53582294D01*
X53559686Y21152142D01*
X53539417Y21140437D01*
X53522864Y21123886D01*
X53511157Y21103613D01*
X53505103Y21081004D01*
Y21057596D01*
X53511157Y21034985D01*
X53522864Y21014714D01*
X53539417Y20998161D01*
X53559686Y20986458D01*
X53582294Y20980400D01*
X53605707D01*
X53628314Y20986458D01*
X53648584Y20998161D01*
X53665137Y21014714D01*
X53676843Y21034985D01*
X53682898Y21057596D01*
Y21058565D01*
X54740784Y22116447D01*
X56717212D01*
X56730298Y22103358D01*
X56754102Y22089615D01*
X56758356Y22088475D01*
X56769745Y22045979D01*
X56249280Y21525517D01*
X56238086Y21510925D01*
X56231049Y21493935D01*
X56228650Y21475700D01*
Y21226170D01*
X56227960Y21225487D01*
X56216260Y21205214D01*
X56210199Y21182603D01*
Y21159196D01*
X56216260Y21136586D01*
X56227960Y21116315D01*
X56244513Y21099762D01*
X56264789Y21088058D01*
X56287396Y21082001D01*
X56310803D01*
X56333417Y21088058D01*
X56353687Y21099762D01*
X56370239Y21116315D01*
X56381940Y21136586D01*
X56388000Y21159196D01*
Y21182603D01*
X56381940Y21205214D01*
X56370239Y21225487D01*
X56369556Y21226170D01*
Y21446518D01*
X57006415Y22083380D01*
X57013385Y22084299D01*
X57019104Y22086667D01*
X57034656Y22082500D01*
X57062146D01*
X57088696Y22089615D01*
X57112500Y22103358D01*
X57131940Y22122797D01*
X57145685Y22146603D01*
X57152802Y22173157D01*
Y22200644D01*
X57145685Y22227197D01*
X57131940Y22251003D01*
X57112500Y22270441D01*
X57088696Y22284184D01*
X57062146Y22291299D01*
D02*
G37*
G36*
X57660797D02*
X57452002D01*
Y22222298D01*
X57445630Y22214870D01*
X57413898Y22201390D01*
X57404730Y22208374D01*
X57399683Y22227197D01*
X57385944Y22251003D01*
X57366504Y22270441D01*
X57342694Y22284184D01*
X57316144Y22291299D01*
X57288654D01*
X57262103Y22284184D01*
X57238300Y22270441D01*
X57218860Y22251003D01*
X57205115Y22227197D01*
X57197998Y22200644D01*
Y22173157D01*
X57205115Y22146603D01*
X57218860Y22122797D01*
X57238300Y22103358D01*
X57262103Y22089615D01*
X57288654Y22082500D01*
X57307166D01*
X58128882Y21260782D01*
X58143475Y21249586D01*
X58160468Y21242548D01*
X58178699Y21240147D01*
X58885431D01*
X58886115Y21239462D01*
X58906384Y21227757D01*
X58928998Y21221700D01*
X58952405D01*
X58975012Y21227757D01*
X58995288Y21239462D01*
X59011841Y21256013D01*
X59023541Y21276286D01*
X59029602Y21298895D01*
Y21322304D01*
X59023541Y21344914D01*
X59011841Y21365186D01*
X58995288Y21381738D01*
X58975012Y21393442D01*
X58952405Y21399500D01*
X58928998D01*
X58906384Y21393442D01*
X58886115Y21381738D01*
X58885431Y21381053D01*
X58207880D01*
X57541632Y22047301D01*
X57556213Y22082500D01*
X57660797D01*
Y22116447D01*
X58721021D01*
X60274200Y20563264D01*
Y20562296D01*
X60280255Y20539687D01*
X60291962Y20519414D01*
X60308514Y20502863D01*
X60328784Y20491158D01*
X60351398Y20485100D01*
X60374683D01*
X60374969Y20484814D01*
X60394360Y20450896D01*
X60008484Y20065018D01*
X59997284Y20050426D01*
X59990247Y20033434D01*
X59987848Y20015199D01*
Y17859982D01*
X56701715Y14573853D01*
X53928168D01*
X53913586Y14609053D01*
X57314117Y18009583D01*
X57325311Y18024174D01*
X57332355Y18041167D01*
X57334753Y18059399D01*
Y20100317D01*
X57563580Y20329144D01*
X57601709Y20313391D01*
X57602380Y20288503D01*
X57599561Y20285686D01*
X57587860Y20265414D01*
X57582068Y20243800D01*
X57670697D01*
Y20231100D01*
X57683398D01*
Y20142467D01*
X57705011Y20148257D01*
X57725287Y20159962D01*
X57741840Y20176514D01*
X57743262Y20178975D01*
X57774103Y20196500D01*
X57858807D01*
X57955707Y20099602D01*
X57952600Y20061501D01*
X57952600D01*
Y19987262D01*
X57935406Y19977313D01*
X57914502Y19973325D01*
X57903088Y19984738D01*
X57882812Y19996442D01*
X57861200Y20002232D01*
Y19913600D01*
X57835797D01*
Y20002232D01*
X57814185Y19996442D01*
X57793915Y19984738D01*
X57785938Y19976762D01*
X57731885D01*
X57713654Y19974362D01*
X57696661Y19967323D01*
X57682068Y19956128D01*
X57637280Y19911340D01*
X57626086Y19896750D01*
X57619043Y19879758D01*
X57616644Y19861523D01*
Y19710400D01*
X57619043Y19692166D01*
X57626086Y19675174D01*
X57629199Y19671117D01*
Y19639999D01*
X57686694D01*
X57687097Y19639948D01*
X57687500Y19639999D01*
X57736102D01*
X57744995Y19639999D01*
Y19639999D01*
X57774200D01*
Y19639999D01*
X57890002D01*
Y19704239D01*
X57890100Y19704303D01*
X57917401Y19731604D01*
X57952600Y19717024D01*
Y19638699D01*
X57962177D01*
Y19424400D01*
X57965625Y19407057D01*
X57975452Y19392354D01*
X58019653Y19348154D01*
X58019653Y19348154D01*
X58034357Y19338329D01*
X58051703Y19334879D01*
X58488599D01*
X58505945Y19338329D01*
X58520648Y19348154D01*
X58607123Y19434628D01*
X58619348D01*
X58619769Y19434712D01*
X58644550D01*
X58660217Y19437828D01*
X58673492Y19446703D01*
X58681104D01*
X58694385Y19437828D01*
X58710052Y19434712D01*
X58739551D01*
X58742859Y19431905D01*
X58749500Y19390923D01*
X58742560Y19383986D01*
X58730859Y19363715D01*
X58724799Y19341104D01*
Y19317696D01*
X58730859Y19295087D01*
X58742560Y19274814D01*
X58759113Y19258263D01*
X58750635Y19219164D01*
X58744415Y19211702D01*
X58375897D01*
Y18883755D01*
X58284900D01*
X58266669Y18881355D01*
X58249677Y18874316D01*
X58235083Y18863120D01*
X57888562Y18516600D01*
X57887598D01*
X57864984Y18510542D01*
X57844714Y18498837D01*
X57828162Y18482286D01*
X57816455Y18462013D01*
X57810400Y18439404D01*
Y18415996D01*
X57816455Y18393385D01*
X57828162Y18373114D01*
X57844714Y18356561D01*
X57864984Y18344858D01*
X57887598Y18338800D01*
X57911005D01*
X57933612Y18344858D01*
X57953888Y18356561D01*
X57970441Y18373114D01*
X57982141Y18393385D01*
X57988202Y18415996D01*
Y18416965D01*
X58314087Y18742850D01*
X58375897D01*
Y18414902D01*
X59073700D01*
Y19087775D01*
X59074304Y19092352D01*
Y19826750D01*
X59071899Y19844984D01*
X59064862Y19861977D01*
X59053668Y19876567D01*
X58837299Y20092935D01*
Y20136099D01*
X58870496Y20147948D01*
X58936230D01*
X58936914Y20147263D01*
X58957184Y20135558D01*
X58979797Y20129500D01*
X59003204D01*
X59025812Y20135558D01*
X59046088Y20147263D01*
X59062640Y20163814D01*
X59074341Y20184087D01*
X59077783Y20196941D01*
X59105334Y20209286D01*
X59118500Y20210654D01*
X59131555Y20201929D01*
X59148901Y20198479D01*
X59153076Y20161758D01*
Y20098300D01*
X59140497D01*
Y19957500D01*
X59247400D01*
X59256299Y19957500D01*
X59285504D01*
X59294397Y19957500D01*
X59401300D01*
Y19979430D01*
X59573798D01*
Y19956201D01*
X59704602D01*
Y20083099D01*
X59704602Y20087001D01*
Y20121199D01*
X59704602Y20125101D01*
Y20187906D01*
X59772845Y20256152D01*
X59772845Y20256152D01*
X59782672Y20270856D01*
X59786121Y20288199D01*
Y20770798D01*
X59786121Y20770799D01*
X59782672Y20788142D01*
X59772845Y20802846D01*
X59772845Y20802846D01*
X59679199Y20896494D01*
Y20963199D01*
X59548401D01*
Y20943120D01*
X58812299D01*
X58812299Y20943120D01*
X58794958Y20939670D01*
X58780255Y20929846D01*
X58772552Y20922145D01*
X58753802D01*
X58747327Y20927113D01*
X58730334Y20934152D01*
X58712097Y20936552D01*
X58701685D01*
X58642316Y20995921D01*
X58640454Y21010059D01*
X58633417Y21027049D01*
X58622217Y21041641D01*
X58608240Y21055618D01*
X58593652Y21066814D01*
X58576660Y21073853D01*
X58558423Y21076253D01*
X57786279D01*
X57768042Y21073853D01*
X57751050Y21066814D01*
X57736456Y21055618D01*
X57684381Y21003542D01*
X57673187Y20988950D01*
X57666150Y20971957D01*
X57664954Y20962880D01*
X57626855Y20965376D01*
Y21347710D01*
X57639941Y21360797D01*
X57653687Y21384602D01*
X57660797Y21411156D01*
Y21438644D01*
X57653687Y21465198D01*
X57639941Y21489003D01*
X57620502Y21508441D01*
X57596698Y21522185D01*
X57570142Y21529300D01*
X57542657D01*
X57516101Y21522185D01*
X57492297Y21508441D01*
X57479211Y21495354D01*
X57379590D01*
X57366504Y21508441D01*
X57342694Y21522185D01*
X57316144Y21529300D01*
X57288654D01*
X57262103Y21522185D01*
X57238300Y21508441D01*
X57225208Y21495354D01*
X57125592D01*
X57112500Y21508441D01*
X57088696Y21522185D01*
X57062146Y21529300D01*
X57034656D01*
X57008105Y21522185D01*
X56984296Y21508441D01*
X56971210Y21495354D01*
X56871588D01*
X56858502Y21508441D01*
X56834698Y21522185D01*
X56808142Y21529300D01*
X56780658D01*
X56754102Y21522185D01*
X56730298Y21508441D01*
X56710858Y21489003D01*
X56697113Y21465198D01*
X56690002Y21438644D01*
Y21411156D01*
X56697113Y21384602D01*
X56710858Y21360797D01*
X56730298Y21341359D01*
X56754102Y21327615D01*
X56780658Y21320500D01*
X56808142D01*
X56834698Y21327615D01*
X56858502Y21341359D01*
X56871588Y21354446D01*
X56971210D01*
X56984296Y21341359D01*
X57008105Y21327615D01*
X57034656Y21320500D01*
X57062146D01*
X57088696Y21327615D01*
X57112500Y21341359D01*
X57125592Y21354446D01*
X57225208D01*
X57238300Y21341359D01*
X57262103Y21327615D01*
X57288654Y21320500D01*
X57316144D01*
X57342694Y21327615D01*
X57366504Y21341359D01*
X57379590Y21354446D01*
X57479211D01*
X57485950Y21347710D01*
Y20920683D01*
X57367865Y20802600D01*
X57366895D01*
X57344287Y20796542D01*
X57324011Y20784837D01*
X57307465Y20768286D01*
X57295758Y20748013D01*
X57289697Y20725404D01*
Y20701996D01*
X57295758Y20679385D01*
X57307465Y20659114D01*
X57324011Y20642561D01*
X57344287Y20630858D01*
X57366895Y20624800D01*
X57390302D01*
X57412915Y20630858D01*
X57433185Y20642561D01*
X57449738Y20659114D01*
X57461444Y20679385D01*
X57467499Y20701996D01*
Y20702965D01*
X57606219Y20841682D01*
X57617413Y20856274D01*
X57624451Y20873267D01*
X57625647Y20882343D01*
X57663745Y20879846D01*
Y20628583D01*
X57633582Y20598418D01*
X57633582Y20598418D01*
X57214484Y20179318D01*
X57203284Y20164726D01*
X57196246Y20147734D01*
X57193848Y20129500D01*
Y18088582D01*
X53679120Y14573853D01*
X51780969D01*
X51766388Y14609053D01*
X54507416Y17350082D01*
X54518616Y17364673D01*
X54525653Y17381665D01*
X54528052Y17399899D01*
Y19935217D01*
X55020184Y20427347D01*
X55062628D01*
X55073621Y20397832D01*
X55074225Y20389247D01*
X55059564Y20374586D01*
X55047858Y20354314D01*
X55042065Y20332700D01*
X55130701D01*
Y20320000D01*
X55143402D01*
Y20231367D01*
X55165015Y20237158D01*
X55175592Y20243263D01*
X55198987Y20212776D01*
X55174854Y20188646D01*
X55165027Y20173943D01*
X55161578Y20156599D01*
Y20137701D01*
X55158600D01*
Y19971622D01*
X55152600D01*
X55135260Y19968172D01*
X55120557Y19958347D01*
X55120557Y19958347D01*
X55006506Y19844299D01*
X54963696D01*
X54954803Y19844299D01*
X54925598D01*
X54916699Y19844299D01*
X54880396D01*
Y19773900D01*
Y19703500D01*
X54916699D01*
X54925598Y19703500D01*
X54954803D01*
X54963696Y19703500D01*
X55070599D01*
Y19780206D01*
X55123401Y19833005D01*
X55158600Y19818423D01*
Y19714899D01*
X55173340D01*
Y19711339D01*
X55176788Y19693996D01*
X55186615Y19679292D01*
X55376556Y19489352D01*
X55376556Y19489352D01*
X55391260Y19479527D01*
X55408600Y19476077D01*
X55888312D01*
Y19475648D01*
X55891425Y19459982D01*
X55900299Y19446703D01*
X55913580Y19437828D01*
X55929248Y19434712D01*
X55958746D01*
X55974414Y19437828D01*
X55987695Y19446703D01*
X55995300D01*
X56008582Y19437828D01*
X56024249Y19434712D01*
X56049707D01*
X56056750Y19426791D01*
X56062885Y19410625D01*
X56064099Y19397925D01*
X56050165Y19383986D01*
X56038458Y19363715D01*
X56032397Y19341104D01*
Y19317696D01*
X56038458Y19295087D01*
X56042609Y19287901D01*
X56026740Y19253699D01*
X56022424Y19249802D01*
X55581897D01*
Y18453001D01*
X55873047D01*
Y18140071D01*
X55872363Y18139386D01*
X55860657Y18119115D01*
X55854602Y18096504D01*
Y18073096D01*
X55860657Y18050487D01*
X55872363Y18030214D01*
X55888916Y18013663D01*
X55909186Y18001958D01*
X55931793Y17995900D01*
X55955206D01*
X55977814Y18001958D01*
X55998083Y18013663D01*
X56014636Y18030214D01*
X56026343Y18050487D01*
X56032397Y18073096D01*
Y18096504D01*
X56026343Y18119115D01*
X56014636Y18139386D01*
X56013953Y18140071D01*
Y18453001D01*
X56279700D01*
Y19150166D01*
X56450519Y19320985D01*
X56461713Y19335576D01*
X56468750Y19352568D01*
X56471155Y19370802D01*
Y19888200D01*
X56468750Y19906435D01*
X56461713Y19923425D01*
X56450519Y19938017D01*
X56435925Y19949214D01*
X56418933Y19956252D01*
X56400702Y19958653D01*
X56368085D01*
X56233801Y20092935D01*
Y20136099D01*
X56233801Y20136099D01*
Y20148302D01*
X56233801D01*
X56233801Y20174199D01*
Y20291100D01*
X56197949D01*
Y20429054D01*
X56218500D01*
X56231335Y20431609D01*
X56242218Y20438879D01*
X56245831Y20444292D01*
X56272260Y20452580D01*
X56289313Y20454689D01*
X56511481Y20232527D01*
Y20098300D01*
X56498895D01*
Y19957500D01*
X56605798D01*
X56614697Y19957500D01*
X56643903D01*
X56652802Y19957500D01*
X56759705D01*
Y20014380D01*
X56944897D01*
Y19994301D01*
X57075702D01*
Y20121199D01*
X57075702Y20125101D01*
Y20159299D01*
X57075702Y20162228D01*
X57078046Y20200330D01*
X57091431D01*
X57108777Y20203778D01*
X57123480Y20213603D01*
X57156647Y20246771D01*
X57166473Y20261475D01*
X57169922Y20278818D01*
X57169922Y20278819D01*
Y20783498D01*
X57169922Y20783499D01*
X57166473Y20800842D01*
X57156647Y20815546D01*
X57156647Y20815546D01*
X57063000Y20909193D01*
Y20975899D01*
X56932202D01*
Y20911421D01*
X56242816D01*
X56242218Y20912320D01*
X56231335Y20919591D01*
X56218500Y20922145D01*
X56169202D01*
X56162726Y20927113D01*
X56145734Y20934152D01*
X56141992Y20934644D01*
X56141498Y20938385D01*
X56140955Y20939705D01*
Y20979123D01*
X56138550Y20997359D01*
X56131512Y21014349D01*
X56120319Y21028941D01*
X56093640Y21055618D01*
X56079053Y21066814D01*
X56062061Y21073853D01*
X56043823Y21076253D01*
X55170074D01*
X55151843Y21073853D01*
X55134851Y21066814D01*
X55120258Y21055618D01*
X55068182Y21003542D01*
X55056989Y20988950D01*
X55049945Y20971957D01*
X55047546Y20953723D01*
Y20568253D01*
X54990997D01*
X54972766Y20565852D01*
X54955774Y20558813D01*
X54941180Y20547618D01*
X54407782Y20014218D01*
X54396588Y19999626D01*
X54389551Y19982634D01*
X54387146Y19964400D01*
Y17429082D01*
X51592804Y14634737D01*
X51174188Y15053352D01*
Y16379787D01*
X51185605Y16391882D01*
X51212286Y16408102D01*
X51216199Y16407588D01*
Y16586201D01*
Y16764812D01*
X51212286Y16764297D01*
X51185605Y16780518D01*
X51174188Y16792615D01*
Y16860849D01*
X51237122Y16923779D01*
X51255438Y16947656D01*
X51266956Y16975462D01*
X51270886Y17005299D01*
Y17667203D01*
X51390601D01*
X51400513Y17669174D01*
X51408911Y17674788D01*
X51414526Y17683189D01*
X51416498Y17693100D01*
Y17943100D01*
X51414526Y17953011D01*
X51408911Y17961412D01*
X51407983Y17970848D01*
X51513708Y18076572D01*
X52147479D01*
X52165710Y18078970D01*
X52182703Y18086011D01*
X52197296Y18097206D01*
X52208490Y18111797D01*
X52215527Y18128789D01*
X52217926Y18147023D01*
Y19668594D01*
X52256030Y19697485D01*
X52267035Y19694403D01*
X52273547Y19686427D01*
X52278314Y19679292D01*
X52468256Y19489352D01*
X52482959Y19479527D01*
X52500299Y19476077D01*
X52500305Y19476077D01*
X53049609D01*
Y19475648D01*
X53052728Y19459982D01*
X53061603Y19446703D01*
X53074884Y19437828D01*
X53090552Y19434712D01*
X53120050D01*
X53135718Y19437828D01*
X53148993Y19446703D01*
X53156604D01*
X53169885Y19437828D01*
X53185553Y19434712D01*
X53190454D01*
X53195270Y19430295D01*
X53210687Y19396613D01*
X53206360Y19389114D01*
X53200299Y19366504D01*
Y19343095D01*
X53206360Y19320486D01*
X53218060Y19300214D01*
X53201892Y19262502D01*
X52887537D01*
X52778113Y19371928D01*
X52763519Y19383124D01*
X52746527Y19390163D01*
X52728290Y19392563D01*
X52665961D01*
X52657983Y19400539D01*
X52637714Y19412242D01*
X52615106Y19418300D01*
X52591693D01*
X52569086Y19412242D01*
X52548816Y19400539D01*
X52532263Y19383986D01*
X52520557Y19363715D01*
X52514502Y19341104D01*
Y19317696D01*
X52520557Y19295087D01*
X52532263Y19274814D01*
X52548816Y19258263D01*
X52569086Y19246558D01*
X52591693Y19240500D01*
X52615106D01*
X52637714Y19246558D01*
X52646545Y19251657D01*
X52699109D01*
X52787903Y19162868D01*
Y18465701D01*
X52913947D01*
Y18355971D01*
X52913263Y18355286D01*
X52901556Y18335014D01*
X52895502Y18312404D01*
Y18288995D01*
X52901556Y18266386D01*
X52913263Y18246114D01*
X52929816Y18229562D01*
X52950085Y18217857D01*
X52972699Y18211800D01*
X52996106D01*
X53018713Y18217857D01*
X53038983Y18229562D01*
X53055536Y18246114D01*
X53067242Y18266386D01*
X53073297Y18288995D01*
Y18312404D01*
X53067242Y18335014D01*
X53055536Y18355286D01*
X53054852Y18355971D01*
Y18465701D01*
X53485699D01*
Y19262502D01*
X53376508D01*
X53360339Y19300214D01*
X53372040Y19320486D01*
X53378101Y19343095D01*
Y19366504D01*
X53372040Y19389114D01*
X53360339Y19409386D01*
X53356165Y19413557D01*
X53344910Y19435291D01*
X53347870Y19459982D01*
X53350989Y19475648D01*
Y19567149D01*
X53347870Y19582816D01*
X53338995Y19596095D01*
X53325714Y19604968D01*
X53310052Y19608086D01*
X53280548D01*
X53255499Y19626979D01*
Y19657990D01*
X53282599Y19682806D01*
Y19772398D01*
Y19859088D01*
X53280548D01*
X53266687Y19866272D01*
X53257916Y19911382D01*
X53314435Y19967900D01*
X53363599D01*
Y20110699D01*
X53363599Y20110699D01*
Y20122900D01*
X53363599D01*
X53363599Y20148799D01*
Y20265700D01*
X53355103D01*
Y20429175D01*
X53367334Y20431609D01*
X53378223Y20438879D01*
X53381836Y20444292D01*
X53408258Y20452580D01*
X53425317Y20454689D01*
X53743610Y20136400D01*
X53727826Y20098300D01*
X53641400D01*
Y19957500D01*
X53693103D01*
X53756354Y19894254D01*
X53756354Y19894254D01*
X53771057Y19884428D01*
X53788397Y19880978D01*
X53788397Y19880978D01*
X53911499D01*
X53928845Y19884428D01*
X53943549Y19894254D01*
X54025574Y19976280D01*
X54074701D01*
Y19956201D01*
X54205499D01*
Y20087000D01*
X54205499D01*
Y20103178D01*
X54235284Y20141278D01*
X54238379D01*
X54255725Y20144728D01*
X54270428Y20154553D01*
X54311847Y20195972D01*
X54321674Y20210675D01*
X54325122Y20228018D01*
X54325122Y20228020D01*
Y20732700D01*
X54321674Y20750043D01*
X54311847Y20764746D01*
X54311847Y20764746D01*
X54205499Y20871094D01*
Y20937799D01*
X54074701D01*
Y20914571D01*
X53374854D01*
X53367334Y20919591D01*
X53354498Y20922145D01*
X53333954D01*
Y20992799D01*
X53331549Y21011035D01*
X53324512Y21028027D01*
X53313318Y21042618D01*
X53274921Y21081018D01*
X53260327Y21092213D01*
X53243335Y21099252D01*
X53225104Y21101653D01*
X52261780D01*
X52243542Y21099252D01*
X52226550Y21092213D01*
X52211957Y21081018D01*
X52159882Y21028941D01*
X52148688Y21014349D01*
X52141650Y20997359D01*
X52139246Y20979123D01*
Y20627306D01*
X52097656Y20585718D01*
X52086462Y20571126D01*
X52079425Y20554134D01*
X52077026Y20535899D01*
Y18217476D01*
X51484521D01*
X51466290Y18215076D01*
X51449298Y18208037D01*
X51434705Y18196841D01*
X51280255Y18042392D01*
X51244934Y18060953D01*
X51244525Y18063011D01*
X51238916Y18071413D01*
X51230511Y18077026D01*
X51220599Y18078998D01*
X51090601D01*
X51080688Y18077026D01*
X51072287Y18071413D01*
X51066675Y18063011D01*
X51064703Y18053101D01*
Y17968999D01*
X50990601D01*
X50980688Y17967026D01*
X50972287Y17961412D01*
X50966675Y17953011D01*
X50964703Y17943100D01*
Y17693100D01*
X50966675Y17683189D01*
X50972287Y17674788D01*
X50980688Y17669174D01*
X50990601Y17667203D01*
X51040314D01*
Y17053053D01*
X50977383Y16990121D01*
X50959061Y16966245D01*
X50947543Y16938440D01*
X50943616Y16908601D01*
Y16792612D01*
X50932193Y16780510D01*
X50905515Y16764296D01*
X50901599Y16764812D01*
Y16586200D01*
Y16407588D01*
X50905515Y16408104D01*
X50932193Y16391890D01*
X50943616Y16379788D01*
Y15005598D01*
X50947543Y14975760D01*
X50959061Y14947955D01*
X50977383Y14924078D01*
X51398059Y14503400D01*
X50858179Y13963519D01*
X50839859Y13939642D01*
X50828342Y13911836D01*
X50824414Y13881999D01*
Y12434740D01*
X50823352Y12433678D01*
X50804208Y12400522D01*
X50794299Y12363542D01*
Y12325258D01*
X50804208Y12288278D01*
X50823352Y12255122D01*
X50850421Y12228051D01*
X50883578Y12208909D01*
X50920557Y12199000D01*
X50958841D01*
X50995822Y12208909D01*
X51028979Y12228051D01*
X51056049Y12255122D01*
X51075192Y12288278D01*
X51085101Y12325258D01*
Y12363542D01*
X51075192Y12400522D01*
X51056049Y12433678D01*
X51054987Y12434740D01*
Y13834245D01*
X51642621Y14421880D01*
X51651111Y14432947D01*
X56730902D01*
X56749133Y14435349D01*
X56766125Y14442386D01*
X56780719Y14453581D01*
X60108118Y17780981D01*
X60119312Y17795573D01*
X60126355Y17812566D01*
X60128754Y17830800D01*
Y19986018D01*
X60595483Y20452747D01*
X61041205D01*
X61059436Y20455148D01*
X61076428Y20462186D01*
X61091022Y20473383D01*
X61121185Y20503548D01*
X61131604D01*
X61149835Y20505948D01*
X61166827Y20512987D01*
X61173303Y20517955D01*
X61222601D01*
X61235437Y20520509D01*
X61246320Y20527780D01*
X61253595Y20538663D01*
X61256146Y20551500D01*
Y20574001D01*
X61366400D01*
Y20764500D01*
Y20955000D01*
X61332684D01*
X61288837Y20998846D01*
X61293982Y21022057D01*
X61303583Y21036948D01*
X61496771D01*
X61507538Y21011478D01*
X61510291Y20998846D01*
X61504608Y20990337D01*
X61502051Y20977499D01*
Y20955000D01*
X61391803D01*
Y20764500D01*
Y20574001D01*
X61502051D01*
Y20551500D01*
X61504608Y20538663D01*
X61511877Y20527780D01*
X61522760Y20520509D01*
X61535596Y20517955D01*
X61556146D01*
Y20354601D01*
X61546002D01*
Y20327872D01*
X61414301D01*
X61411768Y20331168D01*
X61411218Y20331718D01*
X61407904Y20334264D01*
Y20352299D01*
X61361804D01*
X61361401Y20352353D01*
X61350000D01*
X61349597Y20352299D01*
X61301001D01*
X61292102Y20352299D01*
X61262897D01*
X61254004Y20352299D01*
X61147101D01*
Y20275594D01*
X61016852Y20145348D01*
X61007031Y20130646D01*
X61003577Y20113303D01*
Y20036101D01*
X60947827D01*
X60943451Y20036972D01*
X60927820D01*
X60818500Y20146294D01*
X60818500Y20224998D01*
X60818500Y20263100D01*
Y20295900D01*
X60744098D01*
X60669702D01*
Y20263100D01*
X60669702Y20237201D01*
X60669702Y20199100D01*
Y20082201D01*
X60754407D01*
X60877002Y19959605D01*
X60891705Y19949780D01*
X60898999Y19948329D01*
Y19883163D01*
X60890576Y19881488D01*
X60875873Y19871663D01*
X60875873Y19871663D01*
X60772308Y19768100D01*
X60720599Y19768100D01*
X60708453Y19801167D01*
Y19841129D01*
X60713635Y19846313D01*
X60725342Y19866586D01*
X60731134Y19888200D01*
X60553870D01*
X60559656Y19866586D01*
X60567548Y19852924D01*
Y19721005D01*
X60565448Y19715935D01*
X60563043Y19697701D01*
X60565448Y19679466D01*
X60572485Y19662474D01*
X60575598Y19658417D01*
Y19627299D01*
X60633099D01*
X60633496Y19627248D01*
X60637451D01*
X60637848Y19627299D01*
X60682501D01*
X60691400Y19627299D01*
X60720599D01*
X60729498Y19627299D01*
X60836401D01*
Y19704007D01*
X60863800Y19731404D01*
X60898999Y19716824D01*
Y19613300D01*
X60908575D01*
Y19513301D01*
X60912030Y19495956D01*
X60921851Y19481255D01*
X60966052Y19437054D01*
X60966052Y19437053D01*
X60980756Y19427229D01*
X60998102Y19423779D01*
X61590662D01*
X61599548Y19422012D01*
X61629047D01*
X61644714Y19425128D01*
X61657996Y19434003D01*
X61665607D01*
X61678882Y19425128D01*
X61694550Y19422012D01*
X61724048D01*
X61746198Y19394417D01*
X61748004Y19366830D01*
X61739764Y19358586D01*
X61728058Y19338313D01*
X61721997Y19315704D01*
Y19292296D01*
X61728058Y19269685D01*
X61739764Y19249414D01*
X61752075Y19237102D01*
X61749268Y19219267D01*
X61738763Y19199002D01*
X61220697D01*
Y18501839D01*
X60097382Y17378520D01*
X60086188Y17363930D01*
X60079150Y17346938D01*
X60076746Y17328702D01*
Y16971671D01*
X60076062Y16970985D01*
X60064355Y16950714D01*
X60058301Y16928104D01*
Y16904697D01*
X60064355Y16882086D01*
X60076062Y16861813D01*
X60092615Y16845262D01*
X60112885Y16833559D01*
X60135498Y16827499D01*
X60158905D01*
X60181512Y16833559D01*
X60201788Y16845262D01*
X60218335Y16861813D01*
X60230042Y16882086D01*
X60236102Y16904697D01*
Y16928104D01*
X60230042Y16950714D01*
X60218335Y16970985D01*
X60217651Y16971671D01*
Y17299519D01*
X60535052Y17616917D01*
X60535968Y17616823D01*
X60571704Y17599687D01*
Y17574107D01*
X60579309Y17535873D01*
X60594226Y17499860D01*
X60615881Y17467445D01*
X60643451Y17439880D01*
X60675861Y17418224D01*
X60711877Y17403305D01*
X60750110Y17395700D01*
X60789093D01*
X60827325Y17403305D01*
X60863342Y17418224D01*
X60895758Y17439880D01*
X60923322Y17467445D01*
X60944977Y17499860D01*
X60959894Y17535873D01*
X60967505Y17574107D01*
Y17613091D01*
X60959894Y17651324D01*
X60944977Y17687340D01*
X60923322Y17719753D01*
X60895758Y17747319D01*
X60863342Y17768976D01*
X60827325Y17783894D01*
X60789093Y17791499D01*
X60763513D01*
X60746381Y17827235D01*
X60746283Y17828149D01*
X61320337Y18402202D01*
X61918500D01*
Y19099367D01*
X62062640Y19243507D01*
X62073834Y19258099D01*
X62080878Y19275092D01*
X62083276Y19293326D01*
Y19964400D01*
X62080878Y19982634D01*
X62073834Y19999626D01*
X62067181Y20008299D01*
X62073071Y20030475D01*
X62083289Y20046400D01*
X62104803Y20046400D01*
X62134003D01*
X62142902Y20046400D01*
X62249799D01*
Y20068330D01*
X62444000D01*
Y20045100D01*
X62574799D01*
Y20171999D01*
X62574799Y20175900D01*
Y20210098D01*
X62574799Y20214001D01*
Y20340900D01*
X62554718D01*
Y20593327D01*
X62678064Y20716672D01*
X62678064Y20716672D01*
X62687891Y20731375D01*
X62691339Y20748718D01*
Y20824680D01*
X62691339Y20824681D01*
X62687891Y20842024D01*
X62678064Y20856728D01*
X62562097Y20972693D01*
Y21039400D01*
X62431299D01*
Y21019321D01*
X61714099D01*
X61697052Y21033310D01*
Y21055322D01*
X61694647Y21073558D01*
X61687610Y21090550D01*
X61676416Y21105141D01*
X61624341Y21157217D01*
X61609747Y21168414D01*
X61592755Y21175452D01*
X61574524Y21177853D01*
X60618378D01*
X60600140Y21175452D01*
X60583148Y21168414D01*
X60568561Y21157217D01*
X60516479Y21105141D01*
X60505286Y21090550D01*
X60498248Y21073558D01*
X60495850Y21055322D01*
Y20581114D01*
X60490100Y20577779D01*
X60478180Y20580260D01*
X60448749Y20597836D01*
X60445941Y20608315D01*
X60434241Y20628586D01*
X60417688Y20645139D01*
X60397412Y20656842D01*
X60374805Y20662900D01*
X60373834D01*
X58800018Y22236719D01*
X58785425Y22247914D01*
X58768433Y22254951D01*
X58750201Y22257353D01*
X57660797D01*
Y22291299D01*
D02*
G37*
G36*
X60818500Y20380000D02*
X60756799D01*
Y20321300D01*
X60818500D01*
Y20380000D01*
D02*
G37*
G36*
X60731403D02*
X60669702D01*
Y20321300D01*
X60731403D01*
Y20380000D01*
D02*
G37*
G36*
X55117999Y20307300D02*
X55042065D01*
X55047858Y20285686D01*
X55059564Y20265414D01*
X55076117Y20248862D01*
X55096387Y20237158D01*
X55117999Y20231367D01*
Y20307300D01*
D02*
G37*
G36*
X57658002Y20218401D02*
X57582068D01*
X57587860Y20196786D01*
X57599561Y20176514D01*
X57616113Y20159962D01*
X57636383Y20148257D01*
X57658002Y20142467D01*
Y20218401D01*
D02*
G37*
G36*
X60655200Y19989532D02*
Y19913600D01*
X60731134D01*
X60725342Y19935214D01*
X60713635Y19955486D01*
X60697089Y19972038D01*
X60676813Y19983742D01*
X60655200Y19989532D01*
D02*
G37*
G36*
X60629797D02*
X60608185Y19983742D01*
X60587915Y19972038D01*
X60571362Y19955486D01*
X60559656Y19935214D01*
X60553870Y19913600D01*
X60629797D01*
Y19989532D01*
D02*
G37*
G36*
X54854999Y19844299D02*
X54809796D01*
Y19786600D01*
X54854999D01*
Y19844299D01*
D02*
G37*
G36*
X53492401Y19849834D02*
Y19773900D01*
X53568335D01*
X53562543Y19795514D01*
X53550836Y19815787D01*
X53534283Y19832338D01*
X53514014Y19844041D01*
X53492401Y19849834D01*
D02*
G37*
G36*
X54854999Y19761200D02*
X54809796D01*
Y19703500D01*
X54854999D01*
Y19761200D01*
D02*
G37*
G36*
X53568335Y19748500D02*
X53492401D01*
Y19672568D01*
X53514014Y19678358D01*
X53534283Y19690062D01*
X53550836Y19706615D01*
X53562543Y19726886D01*
X53568335Y19748500D01*
D02*
G37*
G36*
X53310052Y19859088D02*
X53308002D01*
Y19772398D01*
Y19685715D01*
X53310052D01*
X53325714Y19688831D01*
X53336969Y19696349D01*
X53418829D01*
X53425116Y19690062D01*
X53445386Y19678358D01*
X53466998Y19672568D01*
Y19761200D01*
Y19849834D01*
X53445386Y19844041D01*
X53433630Y19837253D01*
X53345575D01*
X53338995Y19847098D01*
X53325714Y19855972D01*
X53310052Y19859088D01*
D02*
G37*
G36*
X49694998Y18292567D02*
Y18080801D01*
X49768436D01*
Y18208102D01*
X49765500Y18230396D01*
X49756894Y18251170D01*
X49743207Y18269009D01*
X49725366Y18282700D01*
X49704593Y18291304D01*
X49694998Y18292567D01*
D02*
G37*
G36*
X49669598Y18292567D02*
X49660004Y18291304D01*
X49639230Y18282700D01*
X49621390Y18269009D01*
X49607703Y18251170D01*
X49599097Y18230396D01*
X49596161Y18208102D01*
Y18080801D01*
X49669598D01*
Y18292567D01*
D02*
G37*
G36*
X50620599Y18078998D02*
X50490601D01*
X50480688Y18077026D01*
X50472287Y18071413D01*
X50466675Y18063011D01*
X50464703Y18053101D01*
Y17968999D01*
X50320599D01*
X50310690Y17967026D01*
X50302289Y17961412D01*
X50296674Y17953011D01*
X50294702Y17943100D01*
Y17888553D01*
X49993558D01*
X49993207Y17889008D01*
X49975369Y17902698D01*
X49954593Y17911302D01*
X49944998Y17912566D01*
Y17710802D01*
X50018436D01*
Y17747647D01*
X50294702D01*
Y17693100D01*
X50296674Y17683189D01*
X50302289Y17674788D01*
X50310690Y17669174D01*
X50320599Y17667203D01*
X50464703D01*
Y17583099D01*
X50466675Y17573189D01*
X50472287Y17564787D01*
X50480688Y17559174D01*
X50490601Y17557202D01*
X50620599D01*
X50630511Y17559174D01*
X50638913Y17564787D01*
X50644525Y17573189D01*
X50646497Y17583099D01*
Y17667203D01*
X50720599D01*
X50730511Y17669174D01*
X50738913Y17674788D01*
X50744525Y17683189D01*
X50746497Y17693100D01*
Y17943100D01*
X50744525Y17953011D01*
X50738913Y17961412D01*
X50730511Y17967026D01*
X50720599Y17968999D01*
X50646497D01*
Y18053101D01*
X50644525Y18063011D01*
X50638913Y18071413D01*
X50630511Y18077026D01*
X50620599Y18078998D01*
D02*
G37*
G36*
X49669598Y18055402D02*
X49596161D01*
Y17928102D01*
X49599097Y17905807D01*
X49607703Y17885034D01*
X49621390Y17867194D01*
X49639230Y17853506D01*
X49660004Y17844901D01*
X49669598Y17843637D01*
Y18055402D01*
D02*
G37*
G36*
X49768436D02*
X49694998D01*
Y17843637D01*
X49704593Y17844901D01*
X49725366Y17853506D01*
X49743207Y17867194D01*
X49756894Y17885034D01*
X49765500Y17905807D01*
X49768436Y17928102D01*
Y18055402D01*
D02*
G37*
G36*
X49919598Y17912566D02*
X49910007Y17911302D01*
X49889233Y17902698D01*
X49871393Y17889008D01*
X49857703Y17871169D01*
X49849100Y17850394D01*
X49846164Y17828101D01*
Y17710802D01*
X49919598D01*
Y17912566D01*
D02*
G37*
G36*
Y17685400D02*
X49846164D01*
Y17568100D01*
X49849100Y17545805D01*
X49857703Y17525032D01*
X49871393Y17507191D01*
X49889233Y17493504D01*
X49910007Y17484898D01*
X49919598Y17483636D01*
Y17685400D01*
D02*
G37*
G36*
X50018436D02*
X49944998D01*
Y17483635D01*
X49954593Y17484898D01*
X49975369Y17493504D01*
X49993207Y17507191D01*
X50006897Y17525032D01*
X50015503Y17545805D01*
X50018436Y17568100D01*
Y17685400D01*
D02*
G37*
G36*
X52356293Y17855000D02*
X52317310D01*
X52279077Y17847394D01*
X52243060Y17832475D01*
X52210651Y17810818D01*
X52183081Y17783253D01*
X52161426Y17750841D01*
X52146509Y17714825D01*
X52138904Y17676591D01*
Y17637608D01*
X52146509Y17599374D01*
X52161426Y17563359D01*
X52183081Y17530946D01*
X52210651Y17503381D01*
X52243060Y17481723D01*
X52279077Y17466805D01*
X52317310Y17459200D01*
X52356293D01*
X52394525Y17466805D01*
X52430542Y17481723D01*
X52462958Y17503381D01*
X52490521Y17530946D01*
X52512177Y17563359D01*
X52527094Y17599374D01*
X52534705Y17637608D01*
Y17676591D01*
X52527094Y17714825D01*
X52512177Y17750841D01*
X52490521Y17783253D01*
X52462958Y17810818D01*
X52430542Y17832475D01*
X52394525Y17847394D01*
X52356293Y17855000D01*
D02*
G37*
G36*
X55150293Y17842300D02*
X55111310D01*
X55073077Y17834694D01*
X55037061Y17819775D01*
X55004651Y17798119D01*
X54977081Y17770554D01*
X54955426Y17738139D01*
X54940509Y17702126D01*
X54932904Y17663892D01*
Y17624908D01*
X54940509Y17586674D01*
X54955426Y17550659D01*
X54977081Y17518246D01*
X55004651Y17490681D01*
X55037061Y17469023D01*
X55073077Y17454105D01*
X55111310Y17446500D01*
X55150293D01*
X55188525Y17454105D01*
X55224542Y17469023D01*
X55256958Y17490681D01*
X55284521Y17518246D01*
X55306177Y17550659D01*
X55321094Y17586674D01*
X55328705Y17624908D01*
Y17663892D01*
X55321094Y17702126D01*
X55306177Y17738139D01*
X55284521Y17770554D01*
X55256958Y17798119D01*
X55224542Y17819775D01*
X55188525Y17834694D01*
X55150293Y17842300D01*
D02*
G37*
G36*
X57944293Y17804201D02*
X57905310D01*
X57867078Y17796594D01*
X57831061Y17781676D01*
X57798645Y17760019D01*
X57771082Y17732452D01*
X57749426Y17700040D01*
X57734509Y17664024D01*
X57726904Y17625790D01*
Y17586807D01*
X57734509Y17548573D01*
X57749426Y17512560D01*
X57771082Y17480145D01*
X57798645Y17452580D01*
X57831061Y17430923D01*
X57867078Y17416005D01*
X57905310Y17408400D01*
X57944293D01*
X57982526Y17416005D01*
X58018542Y17430923D01*
X58050958Y17452580D01*
X58078522Y17480145D01*
X58100177Y17512560D01*
X58115094Y17548573D01*
X58122699Y17586807D01*
Y17625790D01*
X58115094Y17664024D01*
X58100177Y17700040D01*
X58078522Y17732452D01*
X58050958Y17760019D01*
X58018542Y17781676D01*
X57982526Y17796594D01*
X57944293Y17804201D01*
D02*
G37*
G36*
X51241595Y16764812D02*
Y16598901D01*
X51332184D01*
Y16663200D01*
X51328662Y16689932D01*
X51318347Y16714842D01*
X51301935Y16736232D01*
X51280542Y16752646D01*
X51255634Y16762964D01*
X51241595Y16764812D01*
D02*
G37*
G36*
X49402298Y17583385D02*
X49372461Y17579456D01*
X49360272Y17574408D01*
X49232300D01*
X49204785Y17570786D01*
X49179144Y17560165D01*
X49157126Y17543269D01*
X49140231Y17521252D01*
X49129611Y17495613D01*
X49125989Y17468098D01*
X49129611Y17440582D01*
X49140231Y17414944D01*
X49157126Y17392926D01*
X49179144Y17376031D01*
X49204785Y17365411D01*
X49232300Y17361789D01*
X49287012D01*
Y16979797D01*
X49217599D01*
X49207690Y16977826D01*
X49199289Y16972212D01*
X49193674Y16963811D01*
X49191702Y16953900D01*
Y16753900D01*
X49193674Y16743990D01*
X49199289Y16735588D01*
X49207690Y16729974D01*
X49217599Y16728001D01*
X49291702D01*
Y16658900D01*
X49293674Y16648988D01*
X49299289Y16640587D01*
X49307690Y16634975D01*
X49317599Y16633002D01*
X49437601D01*
X49447510Y16634975D01*
X49455911Y16640587D01*
X49461526Y16648988D01*
X49463498Y16658900D01*
Y16728001D01*
X49537601D01*
X49547510Y16729974D01*
X49555911Y16735588D01*
X49557935Y16738614D01*
X50286646D01*
X50433615Y16591647D01*
Y16586200D01*
X50437543Y16556361D01*
X50445618Y16536868D01*
Y16509200D01*
X50449136Y16482468D01*
X50459454Y16457558D01*
X50475867Y16436168D01*
X50497260Y16419754D01*
X50522168Y16409436D01*
X50548901Y16405916D01*
X50575632Y16409436D01*
X50578320Y16410548D01*
X50616422Y16385852D01*
Y14993098D01*
X50581219Y14978517D01*
X50410721Y15149017D01*
X50410721Y15149019D01*
X50061600Y15498138D01*
Y15610899D01*
X49785800D01*
Y15335098D01*
X49898560D01*
X50247681Y14985980D01*
X50247681Y14985979D01*
X50595813Y14637846D01*
Y14503400D01*
X50599741Y14473563D01*
X50611258Y14445757D01*
X50629581Y14421880D01*
X50653458Y14403558D01*
X50681262Y14392043D01*
X50711099Y14388113D01*
X50740939Y14392043D01*
X50768744Y14403558D01*
X50792621Y14421880D01*
X50810941Y14445757D01*
X50822458Y14473563D01*
X50826385Y14503400D01*
Y14685599D01*
X50822458Y14715437D01*
X50821375Y14718053D01*
Y16385857D01*
X50859476Y16410551D01*
X50862167Y16409436D01*
X50876199Y16407588D01*
Y16586200D01*
Y16764812D01*
X50862167Y16762964D01*
X50837259Y16752646D01*
X50815869Y16736232D01*
X50791931D01*
X50770541Y16752646D01*
X50745630Y16762964D01*
X50718896Y16766484D01*
X50692166Y16762964D01*
X50667255Y16752646D01*
X50661029Y16747868D01*
X50633899Y16739793D01*
X50606769Y16747868D01*
X50600543Y16752646D01*
X50597388Y16753954D01*
X50415921Y16935422D01*
X50392044Y16953741D01*
X50364240Y16965259D01*
X50334399Y16969186D01*
X49557935D01*
X49555911Y16972212D01*
X49547510Y16977826D01*
X49537601Y16979797D01*
X49517584D01*
Y17361789D01*
X49572299D01*
X49599814Y17365411D01*
X49625455Y17376031D01*
X49647470Y17392926D01*
X49664365Y17414944D01*
X49674985Y17440582D01*
X49678610Y17468098D01*
X49674985Y17495613D01*
X49664365Y17521252D01*
X49647470Y17543269D01*
X49625455Y17560165D01*
X49599814Y17570786D01*
X49572299Y17574408D01*
X49444327D01*
X49432138Y17579456D01*
X49402298Y17583385D01*
D02*
G37*
G36*
X51332184Y16573502D02*
X51241595D01*
Y16407588D01*
X51255634Y16409436D01*
X51280542Y16419754D01*
X51301935Y16436168D01*
X51318347Y16457558D01*
X51328662Y16482468D01*
X51332184Y16509200D01*
Y16573502D01*
D02*
G37*
G36*
X50393332Y16065500D02*
X50317401D01*
Y15989568D01*
X50339014Y15995358D01*
X50359286Y16007062D01*
X50375839Y16023615D01*
X50387543Y16043886D01*
X50393332Y16065500D01*
D02*
G37*
G36*
X49437601Y16564798D02*
X49317599D01*
X49307690Y16562827D01*
X49299289Y16557213D01*
X49293674Y16548811D01*
X49291702Y16538901D01*
Y16469798D01*
X49217599D01*
X49207690Y16467825D01*
X49199289Y16462212D01*
X49193674Y16453812D01*
X49191702Y16443900D01*
Y16243900D01*
X49193674Y16233989D01*
X49199289Y16225587D01*
X49207690Y16219974D01*
X49217599Y16218002D01*
X49291702D01*
Y16178900D01*
X49293674Y16168990D01*
X49299289Y16160588D01*
X49307690Y16154974D01*
X49317599Y16153001D01*
X49437601D01*
X49447510Y16154974D01*
X49455911Y16160588D01*
X49461526Y16168990D01*
X49463498Y16178900D01*
Y16218002D01*
X49537601D01*
X49547510Y16219974D01*
X49555911Y16225587D01*
X49561526Y16233989D01*
X49563498Y16243900D01*
Y16273447D01*
X50009818D01*
X50215799Y16067465D01*
Y16066496D01*
X50221857Y16043886D01*
X50233563Y16023615D01*
X50250113Y16007062D01*
X50270386Y15995358D01*
X50292001Y15989568D01*
Y16078200D01*
X50304700D01*
Y16090900D01*
X50393332D01*
X50387543Y16112514D01*
X50375839Y16132787D01*
X50359286Y16149338D01*
X50339014Y16161041D01*
X50316403Y16167101D01*
X50315436D01*
X50088818Y16393716D01*
X50074228Y16404913D01*
X50057236Y16411951D01*
X50039001Y16414352D01*
X49563498D01*
Y16443900D01*
X49561526Y16453812D01*
X49555911Y16462212D01*
X49547510Y16467825D01*
X49537601Y16469798D01*
X49463498D01*
Y16538901D01*
X49461526Y16548811D01*
X49455911Y16557213D01*
X49447510Y16562827D01*
X49437601Y16564798D01*
D02*
G37*
G36*
X57568103Y18745200D02*
X57544696D01*
X57522089Y18739142D01*
X57501813Y18727438D01*
X57485260Y18710886D01*
X57473560Y18690614D01*
X57467499Y18668004D01*
Y18644595D01*
X57473560Y18621986D01*
X57485260Y18601714D01*
X57485950Y18601028D01*
Y15659541D01*
X57476416Y15654037D01*
X57459863Y15637486D01*
X57448157Y15617213D01*
X57442102Y15594604D01*
Y15571196D01*
X57448157Y15548586D01*
X57459863Y15528314D01*
X57476416Y15511761D01*
X57496686Y15500058D01*
X57519293Y15494000D01*
X57542706D01*
X57565314Y15500058D01*
X57585583Y15511761D01*
X57602136Y15528314D01*
X57613843Y15548586D01*
X57619897Y15571196D01*
Y15589384D01*
X57624451Y15600375D01*
X57626855Y15618610D01*
Y18601028D01*
X57627539Y18601714D01*
X57639240Y18621986D01*
X57645300Y18644595D01*
Y18668004D01*
X57639240Y18690614D01*
X57627539Y18710886D01*
X57610986Y18727438D01*
X57590717Y18739142D01*
X57568103Y18745200D01*
D02*
G37*
G36*
X63582642Y15182201D02*
X63576202D01*
Y15049500D01*
X63708899D01*
Y15055942D01*
X63698993Y15092921D01*
X63679846Y15126077D01*
X63652777Y15153149D01*
X63619623Y15172292D01*
X63582642Y15182201D01*
D02*
G37*
G36*
X63550800D02*
X63544360D01*
X63507379Y15172292D01*
X63474225Y15153149D01*
X63447150Y15126077D01*
X63428009Y15092921D01*
X63418103Y15055942D01*
Y15049500D01*
X63550800D01*
Y15182201D01*
D02*
G37*
G36*
X63708899Y15024100D02*
X63576202D01*
Y14891400D01*
X63582642D01*
X63619623Y14901309D01*
X63652777Y14920451D01*
X63679846Y14947522D01*
X63698993Y14980678D01*
X63708899Y15017657D01*
Y15024100D01*
D02*
G37*
G36*
X63550800D02*
X63418103D01*
Y15017657D01*
X63428009Y14980678D01*
X63447150Y14947522D01*
X63474225Y14920451D01*
X63507379Y14901309D01*
X63544360Y14891400D01*
X63550800D01*
Y15024100D01*
D02*
G37*
G36*
X55078906Y15049500D02*
X55055493D01*
X55032886Y15043442D01*
X55012616Y15031738D01*
X54996063Y15015186D01*
X54984357Y14994914D01*
X54978302Y14972304D01*
Y14971335D01*
X54834821Y14827853D01*
X54335071D01*
X54334387Y14828539D01*
X54314111Y14840242D01*
X54291504Y14846300D01*
X54268097D01*
X54245483Y14840242D01*
X54225214Y14828539D01*
X54208661Y14811986D01*
X54196960Y14791714D01*
X54190900Y14769104D01*
Y14745695D01*
X54196960Y14723087D01*
X54208661Y14702814D01*
X54225214Y14686263D01*
X54245483Y14674557D01*
X54268097Y14668500D01*
X54291504D01*
X54314111Y14674557D01*
X54334387Y14686263D01*
X54335071Y14686948D01*
X54864001D01*
X54882233Y14689348D01*
X54899225Y14696387D01*
X54913818Y14707582D01*
X55077936Y14871700D01*
X55078906D01*
X55101514Y14877757D01*
X55121783Y14889462D01*
X55138336Y14906013D01*
X55150043Y14926286D01*
X55156097Y14948895D01*
Y14972304D01*
X55150043Y14994914D01*
X55138336Y15015186D01*
X55121783Y15031738D01*
X55101514Y15043442D01*
X55078906Y15049500D01*
D02*
G37*
G36*
X49941855Y13620901D02*
X49936401D01*
Y13495702D01*
X50061600D01*
Y13501157D01*
X50052203Y13536227D01*
X50034048Y13567673D01*
X50008374Y13593349D01*
X49976926Y13611504D01*
X49941855Y13620901D01*
D02*
G37*
G36*
X49910999D02*
X49905545D01*
X49870474Y13611504D01*
X49839026Y13593349D01*
X49813351Y13567673D01*
X49795197Y13536227D01*
X49785800Y13501157D01*
Y13495702D01*
X49910999D01*
Y13620901D01*
D02*
G37*
G36*
X50061600Y13470300D02*
X49936401D01*
Y13345100D01*
X49941855D01*
X49976926Y13354498D01*
X50008374Y13372653D01*
X50034048Y13398328D01*
X50052203Y13429773D01*
X50061600Y13464845D01*
Y13470300D01*
D02*
G37*
G36*
X49910999D02*
X49785800D01*
Y13464845D01*
X49795197Y13429773D01*
X49813351Y13398328D01*
X49839026Y13372653D01*
X49870474Y13354498D01*
X49905545Y13345100D01*
X49910999D01*
Y13470300D01*
D02*
G37*
G36*
X53956293Y12335000D02*
X53917310D01*
X53879071Y12327395D01*
X53843060Y12312477D01*
X53810645Y12290819D01*
X53783081Y12263254D01*
X53761420Y12230841D01*
X53746503Y12194826D01*
X53738898Y12156592D01*
Y12117609D01*
X53746503Y12079375D01*
X53761420Y12043360D01*
X53783081Y12010947D01*
X53810645Y11983381D01*
X53843060Y11961724D01*
X53879071Y11946806D01*
X53917310Y11939200D01*
X53956293D01*
X53994525Y11946806D01*
X54030542Y11961724D01*
X54062952Y11983381D01*
X54090515Y12010947D01*
X54112177Y12043360D01*
X54127094Y12079375D01*
X54134698Y12117609D01*
Y12156592D01*
X54127094Y12194826D01*
X54112177Y12230841D01*
X54090515Y12263254D01*
X54062952Y12290819D01*
X54030542Y12312477D01*
X53994525Y12327395D01*
X53956293Y12335000D01*
D02*
G37*
G36*
X56750293Y12322300D02*
X56711310D01*
X56673071Y12314695D01*
X56637061Y12299777D01*
X56604645Y12278119D01*
X56577081Y12250554D01*
X56555420Y12218141D01*
X56540503Y12182126D01*
X56532898Y12143892D01*
Y12104909D01*
X56540503Y12066675D01*
X56555420Y12030660D01*
X56577081Y11998247D01*
X56604645Y11970681D01*
X56637061Y11949024D01*
X56673071Y11934106D01*
X56711310Y11926500D01*
X56750293D01*
X56788525Y11934106D01*
X56824536Y11949024D01*
X56856952Y11970681D01*
X56884515Y11998247D01*
X56906177Y12030660D01*
X56921094Y12066675D01*
X56928699Y12104909D01*
Y12143892D01*
X56921094Y12182126D01*
X56906177Y12218141D01*
X56884515Y12250554D01*
X56856952Y12278119D01*
X56824536Y12299777D01*
X56788525Y12314695D01*
X56750293Y12322300D01*
D02*
G37*
G36*
X59544287Y12284200D02*
X59505304D01*
X59467072Y12276595D01*
X59431061Y12261677D01*
X59398645Y12240019D01*
X59371082Y12212454D01*
X59349420Y12180041D01*
X59334503Y12144026D01*
X59326898Y12105792D01*
Y12066809D01*
X59334503Y12028575D01*
X59349420Y11992560D01*
X59371082Y11960147D01*
X59398645Y11932581D01*
X59431061Y11910924D01*
X59467072Y11896006D01*
X59505304Y11888400D01*
X59544287D01*
X59582526Y11896006D01*
X59618536Y11910924D01*
X59650952Y11932581D01*
X59678516Y11960147D01*
X59700177Y11992560D01*
X59715094Y12028575D01*
X59722699Y12066809D01*
Y12105792D01*
X59715094Y12144026D01*
X59700177Y12180041D01*
X59678516Y12212454D01*
X59650952Y12240019D01*
X59618536Y12261677D01*
X59582526Y12276595D01*
X59544287Y12284200D01*
D02*
G37*
G36*
X62389093Y12271500D02*
X62350110D01*
X62311871Y12263895D01*
X62275861Y12248977D01*
X62243445Y12227319D01*
X62215881Y12199754D01*
X62194220Y12167341D01*
X62179303Y12131326D01*
X62171698Y12093092D01*
Y12054109D01*
X62179303Y12015875D01*
X62194220Y11979860D01*
X62215881Y11947447D01*
X62243445Y11919881D01*
X62275861Y11898224D01*
X62311871Y11883306D01*
X62350110Y11875700D01*
X62389093D01*
X62427325Y11883306D01*
X62463336Y11898224D01*
X62495752Y11919881D01*
X62523315Y11947447D01*
X62544977Y11979860D01*
X62559894Y12015875D01*
X62567499Y12054109D01*
Y12093092D01*
X62559894Y12131326D01*
X62544977Y12167341D01*
X62523315Y12199754D01*
X62495752Y12227319D01*
X62463336Y12248977D01*
X62427325Y12263895D01*
X62389093Y12271500D01*
D02*
G37*
G36*
X51085101Y11981800D02*
X50952399D01*
Y11849100D01*
X51085101D01*
Y11981800D01*
D02*
G37*
G36*
X50926999D02*
X50794299D01*
Y11849100D01*
X50926999D01*
Y11981800D01*
D02*
G37*
G36*
X51085101Y11823700D02*
X50952399D01*
Y11691000D01*
X51085101D01*
Y11823700D01*
D02*
G37*
G36*
X50926999D02*
X50794299D01*
Y11691000D01*
X50926999D01*
Y11823700D01*
D02*
G37*
G36*
X52355878Y11460000D02*
X52317725D01*
X52280872Y11450126D01*
X52247833Y11431050D01*
X52220856Y11404071D01*
X52201776Y11371030D01*
X52191901Y11334177D01*
Y11296024D01*
X52201776Y11259171D01*
X52220856Y11226130D01*
X52247833Y11199152D01*
X52280872Y11180075D01*
X52317725Y11170201D01*
X52355878D01*
X52392731Y11180075D01*
X52425769Y11199152D01*
X52452753Y11226130D01*
X52471826Y11259171D01*
X52481702Y11296024D01*
Y11334177D01*
X52471826Y11371030D01*
X52452753Y11404071D01*
X52425769Y11431050D01*
X52392731Y11450126D01*
X52355878Y11460000D01*
D02*
G37*
G36*
X55149878Y11447300D02*
X55111725D01*
X55074872Y11437426D01*
X55041833Y11418350D01*
X55014856Y11391371D01*
X54995776Y11358330D01*
X54985901Y11321477D01*
Y11283324D01*
X54995776Y11246471D01*
X55014856Y11213430D01*
X55041833Y11186452D01*
X55074872Y11167375D01*
X55111725Y11157501D01*
X55149878D01*
X55186731Y11167375D01*
X55219769Y11186452D01*
X55246753Y11213430D01*
X55265826Y11246471D01*
X55275702Y11283324D01*
Y11321477D01*
X55265826Y11358330D01*
X55246753Y11391371D01*
X55219769Y11418350D01*
X55186731Y11437426D01*
X55149878Y11447300D01*
D02*
G37*
G36*
X57943878Y11409200D02*
X57905725D01*
X57868872Y11399326D01*
X57835834Y11380250D01*
X57808850Y11353271D01*
X57789777Y11320230D01*
X57779901Y11283377D01*
Y11245224D01*
X57789777Y11208371D01*
X57808850Y11175330D01*
X57835834Y11148352D01*
X57868872Y11129275D01*
X57905725Y11119401D01*
X57943878D01*
X57980731Y11129275D01*
X58013770Y11148352D01*
X58040753Y11175330D01*
X58059827Y11208371D01*
X58069702Y11245224D01*
Y11283377D01*
X58059827Y11320230D01*
X58040753Y11353271D01*
X58013770Y11380250D01*
X57980731Y11399326D01*
X57943878Y11409200D01*
D02*
G37*
G36*
X60788678Y11396500D02*
X60750525D01*
X60713672Y11386626D01*
X60680634Y11367550D01*
X60653656Y11340571D01*
X60634576Y11307530D01*
X60624701Y11270677D01*
Y11232524D01*
X60634576Y11195671D01*
X60653656Y11162630D01*
X60680634Y11135652D01*
X60713672Y11116575D01*
X60750525Y11106701D01*
X60788678D01*
X60825531Y11116575D01*
X60858569Y11135652D01*
X60885553Y11162630D01*
X60904626Y11195671D01*
X60914502Y11232524D01*
Y11270677D01*
X60904626Y11307530D01*
X60885553Y11340571D01*
X60858569Y11367550D01*
X60825531Y11386626D01*
X60788678Y11396500D01*
D02*
G37*
G36*
X63708899Y14674200D02*
X63418103D01*
Y14546439D01*
X61488080Y12616420D01*
X61469757Y12592543D01*
X61458240Y12564738D01*
X61454315Y12534900D01*
Y11265003D01*
X61220697D01*
Y10981889D01*
X59073700D01*
Y11277703D01*
X58566650D01*
Y11412829D01*
X58567340Y11413514D01*
X58579041Y11433786D01*
X58585101Y11456396D01*
Y11479804D01*
X58579041Y11502414D01*
X58567340Y11522686D01*
X58550787Y11539238D01*
X58530511Y11550942D01*
X58507904Y11557000D01*
X58484497D01*
X58461884Y11550942D01*
X58441614Y11539238D01*
X58425061Y11522686D01*
X58413361Y11502414D01*
X58407300Y11479804D01*
Y11456396D01*
X58413361Y11433786D01*
X58425061Y11413514D01*
X58425745Y11412829D01*
Y11277703D01*
X58375897D01*
Y10994589D01*
X56279700D01*
Y11315803D01*
X55581897D01*
Y11032689D01*
X53485699D01*
Y11328503D01*
X52787903D01*
Y10531703D01*
X53485699D01*
Y10802116D01*
X55581897D01*
Y10519003D01*
X55847644D01*
Y9532750D01*
X55821448D01*
Y9519253D01*
X55519452D01*
Y9558150D01*
X55326147D01*
Y9464485D01*
X55076117Y9214453D01*
X53380902D01*
Y9248400D01*
X53172101D01*
Y9214453D01*
X53099689D01*
X53086603Y9227541D01*
X53062799Y9241285D01*
X53036243Y9248400D01*
X53008759D01*
X52982202Y9241285D01*
X52958398Y9227541D01*
X52945306Y9214453D01*
X52851654D01*
Y9448800D01*
X52849249Y9467034D01*
X52842212Y9484026D01*
X52831018Y9498618D01*
X52310321Y10019318D01*
X52295728Y10030514D01*
X52278735Y10037552D01*
X52260498Y10039953D01*
X51054218D01*
X51043350Y10058778D01*
X51016278Y10085849D01*
X50983121Y10104991D01*
X50946143Y10114900D01*
X50907858D01*
X50870877Y10104991D01*
X50837723Y10085849D01*
X50810651Y10058778D01*
X50791510Y10025622D01*
X50781601Y9988642D01*
Y9950358D01*
X50791510Y9913378D01*
X50810651Y9880222D01*
X50837723Y9853151D01*
X50870877Y9834009D01*
X50907858Y9824100D01*
X50946143D01*
X50983121Y9834009D01*
X51016278Y9853151D01*
X51043350Y9880222D01*
X51054218Y9899047D01*
X52231317D01*
X52710748Y9419618D01*
Y9231207D01*
X52704395Y9227541D01*
X52684961Y9208103D01*
X52671216Y9184297D01*
X52670123Y9180218D01*
X52664508Y9173753D01*
X52629498Y9160793D01*
X52627344Y9160983D01*
X52615839Y9169166D01*
X52611786Y9184297D01*
X52598041Y9208103D01*
X52578601Y9227541D01*
X52554797Y9241285D01*
X52528241Y9248400D01*
X52509735D01*
X52246820Y9511318D01*
X52232227Y9522514D01*
X52215234Y9529552D01*
X52196997Y9531953D01*
X51072400D01*
Y9606900D01*
X50781601D01*
Y9316100D01*
X51072400D01*
Y9391047D01*
X52167816D01*
X52410101Y9148765D01*
Y9130256D01*
X52417218Y9103703D01*
X52430957Y9079897D01*
X52450397Y9060459D01*
X52474200Y9046715D01*
X52500757Y9039600D01*
X52519263D01*
X52934583Y8624282D01*
X52949176Y8613086D01*
X52966168Y8606048D01*
X52984399Y8603647D01*
X57336029D01*
X57336713Y8602962D01*
X57356989Y8591258D01*
X57379596Y8585200D01*
X57403003D01*
X57425616Y8591258D01*
X57445886Y8602962D01*
X57462439Y8619514D01*
X57474139Y8639786D01*
X57480200Y8662396D01*
Y8685804D01*
X57474139Y8708414D01*
X57462439Y8728686D01*
X57445886Y8745238D01*
X57425616Y8756942D01*
X57403003Y8763000D01*
X57379596D01*
X57356989Y8756942D01*
X57336713Y8745238D01*
X57336029Y8744553D01*
X53013580D01*
X52756635Y9001500D01*
X52772418Y9039600D01*
X52782245D01*
X52808795Y9046715D01*
X52832605Y9060459D01*
X52845691Y9073547D01*
X52945306D01*
X52958398Y9060459D01*
X52982202Y9046715D01*
X53008759Y9039600D01*
X53036243D01*
X53062799Y9046715D01*
X53086603Y9060459D01*
X53099689Y9073547D01*
X53172101D01*
Y9039600D01*
X53380902D01*
Y9073547D01*
X55105298D01*
X55123535Y9075948D01*
X55140527Y9082986D01*
X55155121Y9094182D01*
X55425787Y9364850D01*
X55519452D01*
Y9378347D01*
X55821448D01*
Y9339450D01*
X56014752D01*
Y9532750D01*
X55988556D01*
Y10519003D01*
X56279700D01*
Y10764016D01*
X58375897D01*
Y10604831D01*
X58375299Y10600253D01*
Y10405432D01*
X57502612Y9532750D01*
X57408948D01*
Y9339450D01*
X57602252D01*
Y9433115D01*
X58495569Y10326432D01*
X58506763Y10341024D01*
X58513800Y10358016D01*
X58516205Y10376250D01*
Y10480903D01*
X59073700D01*
Y10751316D01*
X61220697D01*
Y10468203D01*
X61918500D01*
Y11265003D01*
X61684888D01*
Y12487147D01*
X63581140Y14383400D01*
X63708899D01*
Y14674200D01*
D02*
G37*
G36*
X54394122Y9596250D02*
X54368677D01*
X54344098Y9589663D01*
X54322052Y9576939D01*
X54304059Y9558945D01*
X54291339Y9536905D01*
X54284747Y9512324D01*
Y9486876D01*
X54291339Y9462295D01*
X54304059Y9440255D01*
X54322052Y9422261D01*
X54344098Y9409537D01*
X54368677Y9402950D01*
X54394122D01*
X54418707Y9409537D01*
X54440747Y9422261D01*
X54458740Y9440255D01*
X54471460Y9462295D01*
X54478052Y9486876D01*
Y9512324D01*
X54471460Y9536905D01*
X54458740Y9558945D01*
X54440747Y9576939D01*
X54418707Y9589663D01*
X54394122Y9596250D01*
D02*
G37*
G36*
X62349115Y9563100D02*
X62344299D01*
Y9398000D01*
X62509399D01*
Y9402812D01*
X62502570Y9437162D01*
X62489166Y9469520D01*
X62469708Y9498641D01*
X62444940Y9523406D01*
X62415820Y9542864D01*
X62383459Y9556267D01*
X62349115Y9563100D01*
D02*
G37*
G36*
X62318903D02*
X62314087D01*
X62279736Y9556267D01*
X62247382Y9542864D01*
X62218262Y9523406D01*
X62193494Y9498641D01*
X62174036Y9469520D01*
X62160632Y9437162D01*
X62153802Y9402812D01*
Y9398000D01*
X62318903D01*
Y9563100D01*
D02*
G37*
G36*
X59440814D02*
X59435999D01*
Y9398000D01*
X59601099D01*
Y9402812D01*
X59594269Y9437162D01*
X59580865Y9469520D01*
X59561407Y9498641D01*
X59536639Y9523406D01*
X59507520Y9542864D01*
X59475165Y9556267D01*
X59440814Y9563100D01*
D02*
G37*
G36*
X59410602D02*
X59405786D01*
X59371436Y9556267D01*
X59339081Y9542864D01*
X59309961Y9523406D01*
X59285193Y9498641D01*
X59265735Y9469520D01*
X59252332Y9437162D01*
X59245502Y9402812D01*
Y9398000D01*
X59410602D01*
Y9563100D01*
D02*
G37*
G36*
X57250604Y10693400D02*
X57227197D01*
X57204584Y10687342D01*
X57184314Y10675638D01*
X57167761Y10659086D01*
X57156061Y10638814D01*
X57150000Y10616204D01*
Y10615235D01*
X56909680Y10374918D01*
X56898486Y10360326D01*
X56891449Y10343334D01*
X56889044Y10325100D01*
Y9464231D01*
X56882159Y9457345D01*
X56869440Y9435305D01*
X56862848Y9410724D01*
Y9385276D01*
X56869440Y9360695D01*
X56882159Y9338655D01*
X56900153Y9320661D01*
X56922192Y9307937D01*
X56946777Y9301350D01*
X56972223D01*
X56996808Y9307937D01*
X57018848Y9320661D01*
X57036841Y9338655D01*
X57049561Y9360695D01*
X57056152Y9385276D01*
Y9410724D01*
X57049561Y9435305D01*
X57036841Y9457345D01*
X57029950Y9464231D01*
Y10295918D01*
X57249634Y10515600D01*
X57250604D01*
X57273212Y10521658D01*
X57293488Y10533362D01*
X57310040Y10549914D01*
X57321741Y10570186D01*
X57327802Y10592796D01*
Y10616204D01*
X57321741Y10638814D01*
X57310040Y10659086D01*
X57293488Y10675638D01*
X57273212Y10687342D01*
X57250604Y10693400D01*
D02*
G37*
G36*
X62509399Y9372600D02*
X62344299D01*
Y9207500D01*
X62349115D01*
X62383459Y9214333D01*
X62415820Y9227736D01*
X62444940Y9247194D01*
X62469708Y9271959D01*
X62489166Y9301080D01*
X62502570Y9333438D01*
X62509399Y9367788D01*
Y9372600D01*
D02*
G37*
G36*
X62318903D02*
X62153802D01*
Y9367788D01*
X62160632Y9333438D01*
X62174036Y9301080D01*
X62193494Y9271959D01*
X62218262Y9247194D01*
X62247382Y9227736D01*
X62279736Y9214333D01*
X62314087Y9207500D01*
X62318903D01*
Y9372600D01*
D02*
G37*
G36*
X59601099D02*
X59435999D01*
Y9207500D01*
X59440814D01*
X59475165Y9214333D01*
X59507520Y9227736D01*
X59536639Y9247194D01*
X59561407Y9271959D01*
X59580865Y9301080D01*
X59594269Y9333438D01*
X59601099Y9367788D01*
Y9372600D01*
D02*
G37*
G36*
X59410602D02*
X59245502D01*
Y9367788D01*
X59252332Y9333438D01*
X59265735Y9301080D01*
X59285193Y9271959D01*
X59309961Y9247194D01*
X59339081Y9227736D01*
X59371436Y9214333D01*
X59405786Y9207500D01*
X59410602D01*
Y9372600D01*
D02*
G37*
G36*
X61883197Y9097010D02*
X61855444D01*
X61828632Y9089826D01*
X61804596Y9075949D01*
X61784973Y9056324D01*
X61742847D01*
X61723224Y9075949D01*
X61699188Y9089826D01*
X61672375Y9097010D01*
X61644623D01*
X61617810Y9089826D01*
X61593774Y9075949D01*
X61574152Y9056323D01*
X61560272Y9032287D01*
X61553088Y9005478D01*
Y8977722D01*
X61560272Y8950913D01*
X61574152Y8926877D01*
X61593774Y8907251D01*
X61617810Y8893374D01*
X61644623Y8886190D01*
X61672375D01*
X61699188Y8893374D01*
X61723224Y8907251D01*
X61742847Y8926876D01*
X61784973D01*
X61804596Y8907251D01*
X61828632Y8893374D01*
X61855444Y8886190D01*
X61883197D01*
X61910010Y8893374D01*
X61934045Y8907251D01*
X61953668Y8926877D01*
X61967548Y8950913D01*
X61974731Y8977722D01*
Y9005478D01*
X61967548Y9032287D01*
X61953668Y9056323D01*
X61934045Y9075949D01*
X61910010Y9089826D01*
X61883197Y9097010D01*
D02*
G37*
G36*
X60222406Y10668000D02*
X60198999D01*
X60176385Y10661942D01*
X60156116Y10650238D01*
X60139563Y10633686D01*
X60127856Y10613414D01*
X60121802Y10590804D01*
Y10567396D01*
X60127856Y10544786D01*
X60138971Y10525539D01*
Y10395553D01*
X59474103D01*
X59455865Y10393152D01*
X59438873Y10386114D01*
X59424280Y10374918D01*
X58544012Y9494650D01*
X58534277D01*
X58509692Y9488063D01*
X58487653Y9475339D01*
X58469659Y9457345D01*
X58456940Y9435305D01*
X58450348Y9410724D01*
Y9400985D01*
X57501819Y8452453D01*
X53353693D01*
X53340601Y8465541D01*
X53316797Y8479285D01*
X53290247Y8486400D01*
X53262756D01*
X53236200Y8479285D01*
X53212396Y8465541D01*
X53192957Y8446103D01*
X53179218Y8422297D01*
X53172101Y8395744D01*
Y8368256D01*
X53179218Y8341703D01*
X53192957Y8317897D01*
X53212396Y8298459D01*
X53236200Y8284715D01*
X53262756Y8277600D01*
X53290247D01*
X53316797Y8284715D01*
X53340601Y8298459D01*
X53353693Y8311547D01*
X57531000D01*
X57549231Y8313948D01*
X57566223Y8320986D01*
X57580817Y8332182D01*
X58549988Y9301350D01*
X58559723D01*
X58584308Y9307937D01*
X58606348Y9320661D01*
X58624341Y9338655D01*
X58637061Y9360695D01*
X58643652Y9385276D01*
Y9395015D01*
X59503284Y10254647D01*
X60209424D01*
X60227655Y10257048D01*
X60244647Y10264086D01*
X60259241Y10275282D01*
X60270435Y10289874D01*
X60277478Y10306866D01*
X60279877Y10325100D01*
Y10522552D01*
X60281836Y10524514D01*
X60293542Y10544786D01*
X60299597Y10567396D01*
Y10590804D01*
X60293542Y10613414D01*
X60281836Y10633686D01*
X60265283Y10650238D01*
X60245013Y10661942D01*
X60222406Y10668000D01*
D02*
G37*
G36*
X53036243Y8486400D02*
X53008759D01*
X52982202Y8479285D01*
X52958398Y8465541D01*
X52938959Y8446103D01*
X52925214Y8422297D01*
X52918103Y8395744D01*
Y8368256D01*
X52925214Y8341703D01*
X52938959Y8317897D01*
X52958398Y8298459D01*
X52982202Y8284715D01*
X53008759Y8277600D01*
X53036243D01*
X53062799Y8284715D01*
X53086603Y8298459D01*
X53106042Y8317897D01*
X53119788Y8341703D01*
X53126898Y8368256D01*
Y8395744D01*
X53119788Y8422297D01*
X53106042Y8446103D01*
X53086603Y8465541D01*
X53062799Y8479285D01*
X53036243Y8486400D01*
D02*
G37*
G36*
X52782245D02*
X52754755D01*
X52728204Y8479285D01*
X52704395Y8465541D01*
X52684961Y8446103D01*
X52671216Y8422297D01*
X52664099Y8395744D01*
Y8368256D01*
X52671216Y8341703D01*
X52684961Y8317897D01*
X52704395Y8298459D01*
X52728204Y8284715D01*
X52754755Y8277600D01*
X52782245D01*
X52808795Y8284715D01*
X52832605Y8298459D01*
X52852039Y8317897D01*
X52865784Y8341703D01*
X52872900Y8368256D01*
Y8395744D01*
X52865784Y8422297D01*
X52852039Y8446103D01*
X52832605Y8465541D01*
X52808795Y8479285D01*
X52782245Y8486400D01*
D02*
G37*
G36*
X52528241D02*
X52500757D01*
X52474200Y8479285D01*
X52450397Y8465541D01*
X52430957Y8446103D01*
X52417218Y8422297D01*
X52410101Y8395744D01*
Y8368256D01*
X52417218Y8341703D01*
X52430957Y8317897D01*
X52450397Y8298459D01*
X52474200Y8284715D01*
X52500757Y8277600D01*
X52528241D01*
X52554797Y8284715D01*
X52578601Y8298459D01*
X52598041Y8317897D01*
X52611786Y8341703D01*
X52618903Y8368256D01*
Y8395744D01*
X52611786Y8422297D01*
X52598041Y8446103D01*
X52578601Y8465541D01*
X52554797Y8479285D01*
X52528241Y8486400D01*
D02*
G37*
%LPD*%
G36*
X55491724Y20898422D02*
X55485822Y20878304D01*
X55475104Y20873322D01*
X55378900D01*
Y20885899D01*
X55238098D01*
Y20770100D01*
X55238098Y20770100D01*
Y20740901D01*
X55238098D01*
X55238098Y20732001D01*
Y20685503D01*
X55238049Y20685101D01*
Y20683002D01*
X55238098Y20682600D01*
Y20662128D01*
X55200000Y20643111D01*
X55188452Y20651794D01*
Y20924541D01*
X55199261Y20935347D01*
X55464886D01*
X55491724Y20898422D01*
D02*
G37*
G36*
X62401520Y20928677D02*
X62409076Y20923582D01*
X62415277Y20875935D01*
X62400214Y20857471D01*
X62246100D01*
Y20885699D01*
X62130304D01*
Y20885699D01*
X62101099D01*
Y20885699D01*
X61985297D01*
Y20866971D01*
X61766785D01*
X61751459Y20905070D01*
X61769635Y20928677D01*
X62401520D01*
D02*
G37*
G36*
X61012543Y21011478D02*
X61015295Y20998846D01*
X61009613Y20990337D01*
X61007056Y20977499D01*
Y20967700D01*
X61131604D01*
Y20942300D01*
X61007056D01*
Y20932500D01*
X61009613Y20919662D01*
X61013293Y20914156D01*
X61016882Y20906052D01*
Y20891483D01*
X60987079Y20856921D01*
X60801801D01*
Y20869502D01*
X60660999D01*
X60636755Y20897559D01*
Y21026141D01*
X60647559Y21036948D01*
X61001776D01*
X61012543Y21011478D01*
D02*
G37*
G36*
X59518616Y20852478D02*
X59531396Y20843863D01*
X59537671Y20798660D01*
X59519940Y20774921D01*
X59401300D01*
Y20796800D01*
X59285504D01*
Y20796800D01*
X59256299D01*
Y20796800D01*
X59140497D01*
Y20778072D01*
X58831665D01*
X58830615Y20779639D01*
X58827032Y20817630D01*
X58830408Y20825255D01*
X58834088Y20830763D01*
X58836646Y20843600D01*
Y20852478D01*
X59518616D01*
D02*
G37*
G36*
X56932202Y20680101D02*
X57063000D01*
X57079279Y20648744D01*
Y20297591D01*
X57072656Y20290970D01*
X57031250D01*
X57031250Y20290970D01*
X57026868Y20290099D01*
X56944897D01*
Y20163200D01*
X56944897Y20159299D01*
Y20125101D01*
X56913501Y20105022D01*
X56721106D01*
X56721100Y20105022D01*
X56703760Y20101572D01*
X56698865Y20098300D01*
X56652802D01*
X56643903Y20098300D01*
X56614697D01*
X56602118Y20110880D01*
Y20251299D01*
X56602118Y20251300D01*
X56598669Y20268643D01*
X56588843Y20283347D01*
X56588843Y20283347D01*
X56252045Y20620149D01*
Y20634599D01*
X56249487Y20647437D01*
X56245807Y20652945D01*
X56242432Y20660570D01*
X56246014Y20698561D01*
X56247058Y20700130D01*
X56511597D01*
Y20681400D01*
X56627399D01*
Y20681400D01*
X56656604D01*
Y20681400D01*
X56772400D01*
Y20703329D01*
X56932202D01*
Y20680101D01*
D02*
G37*
G36*
X53193048Y20922145D02*
X53172498D01*
X53159662Y20919591D01*
X53148779Y20912320D01*
X53141510Y20901437D01*
X53138959Y20888600D01*
Y20866100D01*
X53028699D01*
Y20675600D01*
X53003296D01*
Y20866100D01*
X52893042D01*
Y20888600D01*
X52890491Y20901437D01*
X52883221Y20912320D01*
X52872339Y20919591D01*
X52859497Y20922145D01*
X52847870D01*
X52847083Y20922647D01*
X52856146Y20953645D01*
X52862390Y20960747D01*
X53193048D01*
Y20922145D01*
D02*
G37*
G36*
X52521521Y20922647D02*
X52519562Y20920686D01*
X52507855Y20900414D01*
X52501801Y20877805D01*
Y20856802D01*
X52380603D01*
Y20749898D01*
X52380603Y20741002D01*
X52380603D01*
Y20711798D01*
X52380603D01*
Y20666599D01*
X52451001D01*
Y20641199D01*
X52380603D01*
Y20606354D01*
X52280151D01*
Y20949940D01*
X52290961Y20960747D01*
X52505743D01*
X52521521Y20922647D01*
D02*
G37*
G36*
X60993231Y20755334D02*
X61007990Y20728181D01*
X61007056Y20723500D01*
Y20713699D01*
X61131604D01*
Y20688300D01*
X61007056D01*
Y20678500D01*
X61009613Y20665663D01*
X61013293Y20660155D01*
X61016882Y20652051D01*
Y20627682D01*
X60995630Y20593652D01*
X60833667D01*
X60801801Y20608698D01*
X60801801Y20631754D01*
Y20653899D01*
X60731403D01*
Y20679298D01*
X60801801D01*
Y20715601D01*
X60801801Y20724498D01*
Y20753700D01*
X60814380Y20766281D01*
X60983795D01*
X60993231Y20755334D01*
D02*
G37*
G36*
X58477301Y20485100D02*
X58587555D01*
Y20462601D01*
X58590106Y20449763D01*
X58597382Y20438879D01*
X58608264Y20431609D01*
X58621100Y20429054D01*
X58641644D01*
Y20270721D01*
X58436102D01*
Y20301500D01*
X58320300D01*
Y20301500D01*
X58291095D01*
Y20301500D01*
X58175299D01*
Y20230144D01*
X58084772Y20139618D01*
X58081195Y20138570D01*
X58040997Y20143323D01*
X58038074Y20145418D01*
X57922900Y20260593D01*
Y20339299D01*
X57922900Y20339299D01*
Y20351501D01*
X57922900D01*
X57922900Y20377399D01*
Y20410201D01*
X57848499D01*
Y20435600D01*
X57922900D01*
Y20478146D01*
X57971716D01*
X58014581Y20435281D01*
X58029175Y20424086D01*
X58046167Y20417049D01*
X58064398Y20414647D01*
X58217102D01*
X58235333Y20417049D01*
X58252325Y20424086D01*
X58258801Y20429054D01*
X58308099D01*
X58320935Y20431609D01*
X58331818Y20438879D01*
X58339093Y20449763D01*
X58341644Y20462601D01*
Y20485100D01*
X58451904D01*
Y20675600D01*
X58477301D01*
Y20485100D01*
D02*
G37*
G36*
X58983209Y20345399D02*
X58981940Y20331238D01*
X58970038Y20304686D01*
X58957184Y20301242D01*
X58936914Y20289539D01*
X58936230Y20288853D01*
X58837299D01*
Y20291100D01*
X58791138D01*
X58782550Y20299683D01*
Y20429054D01*
X58803101D01*
X58815936Y20431609D01*
X58826819Y20438879D01*
X58830432Y20444292D01*
X58856860Y20452580D01*
X58873920Y20454689D01*
X58983209Y20345399D01*
D02*
G37*
G36*
X56002954Y20462601D02*
X56005505Y20449763D01*
X56012781Y20438879D01*
X56023663Y20431609D01*
X56036499Y20429054D01*
X56057043D01*
Y20358276D01*
X56018945Y20337592D01*
X56015912Y20339342D01*
X55993304Y20345399D01*
X55969897D01*
X55947284Y20339342D01*
X55927014Y20327638D01*
X55910461Y20311086D01*
X55898761Y20290814D01*
X55892700Y20268204D01*
Y20244797D01*
X55898761Y20222186D01*
X55906866Y20208141D01*
X55894153Y20185022D01*
X55883997Y20174500D01*
X55780304D01*
Y20174500D01*
X55751099D01*
Y20174500D01*
X55714185D01*
X55711792Y20178078D01*
X55711792Y20178079D01*
X55702924Y20186948D01*
X55688220Y20196771D01*
X55670880Y20200221D01*
X55395599D01*
Y20339299D01*
X55395599Y20339299D01*
Y20351501D01*
X55395599D01*
X55395599Y20377399D01*
Y20410201D01*
X55321198D01*
Y20435600D01*
X55395599D01*
Y20437238D01*
X55408716Y20448119D01*
X55433698Y20458862D01*
X55442664Y20455148D01*
X55460901Y20452747D01*
X55483539D01*
X55486554Y20449733D01*
X55501147Y20438536D01*
X55518140Y20431499D01*
X55536371Y20429097D01*
X55541290D01*
X55541504Y20429054D01*
X55700592D01*
X55710925Y20391815D01*
X55710931Y20390955D01*
X55694562Y20374586D01*
X55682855Y20354314D01*
X55677069Y20332700D01*
X55765698D01*
Y20320000D01*
X55778400D01*
Y20231367D01*
X55800012Y20237158D01*
X55820288Y20248862D01*
X55836841Y20265414D01*
X55848541Y20285686D01*
X55854602Y20308296D01*
Y20319576D01*
X55862360Y20327332D01*
X55873553Y20341924D01*
X55880591Y20358916D01*
X55882996Y20377150D01*
Y20485100D01*
X56002954D01*
Y20462601D01*
D02*
G37*
G36*
X52376599Y20422900D02*
X52451001D01*
X52525708D01*
X52529510Y20426807D01*
X52563501Y20440781D01*
X52566425Y20438536D01*
X52583417Y20431499D01*
X52601648Y20429097D01*
X52677289D01*
X52677502Y20429054D01*
X52726801D01*
X52733276Y20424086D01*
X52750269Y20417049D01*
X52768500Y20414647D01*
X52786737Y20417049D01*
X52799622Y20422386D01*
X52811694Y20415910D01*
X52815570Y20402016D01*
X52815546Y20390794D01*
X52812317Y20375240D01*
X52798962Y20361887D01*
X52787256Y20341614D01*
X52781470Y20320000D01*
X52870099D01*
Y20294600D01*
X52781470D01*
X52787256Y20272986D01*
X52798962Y20252715D01*
X52813354Y20238321D01*
X52812573Y20228590D01*
X52801569Y20200221D01*
X52525403D01*
Y20326599D01*
X52525403D01*
Y20338802D01*
X52525403D01*
Y20397501D01*
X52451001D01*
X52376599D01*
Y20338802D01*
X52376599D01*
Y20326599D01*
X52376599D01*
Y20247893D01*
X52283600Y20154895D01*
X52282166Y20152747D01*
X52258600Y20141621D01*
X52236194Y20143730D01*
X52217926Y20151537D01*
Y20465446D01*
X52376599D01*
Y20422900D01*
D02*
G37*
G36*
X58682666Y20141980D02*
X58663641Y20121352D01*
X58646649Y20114314D01*
X58632056Y20103117D01*
X58579980Y20051041D01*
X58568787Y20036450D01*
X58561749Y20019458D01*
X58559344Y20001224D01*
Y19772401D01*
X58561749Y19754167D01*
X58568787Y19737175D01*
X58574115Y19730232D01*
Y19726651D01*
X58577228Y19710985D01*
X58586102Y19697705D01*
X58599384Y19688831D01*
X58615051Y19685715D01*
X58644550D01*
X58669598Y19666821D01*
Y19635809D01*
X58639325Y19608086D01*
X58615051D01*
X58599384Y19604968D01*
X58586102Y19596095D01*
X58577228Y19582816D01*
X58574115Y19567149D01*
Y19522437D01*
X58571002Y19521819D01*
X58556305Y19511995D01*
X58556305Y19511995D01*
X58469830Y19425520D01*
X58425568D01*
X58416217Y19462457D01*
X58436487Y19474162D01*
X58453040Y19490714D01*
X58464740Y19510986D01*
X58470801Y19533595D01*
Y19557004D01*
X58464740Y19579614D01*
X58453040Y19599886D01*
X58436487Y19616438D01*
X58416217Y19628142D01*
X58393604Y19634200D01*
X58370197D01*
X58347583Y19628142D01*
X58334564Y19620625D01*
X58252399Y19702792D01*
Y19810500D01*
X58137372D01*
Y19825533D01*
X58133923Y19842876D01*
X58128088Y19851601D01*
X58134344Y19872708D01*
X58145856Y19889700D01*
X58252399D01*
Y20061501D01*
X58188727D01*
X58172943Y20099602D01*
X58234039Y20160699D01*
X58291095D01*
Y20160699D01*
X58320300D01*
Y20160699D01*
X58436102D01*
Y20180080D01*
X58673358D01*
X58682666Y20141980D01*
D02*
G37*
G36*
X61985297Y20744901D02*
X62101099D01*
Y20744901D01*
X62130304D01*
Y20744901D01*
X62246100D01*
Y20766830D01*
X62431299D01*
Y20743600D01*
X62522925D01*
X62538708Y20705501D01*
X62477356Y20644147D01*
X62467529Y20629443D01*
X62464081Y20612100D01*
Y20340900D01*
X62444000D01*
Y20214001D01*
X62444000Y20210098D01*
Y20175900D01*
X62411298Y20158971D01*
X62249799D01*
Y20187199D01*
X62142902D01*
X62134003Y20187199D01*
X62104803D01*
X62092224Y20199780D01*
Y20528497D01*
X62088770Y20545842D01*
X62078949Y20560545D01*
X62078949Y20560545D01*
X62033447Y20606047D01*
X62018744Y20615871D01*
X62001398Y20619321D01*
X61840869D01*
X61751141Y20709048D01*
Y20723500D01*
X61748590Y20736337D01*
X61747327Y20738229D01*
X61758472Y20769043D01*
X61764203Y20776329D01*
X61985297D01*
Y20744901D01*
D02*
G37*
G36*
X59140497Y20656000D02*
X59256299D01*
Y20656000D01*
X59285504D01*
Y20656000D01*
X59401300D01*
Y20684280D01*
X59548401D01*
Y20667401D01*
X59679199D01*
X59695477Y20636044D01*
Y20306972D01*
X59640509Y20251999D01*
X59573798D01*
Y20125101D01*
X59573798Y20121199D01*
Y20087001D01*
X59541095Y20070071D01*
X59401300D01*
Y20098300D01*
X59294397D01*
X59285504Y20098300D01*
X59256299D01*
X59243719Y20110880D01*
Y20221481D01*
X59240271Y20238824D01*
X59230444Y20253528D01*
X59208124Y20275847D01*
X59193420Y20285670D01*
X59176080Y20289120D01*
X59167676D01*
X58836646Y20620149D01*
Y20634599D01*
X58834088Y20647437D01*
X58832825Y20649329D01*
X58843976Y20680144D01*
X58849701Y20687428D01*
X59140497D01*
Y20656000D01*
D02*
G37*
G36*
X53628699D02*
X53744501D01*
Y20656000D01*
X53773700D01*
Y20656000D01*
X53889502D01*
Y20671581D01*
X54074701D01*
Y20642001D01*
X54205499D01*
X54234479Y20619981D01*
Y20274017D01*
X54205499Y20251999D01*
X54074701D01*
Y20121201D01*
X54074701D01*
Y20105022D01*
X54044916Y20066922D01*
X54006799D01*
X54006799Y20066922D01*
X53989459Y20063472D01*
X53974756Y20053647D01*
X53937402Y20016295D01*
X53902203Y20030875D01*
Y20098300D01*
X53876172Y20113249D01*
X53872723Y20130592D01*
X53862897Y20145296D01*
X53862897Y20145296D01*
X53388043Y20620149D01*
Y20634599D01*
X53385492Y20647437D01*
X53381812Y20652945D01*
X53380188Y20656602D01*
X53383044Y20669344D01*
X53393732Y20693779D01*
X53628699D01*
Y20656000D01*
D02*
G37*
G36*
X61790051Y20541954D02*
X61790051Y20541953D01*
X61804755Y20532129D01*
X61822101Y20528679D01*
X61822101Y20528679D01*
X61982629D01*
X62001581Y20509726D01*
Y20187199D01*
X61989001D01*
Y20072952D01*
X61989001Y20046400D01*
X61955682Y20034853D01*
X61816382D01*
X61694800Y20156435D01*
X61694800Y20199599D01*
X61694800Y20237700D01*
Y20269304D01*
X61697052Y20286398D01*
Y20517955D01*
X61717596D01*
X61730432Y20520509D01*
X61741315Y20527780D01*
X61744934Y20533191D01*
X61771356Y20541479D01*
X61788416Y20543590D01*
X61790051Y20541954D01*
D02*
G37*
G36*
X61546002Y20199599D02*
X61546002Y20173700D01*
Y20056799D01*
X61546899D01*
Y19779504D01*
X61546246Y19777936D01*
X61543848Y19759702D01*
X61546246Y19741467D01*
X61553284Y19724475D01*
X61558612Y19717532D01*
Y19713951D01*
X61561731Y19698285D01*
X61570605Y19685005D01*
X61583881Y19676131D01*
X61599548Y19673015D01*
X61629047D01*
X61654095Y19654121D01*
Y19623109D01*
X61623822Y19595386D01*
X61599548D01*
X61583881Y19592268D01*
X61570605Y19583395D01*
X61561731Y19570116D01*
X61558612Y19554449D01*
Y19514421D01*
X61422424D01*
X61400220Y19546513D01*
X61399359Y19552521D01*
X61404498Y19571696D01*
Y19595103D01*
X61398444Y19617714D01*
X61386737Y19637987D01*
X61370184Y19654538D01*
X61349915Y19666241D01*
X61327301Y19672301D01*
X61303894D01*
X61281287Y19666241D01*
X61261017Y19654538D01*
X61252209Y19645731D01*
X61230463D01*
X61198804Y19677393D01*
Y19785098D01*
X61058093D01*
X61014093Y19829102D01*
X61028668Y19864301D01*
X61198804D01*
Y20036101D01*
X61094220D01*
Y20094530D01*
X61211194Y20211501D01*
X61253400D01*
X61262897Y20211501D01*
X61291498Y20188567D01*
Y20169658D01*
X61293903Y20151424D01*
X61300940Y20134431D01*
X61312134Y20119841D01*
X61315601Y20116376D01*
Y20105096D01*
X61321655Y20082486D01*
X61333362Y20062215D01*
X61349915Y20045662D01*
X61370184Y20033958D01*
X61392798Y20027901D01*
X61416205D01*
X61438812Y20033958D01*
X61459088Y20045662D01*
X61475641Y20062215D01*
X61487341Y20082486D01*
X61493402Y20105096D01*
Y20128503D01*
X61487341Y20151114D01*
X61475641Y20171387D01*
X61459088Y20187938D01*
X61438812Y20199641D01*
X61445740Y20237230D01*
X61544867D01*
X61546002Y20199599D01*
D02*
G37*
G36*
X52972955Y20258693D02*
X52985541Y20253246D01*
X52990460Y20234886D01*
X53002161Y20214613D01*
X53018713Y20198062D01*
X53038983Y20186359D01*
X53061597Y20180299D01*
X53085004D01*
X53107611Y20186359D01*
X53127887Y20198062D01*
X53144440Y20214613D01*
X53156140Y20234886D01*
X53158984Y20245496D01*
X53176099Y20255855D01*
X53214197Y20234383D01*
Y20195851D01*
X53214801Y20191270D01*
Y20186993D01*
X53024829Y19997021D01*
X52937000D01*
Y20111000D01*
X52917950D01*
Y20142751D01*
X52914502Y20160094D01*
X52904675Y20174797D01*
X52904675Y20174797D01*
X52896564Y20182912D01*
X52897278Y20201936D01*
X52904413Y20224458D01*
X52924689Y20236162D01*
X52941235Y20252715D01*
X52946301Y20261482D01*
X52972955Y20258693D01*
D02*
G37*
G36*
X52676196Y19970200D02*
X52740405D01*
X52789740Y19920863D01*
X52773560Y19904686D01*
X52761859Y19884415D01*
X52758484Y19871828D01*
X52746619Y19857951D01*
X52717700Y19845821D01*
X52716199Y19846120D01*
X52550104D01*
Y19886699D01*
X52250299D01*
Y19886699D01*
X52217926Y19900533D01*
Y19952068D01*
X52250299Y19965901D01*
Y19965901D01*
X52550104D01*
Y20109579D01*
X52676196D01*
Y19970200D01*
D02*
G37*
G36*
X56266132Y19861331D02*
X56254340Y19819244D01*
X56252087Y19818642D01*
X56243256Y19813544D01*
X56191394D01*
X56189685Y19815250D01*
Y19818152D01*
X56186572Y19833817D01*
X56177698Y19847098D01*
X56164417Y19855972D01*
X56148749Y19859088D01*
X56146698D01*
Y19772400D01*
X56121301D01*
Y19859088D01*
X56119250D01*
X56103583Y19855972D01*
X56087238Y19849026D01*
X56051978Y19863799D01*
X56039423Y19897188D01*
X56134851Y19992615D01*
X56266132Y19861331D01*
D02*
G37*
G36*
X58933398Y19772903D02*
Y19373373D01*
X58896539Y19363715D01*
X58884839Y19383986D01*
X58868286Y19400539D01*
X58862073Y19404126D01*
Y19445749D01*
X58863495Y19446703D01*
X58872369Y19459982D01*
X58875488Y19475648D01*
Y19567149D01*
X58872369Y19582816D01*
X58863495Y19596095D01*
X58850220Y19604968D01*
X58834552Y19608086D01*
X58805054D01*
X58780005Y19626979D01*
Y19657990D01*
X58807098Y19682806D01*
Y19772398D01*
X58832501D01*
Y19685715D01*
X58834552D01*
X58850220Y19688831D01*
X58863495Y19697705D01*
X58872369Y19710985D01*
X58875488Y19726651D01*
Y19730232D01*
X58880817Y19737175D01*
X58887854Y19754167D01*
X58887982Y19755145D01*
X58922046Y19775616D01*
X58927710Y19776190D01*
X58933398Y19772903D01*
D02*
G37*
G36*
X61912500Y19734795D02*
X61942371Y19704626D01*
Y19353404D01*
X61931219Y19345650D01*
X61925854Y19344600D01*
X61882385Y19357983D01*
X61882037Y19358586D01*
X61865485Y19375137D01*
X61852924Y19382391D01*
Y19441371D01*
X61856873Y19447282D01*
X61859985Y19462949D01*
Y19554449D01*
X61856873Y19570116D01*
X61847998Y19583395D01*
X61834717Y19592268D01*
X61819049Y19595386D01*
X61789551D01*
X61764502Y19614279D01*
Y19645290D01*
X61791602Y19670107D01*
Y19759698D01*
X61816998D01*
Y19673015D01*
X61819049D01*
X61834717Y19676131D01*
X61847998Y19685005D01*
X61856873Y19698285D01*
X61859198Y19709995D01*
X61887097Y19734911D01*
Y19824699D01*
X61912500D01*
Y19734795D01*
D02*
G37*
G36*
X56299103Y19645944D02*
X56330249Y19616069D01*
Y19399985D01*
X56248297Y19318037D01*
X56210199Y19333820D01*
Y19341104D01*
X56204144Y19363715D01*
X56192438Y19383986D01*
X56175885Y19400539D01*
X56172974Y19402222D01*
Y19443544D01*
X56177698Y19446703D01*
X56186572Y19459982D01*
X56189685Y19475648D01*
Y19567149D01*
X56186572Y19582816D01*
X56177698Y19596095D01*
X56164417Y19604968D01*
X56148749Y19608086D01*
X56124475D01*
X56094202Y19635809D01*
Y19665791D01*
X56125000Y19684442D01*
X56128082Y19682076D01*
X56145074Y19675038D01*
X56163312Y19672636D01*
X56223840D01*
X56231812Y19664662D01*
X56252087Y19652959D01*
X56273700Y19647166D01*
Y19735800D01*
X56299103D01*
Y19645944D01*
D02*
G37*
G36*
X55635297Y20033701D02*
X55751099D01*
Y20033701D01*
X55780304D01*
Y20033701D01*
X55896100D01*
Y20058778D01*
X55951965D01*
X55966547Y20023579D01*
X55886328Y19943361D01*
X55875128Y19928770D01*
X55868091Y19911778D01*
X55865692Y19893542D01*
Y19780257D01*
X55868091Y19762021D01*
X55875128Y19745029D01*
X55886328Y19730438D01*
X55888312Y19728453D01*
Y19726651D01*
X55891425Y19710985D01*
X55900299Y19697705D01*
X55913580Y19688831D01*
X55929248Y19685715D01*
X55958746D01*
X55983795Y19666821D01*
Y19635809D01*
X55953522Y19608086D01*
X55929248D01*
X55913580Y19604968D01*
X55900299Y19596095D01*
X55899249Y19594518D01*
X55864075Y19610455D01*
X55867297Y19622496D01*
Y19645905D01*
X55861243Y19668513D01*
X55849536Y19688786D01*
X55832983Y19705338D01*
X55812714Y19717043D01*
X55790106Y19723100D01*
X55766693D01*
X55744086Y19717043D01*
X55723816Y19705338D01*
X55707263Y19688786D01*
X55701910Y19679521D01*
X55588873D01*
X55476996Y19791396D01*
X55462292Y19801219D01*
X55458398Y19801994D01*
Y19886699D01*
X55344202D01*
Y19926300D01*
X55343903Y19927802D01*
X55365259Y19961266D01*
X55371704Y19965901D01*
X55458398D01*
Y20109579D01*
X55635297D01*
Y20033701D01*
D02*
G37*
G36*
X55413953Y19714027D02*
X55413953Y19714027D01*
X55426178D01*
X55535388Y19604819D01*
X55534271Y19593533D01*
X55522504Y19566719D01*
X55427374D01*
X55314392Y19679700D01*
X55328973Y19714899D01*
X55409570D01*
X55413953Y19714027D01*
D02*
G37*
G36*
X52960022Y19727438D02*
X52977014Y19720399D01*
X52995245Y19717999D01*
X53051337D01*
X53052728Y19710985D01*
X53061603Y19697705D01*
X53074884Y19688831D01*
X53090552Y19685715D01*
X53120050D01*
X53145099Y19666821D01*
Y19635809D01*
X53114825Y19608086D01*
X53090552D01*
X53074884Y19604968D01*
X53061603Y19596095D01*
X53052728Y19582816D01*
X53049609Y19567149D01*
Y19566719D01*
X52895715D01*
X52891449Y19572676D01*
X52886584Y19613863D01*
X52903137Y19630414D01*
X52914844Y19650687D01*
X52920898Y19673296D01*
Y19696704D01*
X52916296Y19713889D01*
X52927728Y19727452D01*
X52945428Y19738634D01*
X52960022Y19727438D01*
D02*
G37*
G36*
X52745868Y19707037D02*
X52743103Y19696704D01*
Y19673296D01*
X52749158Y19650687D01*
X52760864Y19630414D01*
X52777417Y19613863D01*
X52772552Y19572676D01*
X52768280Y19566719D01*
X52519073D01*
X52406097Y19679700D01*
X52420673Y19714899D01*
X52550104D01*
Y19755478D01*
X52697430D01*
X52745868Y19707037D01*
D02*
G37*
G36*
X61179645Y19568362D02*
X61193402Y19559167D01*
X61194421Y19558374D01*
X61197076Y19552521D01*
X61172522Y19514421D01*
X61016870D01*
X60999219Y19532074D01*
Y19613300D01*
X61134711D01*
X61179645Y19568362D01*
D02*
G37*
G36*
X58292999Y19534007D02*
Y19533595D01*
X58299060Y19510986D01*
X58310760Y19490714D01*
X58327313Y19474162D01*
X58347583Y19462457D01*
X58338232Y19425520D01*
X58070471D01*
X58052820Y19443175D01*
Y19638699D01*
X58188306D01*
X58292999Y19534007D01*
D02*
G37*
G36*
X51220599Y17943100D02*
X51390601D01*
Y17693100D01*
X51220599D01*
Y17583099D01*
X51090601D01*
Y17693100D01*
X50990601D01*
Y17943100D01*
X51090601D01*
Y18053101D01*
X51220599D01*
Y17943100D01*
D02*
G37*
%LPC*%
G36*
X55753003Y20307300D02*
X55677069D01*
X55682855Y20285686D01*
X55694562Y20265414D01*
X55711115Y20248862D01*
X55731384Y20237158D01*
X55753003Y20231367D01*
Y20307300D01*
D02*
G37*
%LPD*%
G36*
X50620599Y17943100D02*
X50720599D01*
Y17693100D01*
X50620599D01*
Y17583099D01*
X50490601D01*
Y17693100D01*
X50320599D01*
Y17943100D01*
X50490601D01*
Y18053101D01*
X50620599D01*
Y17943100D01*
D02*
G37*
G36*
X49437601Y16953900D02*
X49537601D01*
Y16753900D01*
X49437601D01*
Y16658900D01*
X49317599D01*
Y16753900D01*
X49217599D01*
Y16953900D01*
X49317599D01*
Y17018900D01*
X49437601D01*
Y16953900D01*
D02*
G37*
G36*
Y16443900D02*
X49537601D01*
Y16243900D01*
X49437601D01*
Y16178900D01*
X49317599D01*
Y16243900D01*
X49217599D01*
Y16443900D01*
X49317599D01*
Y16538901D01*
X49437601D01*
Y16443900D01*
D02*
G37*
D10*
X58724799Y10879303D02*
D03*
Y18813303D02*
D03*
X55930798Y10917403D02*
D03*
Y18851402D02*
D03*
X53136798Y18864102D02*
D03*
Y10930103D02*
D03*
X61569598Y10866603D02*
D03*
Y18800603D02*
D03*
D11*
X61131604Y20955000D02*
D03*
Y20828000D02*
D03*
Y20700999D02*
D03*
Y20574001D02*
D03*
X61626599D02*
D03*
Y20700999D02*
D03*
Y20828000D02*
D03*
Y20955000D02*
D03*
X58217102Y20866100D02*
D03*
Y20739101D02*
D03*
Y20612100D02*
D03*
Y20485100D02*
D03*
X58712097D02*
D03*
Y20612100D02*
D03*
Y20739101D02*
D03*
Y20866100D02*
D03*
X55632501D02*
D03*
Y20739101D02*
D03*
Y20612100D02*
D03*
Y20485100D02*
D03*
X56127496D02*
D03*
Y20612100D02*
D03*
Y20739101D02*
D03*
Y20866100D02*
D03*
X52768500D02*
D03*
Y20739101D02*
D03*
Y20612100D02*
D03*
Y20485100D02*
D03*
X53263501D02*
D03*
Y20612100D02*
D03*
Y20739101D02*
D03*
Y20866100D02*
D03*
D12*
X61379102Y20764500D02*
D03*
X58464600Y20675600D02*
D03*
X55879999D02*
D03*
X53015997D02*
D03*
D13*
X60731403Y20666599D02*
D03*
Y20811601D02*
D03*
X57848499Y20704698D02*
D03*
Y20849702D02*
D03*
X55308502Y20683002D02*
D03*
Y20828000D02*
D03*
X52451001Y20653899D02*
D03*
Y20798901D02*
D03*
D14*
X60744098Y20308600D02*
D03*
Y20153600D02*
D03*
X61620398Y20283200D02*
D03*
Y20128200D02*
D03*
X57848499Y20422900D02*
D03*
Y20267900D02*
D03*
X58762903Y20219701D02*
D03*
Y20064700D02*
D03*
X55321198Y20422900D02*
D03*
Y20267900D02*
D03*
X56159399Y20219701D02*
D03*
Y20064700D02*
D03*
X52451001Y20410201D02*
D03*
Y20255200D02*
D03*
X53289203Y20194299D02*
D03*
Y20039301D02*
D03*
D15*
X55213501Y19800800D02*
D03*
X55308502D02*
D03*
X55403503D02*
D03*
Y20051801D02*
D03*
X55213501D02*
D03*
X55308502D02*
D03*
X58007501Y19724599D02*
D03*
X58102502D02*
D03*
X58197504D02*
D03*
Y19975601D02*
D03*
X58007501D02*
D03*
X58102502D02*
D03*
X52305200Y19800800D02*
D03*
X52400201D02*
D03*
X52495203D02*
D03*
Y20051801D02*
D03*
X52305200D02*
D03*
X52400201D02*
D03*
X60953900Y19699199D02*
D03*
X61048901D02*
D03*
X61143903D02*
D03*
Y19950201D02*
D03*
X60953900D02*
D03*
X61048901D02*
D03*
D16*
X61350000Y20281900D02*
D03*
X61204999D02*
D03*
X58378204Y20231100D02*
D03*
X58233197D02*
D03*
X56701801Y20027901D02*
D03*
X56556799D02*
D03*
X55838202Y20104100D02*
D03*
X55693201D02*
D03*
X55012701Y19773900D02*
D03*
X54867700D02*
D03*
X53831604Y20726401D02*
D03*
X53686597D02*
D03*
X53699298Y20027901D02*
D03*
X53844299D02*
D03*
X60778503Y19697701D02*
D03*
X60633496D02*
D03*
X62191901Y20116800D02*
D03*
X62046899D02*
D03*
X62188202Y20815300D02*
D03*
X62043201D02*
D03*
X57832104Y19710400D02*
D03*
X57687097D02*
D03*
X59343402Y20027901D02*
D03*
X59198401D02*
D03*
X59343402Y20726401D02*
D03*
X59198401D02*
D03*
X56714502Y20751801D02*
D03*
X56569501D02*
D03*
X52734100Y20040601D02*
D03*
X52879102D02*
D03*
D17*
X61804303Y19759702D02*
D03*
X61709302D02*
D03*
X61614301D02*
D03*
X61804303Y19508699D02*
D03*
X61709302D02*
D03*
X61614301D02*
D03*
X58819800Y19772401D02*
D03*
X58724799D02*
D03*
X58629797D02*
D03*
X58819800Y19521399D02*
D03*
X58724799D02*
D03*
X58629797D02*
D03*
X56134003Y19772401D02*
D03*
X56039001D02*
D03*
X55944000D02*
D03*
X56134003Y19521399D02*
D03*
X56039001D02*
D03*
X55944000D02*
D03*
X53295300Y19772401D02*
D03*
X53200299D02*
D03*
X53105298D02*
D03*
X53295300Y19521399D02*
D03*
X53200299D02*
D03*
X53105298D02*
D03*
D18*
X49377600Y16853902D02*
D03*
Y16343900D02*
D03*
D19*
X51155600Y17818100D02*
D03*
X50555600D02*
D03*
D20*
X62509399Y20110501D02*
D03*
Y20275499D02*
D03*
X62496698Y20809001D02*
D03*
Y20973999D02*
D03*
X59639203Y20021600D02*
D03*
Y20186600D02*
D03*
X59613800Y20732800D02*
D03*
Y20897800D02*
D03*
X57010303Y20059702D02*
D03*
Y20224699D02*
D03*
X56997601Y20745502D02*
D03*
Y20910500D02*
D03*
X54140100Y20021600D02*
D03*
Y20186600D02*
D03*
Y20707401D02*
D03*
Y20872398D02*
D03*
D21*
X50926999Y9461500D02*
X52196997D01*
X52514502Y9144000D01*
X52984399Y8674100D01*
X57391302D01*
X52754053Y20626550D02*
X52768500Y20612100D01*
X52624658Y20626550D02*
X52754053D01*
X52601007Y20650200D02*
X52624658Y20626550D01*
X52590698Y20650200D02*
X52601007D01*
X52590698Y20866100D02*
X52768500D01*
X57797449Y20421350D02*
X57846948D01*
X57677991Y20238390D02*
Y20301891D01*
X57846948Y20421350D02*
X57848499Y20422900D01*
X57677991Y20301891D02*
X57797449Y20421350D01*
X57670697Y20231100D02*
X57677991Y20238390D01*
X57983698Y20709200D02*
X57988202Y20713699D01*
X57849048Y20709200D02*
X57983698D01*
X57848499Y20708649D02*
X57849048Y20709200D01*
X57848499Y20704698D02*
Y20708649D01*
X55318201Y20422900D02*
X55321198D01*
X55222589Y20327290D02*
X55318201Y20422900D01*
X55137988Y20327290D02*
X55222589D01*
X55130701Y20320000D02*
X55137988Y20327290D01*
X55432849Y20685651D02*
X55435498Y20688300D01*
X55309052Y20685651D02*
X55432849D01*
X55308502Y20685101D02*
X55309052Y20685651D01*
X55308502Y20683002D02*
Y20685101D01*
X53295300Y19772401D02*
X53300903Y19766801D01*
X53474097D01*
X53479700Y19761200D01*
X52870099Y20307300D02*
Y20317610D01*
X52939801Y20387308D01*
Y20599400D01*
X53015997Y20675600D01*
X56134003Y19771301D02*
Y19772401D01*
Y19771301D02*
X56148950Y19756351D01*
X56150049D01*
X56163312Y19743089D01*
X56279108D01*
X56286401Y19735800D01*
X55765698Y20320000D02*
Y20330310D01*
X55812543Y20377150D01*
Y20608141D01*
X55879999Y20675600D01*
X55632501Y20612100D02*
X55816498D01*
X55728632Y20851649D02*
X55752283Y20828000D01*
X55772052D02*
X55879999Y20720050D01*
X55752283Y20828000D02*
X55772052D01*
X55686554Y20851649D02*
X55728632D01*
X55879999Y20675600D02*
Y20720050D01*
X61804303Y19759702D02*
Y19760802D01*
X61860907Y19817410D01*
X61892511D01*
X61899799Y19824699D01*
X60638000Y19896399D02*
X60642499Y19900900D01*
X60638000Y19698250D02*
Y19896399D01*
X60637451Y19697701D02*
X60638000Y19698250D01*
X60633496Y19697701D02*
X60637451D01*
X61315601Y20700999D02*
X61379102Y20764500D01*
X61131604Y20700999D02*
X61315601D01*
X61131604Y20955000D02*
X61233051D01*
X61379102Y20808949D01*
Y20764500D02*
Y20808949D01*
X58318555Y20866100D02*
X58464600Y20720050D01*
X58217102Y20866100D02*
X58318555D01*
X58464600Y20675600D02*
Y20720050D01*
X58401105Y20612100D02*
X58464600Y20675600D01*
X58217102Y20612100D02*
X58401105D01*
X58811310Y19780893D02*
X58819800Y19772401D01*
X58811310Y19780893D02*
Y19862801D01*
X58760510Y19913600D02*
X58811310Y19862801D01*
X58750201Y19913600D02*
X58760510D01*
X57841211Y19906310D02*
X57848499Y19913600D01*
X57731885Y19906310D02*
X57841211D01*
X57687097Y19861523D02*
X57731885Y19906310D01*
X57687097Y19710400D02*
Y19861523D01*
X50039001Y16343900D02*
X50304700Y16078200D01*
X49377600Y16343900D02*
X50039001D01*
X49946667Y17818100D02*
X50555600D01*
X49932300Y17803734D02*
X49946667Y17818100D01*
X49932300Y17698100D02*
Y17803734D01*
X53136798Y18864102D02*
Y18913603D01*
X52728290Y19322110D02*
X53136798Y18913603D01*
X52610687Y19322110D02*
X52728290D01*
X52603400Y19329401D02*
X52610687Y19322110D01*
X52844702Y19850101D02*
X52933600D01*
X52995245Y19788452D01*
X53090350D01*
X53105298Y19773502D01*
Y19772401D02*
Y19773502D01*
X60147198Y16916400D02*
Y17328702D01*
X60209424Y10577823D02*
X60210699Y10579100D01*
X60209424Y10325100D02*
Y10577823D01*
X58767450Y20063148D02*
X59003851Y19826750D01*
X58762903Y20064700D02*
X58764447Y20063148D01*
X58767450D01*
X59003851Y19092352D02*
Y19826750D01*
X58724799Y18813303D02*
X59003851Y19092352D01*
X58759900Y20064700D02*
X58762903D01*
X58748499Y20053300D02*
X58759900Y20064700D01*
X58681879Y20053300D02*
X58748499D01*
X58629797Y20001224D02*
X58681879Y20053300D01*
X58629797Y19772401D02*
Y20001224D01*
X55936145Y19780257D02*
X55944000Y19772401D01*
X55936145Y19780257D02*
Y19893542D01*
X56105750Y20063148D01*
X56157849D02*
X56159399Y20064700D01*
X56105750Y20063148D02*
X56157849D01*
X56159399Y20064700D02*
X56162402D01*
X56338898Y19888200D01*
X56400702D01*
Y19370802D02*
Y19888200D01*
X55930798Y18900903D02*
X56400702Y19370802D01*
X55930798Y18851402D02*
Y18900903D01*
Y18851402D02*
X55943500Y18838702D01*
Y18084801D02*
Y18838702D01*
X54279797Y14757401D02*
X54864001D01*
X55067200Y14960600D01*
X56959497Y10325100D02*
X57238898Y10604500D01*
X56959497Y9398000D02*
Y10325100D01*
X58496198Y11107903D02*
X58724799Y10879303D01*
X58496198Y11107903D02*
Y11468100D01*
X57531000Y15582899D02*
Y15593210D01*
X57556403Y15618610D01*
Y18656300D01*
X57378601Y20713699D02*
X57556403Y20891499D01*
Y21424899D01*
X57048401D02*
X57302399D01*
X57556403D01*
X56794397D02*
X57048401D01*
X61569598Y18751102D02*
Y18800603D01*
X60147198Y17328702D02*
X61569598Y18751102D01*
X59474103Y10325100D02*
X60209424D01*
X58546997Y9398000D02*
X59474103Y10325100D01*
X52768500Y9144000D02*
X52781201Y9156700D01*
Y9448800D01*
X52260498Y9969500D02*
X52781201Y9448800D01*
X50926999Y9969500D02*
X52260498D01*
X53022498Y9144000D02*
X53276501D01*
X52768500D02*
X53022498D01*
X53276501D02*
X55105298D01*
X55422803Y9461500D01*
X57531000Y8382000D02*
X58546997Y9398000D01*
X53276501Y8382000D02*
X57531000D01*
X58284900Y18813303D02*
X58724799D01*
X57899298Y18427699D02*
X58284900Y18813303D01*
X52984399Y18711702D02*
X53136798Y18864102D01*
X52984399Y18300700D02*
Y18711702D01*
X58445752Y10600253D02*
X58724799Y10879303D01*
X58445752Y10376250D02*
Y10600253D01*
X57505603Y9436100D02*
X58445752Y10376250D01*
X55918103Y10828503D02*
X55968903Y10879303D01*
X55918103Y9436100D02*
Y10828503D01*
X55905402Y9448800D02*
X55918103Y9436100D01*
X55435498Y9448800D02*
X55905402D01*
X55422803Y9461500D02*
X55435498Y9448800D01*
X57029700Y22186900D02*
X57048401D01*
X56299103Y21475700D02*
X56975751Y22152350D01*
X56995154D01*
X57029700Y22186900D01*
X56299103Y21170900D02*
Y21475700D01*
X53284650Y20195851D02*
X53286200Y20194299D01*
X53284650Y20195851D02*
Y20470650D01*
X53270203Y20485100D02*
X53284650Y20470650D01*
X53263501Y20485100D02*
X53270203D01*
X53223901D02*
X53263501D01*
X53209448Y20470650D02*
X53223901Y20485100D01*
X53209448Y20405351D02*
Y20470650D01*
X53073297Y20269202D02*
X53209448Y20405351D01*
X53073297Y20269200D02*
Y20269202D01*
X53594000Y21069299D02*
X54711603Y22186900D01*
X56794397D01*
X56127496Y20248602D02*
X56154852Y20221251D01*
X56127496Y20248602D02*
Y20485100D01*
X56027161Y20221251D02*
X56154852D01*
X55991913Y20256500D02*
X56027161Y20221251D01*
X55981598Y20256500D02*
X55991913D01*
X58712097Y20270500D02*
X58757202Y20225400D01*
X58712097Y20270500D02*
Y20485100D01*
X58764203Y20218401D02*
X58991498D01*
X58178699Y21310600D02*
X58940698D01*
X57302399Y22186900D02*
X58178699Y21310600D01*
X61350000Y20281900D02*
X61361401D01*
X61361951Y20281351D01*
Y20169658D02*
Y20281351D01*
Y20169658D02*
X61404498Y20127110D01*
Y20116800D02*
Y20127110D01*
X58750201Y22186900D02*
X60363098Y20574001D01*
X57556403Y22186900D02*
X58750201D01*
X51561102Y14503400D02*
X56730902D01*
X60058301Y17830800D01*
X53708301Y14503400D02*
X57264301Y18059399D01*
X51561102Y14503400D02*
X54457599Y17399899D01*
Y19964400D01*
X57264301Y20129500D02*
X57683398Y20548599D01*
X57264301Y18059399D02*
Y20129500D01*
X57683398Y20548599D02*
X57734198Y20599400D01*
Y20953723D01*
X57786279Y21005800D01*
X58558423D01*
X58572400Y20991823D01*
Y20966200D02*
Y20991823D01*
Y20966200D02*
X58672498Y20866100D01*
X58712097D01*
X55117999Y20497800D02*
Y20953723D01*
X55170074Y21005800D01*
X56043823D01*
X56070502Y20979123D01*
Y20923099D02*
Y20979123D01*
Y20923099D02*
X56073450Y20920151D01*
Y20880550D02*
Y20920151D01*
Y20880550D02*
X56087897Y20866100D01*
X56127496D01*
X55435498Y20548599D02*
X55460901Y20523199D01*
X55536371Y20499550D02*
X55578455D01*
X55512720Y20523199D02*
X55536371Y20499550D01*
X55168799Y20548599D02*
X55435498D01*
X55460901Y20523199D02*
X55512720D01*
X55117999Y20497800D02*
X55168799Y20548599D01*
X54990997Y20497800D02*
X55117999D01*
X54457599Y19964400D02*
X54990997Y20497800D01*
X58000897Y20548599D02*
X58064398Y20485100D01*
X57683398Y20548599D02*
X58000897D01*
X58064398Y20485100D02*
X58217102D01*
X53105298Y19772401D02*
X53120251Y19787350D01*
Y19873347D01*
X53286200Y20039301D01*
X53289203D01*
X61569598Y18800603D02*
Y18850104D01*
X62012823Y19293326D01*
Y19964400D01*
X61787201D02*
X62012823D01*
X61623401Y20128200D02*
X61787201Y19964400D01*
X61620398Y20128200D02*
X61623401D01*
X61614301Y19759702D02*
X61617346Y19762752D01*
Y20126649D01*
X61618903Y20128200D01*
X61620398D01*
Y20283200D02*
X61623401D01*
X61626599Y20286398D01*
Y20574001D01*
X60058301Y20015199D02*
X60566302Y20523199D01*
X60058301Y17830800D02*
Y20015199D01*
X60566302Y20523199D02*
Y21055322D01*
X60618378Y21107401D01*
X61574524D01*
X61626599Y21055322D01*
Y20955000D02*
Y21055322D01*
X61092004Y20574001D02*
X61131604D01*
X61041205Y20523199D02*
X61092004Y20574001D01*
X60566302Y20523199D02*
X61041205D01*
X52147479Y20535899D02*
X52209698Y20598123D01*
Y20979123D01*
X52261780Y21031200D01*
X53225104D01*
X53263501Y20992799D01*
Y20866100D02*
Y20992799D01*
X51155600Y17818100D02*
X51484521Y18147023D01*
X52147479D01*
Y20535899D01*
X52565302D01*
X52601648Y20499550D01*
X52754053D01*
X52768500Y20485100D01*
D22*
X61569598Y12534900D02*
X63563501Y14528799D01*
X61569598Y10866603D02*
Y12534900D01*
X58737500Y10866603D02*
X61569598D01*
X55968903Y10879303D02*
X58724799D01*
X53149500Y10917403D02*
X55930798D01*
X50548901Y16586200D02*
Y16639400D01*
X50334399Y16853902D02*
X50548901Y16639400D01*
X49377600Y16853902D02*
X50334399D01*
X49402298Y16878600D02*
Y17468098D01*
X49377600Y16853902D02*
X49402298Y16878600D01*
X53136798Y10930103D02*
X53149500Y10917403D01*
X58724799Y10879303D02*
X58737500Y10866603D01*
X50939700Y13881999D02*
X51561102Y14503400D01*
X50939700Y12344400D02*
Y13881999D01*
X51058902Y15005598D02*
X51561102Y14503400D01*
X51058902Y15005598D02*
Y16586200D01*
X50329199Y15067499D02*
Y15067499D01*
X50711099Y14503400D02*
Y14685599D01*
X50329199Y15067499D02*
X50711099Y14685599D01*
X49923700Y15473000D02*
X50329199Y15067499D01*
X51058902Y16586200D02*
Y16908601D01*
X51155600Y17005299D01*
Y17818100D01*
D23*
X50711099Y14503400D02*
X50718896Y14511198D01*
Y16586200D01*
X50548901D02*
Y16662767D01*
D24*
X53047900Y19956000D02*
X53286200Y20194299D01*
X53047900Y19951700D02*
Y19956000D01*
X52822998Y19951700D02*
X53047900D01*
X52760046Y20014650D02*
X52822998Y19951700D01*
X52747546Y20014650D02*
X52760046D01*
X52734100Y20028101D02*
X52747546Y20014650D01*
X52734100Y20028101D02*
Y20040601D01*
X56040802Y20104100D02*
X56156403Y20219701D01*
X55838202Y20104100D02*
X56040802D01*
X58383905Y20225400D02*
X58757202D01*
X58378204Y20231100D02*
X58383905Y20225400D01*
X61619751Y20282550D02*
X61620398Y20283200D01*
X61350653Y20282550D02*
X61619751D01*
X61350000Y20281900D02*
X61350653Y20282550D01*
X62496698Y20973999D02*
X62646021Y20824681D01*
Y20748718D02*
Y20824681D01*
X62509399Y20612100D02*
X62646021Y20748718D01*
X62509399Y20275499D02*
Y20612100D01*
X62506250Y20113651D02*
X62509399Y20110501D01*
X62195050Y20113651D02*
X62506250D01*
X62191901Y20116800D02*
X62195050Y20113651D01*
X62046899Y20116800D02*
Y20528497D01*
X62001398Y20574001D02*
X62046899Y20528497D01*
X61822101Y20574001D02*
X62001398D01*
X61695099Y20700999D02*
X61822101Y20574001D01*
X61626599Y20700999D02*
X61695099D01*
X61626599Y20955000D02*
X61695099D01*
X61714099Y20973999D01*
X62496698D01*
X62493549Y20812151D02*
X62496698Y20809001D01*
X62191351Y20812151D02*
X62493549D01*
X62188202Y20815300D02*
X62191351Y20812151D01*
X62036847Y20821651D02*
X62043201Y20815300D01*
X61632947Y20821651D02*
X62036847D01*
X61626599Y20828000D02*
X61632947Y20821651D01*
X61063104Y20828000D02*
X61131604D01*
X61046704Y20811601D02*
X61063104Y20828000D01*
X60731403Y20811601D02*
X61046704D01*
X61709302Y19508699D02*
Y19759702D01*
X61804303Y19508699D02*
X61807599Y19505399D01*
Y19307298D02*
Y19505399D01*
Y19307298D02*
X61810901Y19303999D01*
X61298590Y19600410D02*
X61315601Y19583400D01*
X61211688Y19600410D02*
X61298590D01*
X61143903Y19668199D02*
X61211688Y19600410D01*
X61143903Y19668199D02*
Y19699199D01*
X61614301Y19479550D02*
Y19508699D01*
X61603851Y19469099D02*
X61614301Y19479550D01*
X60998102Y19469099D02*
X61603851D01*
X60953900Y19513301D02*
X60998102Y19469099D01*
X60953900Y19513301D02*
Y19699199D01*
X60939484Y19839616D02*
X61048901Y19730199D01*
X60778503Y19710201D02*
X60907916Y19839616D01*
X60939484D01*
X60778503Y19697701D02*
Y19710201D01*
X61048901Y19699199D02*
Y19730199D01*
X61204999Y20269400D02*
Y20281900D01*
X61048901Y20113303D02*
X61204999Y20269400D01*
X61048901Y19950201D02*
Y20113303D01*
X60953900Y19950201D02*
Y19981201D01*
X60943451Y19991650D02*
X60953900Y19981201D01*
X60909045Y19991650D02*
X60943451D01*
X60747101Y20153600D02*
X60909045Y19991650D01*
X60744098Y20153600D02*
X60747101D01*
X53292249Y19518349D02*
X53295300Y19521399D01*
X53292249Y19357851D02*
Y19518349D01*
X53289203Y19354800D02*
X53292249Y19357851D01*
X52716199Y19800800D02*
X52832001Y19685001D01*
X52495203Y19800800D02*
X52716199D01*
X53200299Y19521399D02*
Y19772401D01*
X58816748Y19518349D02*
X58819800Y19521399D01*
X58816748Y19332451D02*
Y19518349D01*
X58813702Y19329401D02*
X58816748Y19332451D01*
X58364893Y19562309D02*
X58381897Y19545300D01*
X58328790Y19562309D02*
X58364893D01*
X58197504Y19693599D02*
X58328790Y19562309D01*
X58197504Y19693599D02*
Y19724599D01*
X58629797Y19490399D02*
Y19521399D01*
X58619348Y19479948D02*
X58629797Y19490399D01*
X58588348Y19479948D02*
X58619348D01*
X58488599Y19380200D02*
X58588348Y19479948D01*
X58051703Y19380200D02*
X58488599D01*
X58007501Y19424400D02*
X58051703Y19380200D01*
X58007501Y19424400D02*
Y19724599D01*
X58092047Y19735049D02*
X58102502Y19724599D01*
X58092047Y19735049D02*
Y19825533D01*
X58067480Y19850101D02*
X58092047Y19825533D01*
X57971802Y19850101D02*
X58067480D01*
X57858051Y19736349D02*
X57971802Y19850101D01*
X57845551Y19736349D02*
X57858051D01*
X57832104Y19722900D02*
X57845551Y19736349D01*
X57832104Y19710400D02*
Y19722900D01*
X58724799Y19521399D02*
Y19772401D01*
X59198401Y20027901D02*
Y20221481D01*
X59176080Y20243800D02*
X59198401Y20221481D01*
X59148901Y20243800D02*
X59176080D01*
X58780603Y20612100D02*
X59148901Y20243800D01*
X58712097Y20612100D02*
X58780603D01*
X59343402Y20027901D02*
X59346552Y20024750D01*
X59636047D01*
X59639203Y20021600D01*
Y20186600D02*
X59740802Y20288199D01*
Y20770799D01*
X59613800Y20897800D02*
X59740802Y20770799D01*
X58712097Y20866100D02*
X58780603D01*
X58812299Y20897800D01*
X59613800D01*
X59610602Y20729601D02*
X59613800Y20732800D01*
X59346600Y20729601D02*
X59610602D01*
X59343402Y20726401D02*
X59346600Y20729601D01*
X59192047Y20732750D02*
X59198401Y20726401D01*
X58718451Y20732750D02*
X59192047D01*
X58712097Y20739101D02*
X58718451Y20732750D01*
X58233197Y20218600D02*
Y20231100D01*
X58219751Y20205150D02*
X58233197Y20218600D01*
X58214398Y20205150D02*
X58219751D01*
X58102502Y20093251D02*
X58214398Y20205150D01*
X58102502Y19975601D02*
Y20093251D01*
X58007501Y19975601D02*
Y20111900D01*
X57851501Y20267900D02*
X58007501Y20111900D01*
X57848499Y20267900D02*
X57851501D01*
X58148596Y20739101D02*
X58217102D01*
X58038000Y20849702D02*
X58148596Y20739101D01*
X57848499Y20849702D02*
X58038000D01*
X52872632Y20047070D02*
X52879102Y20040601D01*
X52872632Y20047070D02*
Y20142751D01*
X52860480Y20154900D02*
X52872632Y20142751D01*
X52460620Y20154900D02*
X52860480D01*
X52438300Y20132582D02*
X52460620Y20154900D01*
X52438300Y20120901D02*
Y20132582D01*
X52400201Y20082800D02*
X52438300Y20120901D01*
X52400201Y20051801D02*
Y20082800D01*
X55679749Y20117551D02*
X55693201Y20104100D01*
X55679749Y20117551D02*
Y20146033D01*
X55670880Y20154900D02*
X55679749Y20146033D01*
X55341272Y20154900D02*
X55670880D01*
X55318951Y20132582D02*
X55341272Y20154900D01*
X55318951Y20062251D02*
Y20132582D01*
X55308502Y20051801D02*
X55318951Y20062251D01*
X56127496Y20612100D02*
X56195996D01*
X56556799Y20251300D01*
Y20027901D02*
Y20251300D01*
X56701801Y20027901D02*
Y20040401D01*
X56721100Y20059702D01*
X57010303D01*
Y20224699D02*
X57031250Y20245650D01*
X57091431D01*
X57124597Y20278818D01*
Y20783499D01*
X56997601Y20910500D02*
X57124597Y20783499D01*
X56953198Y20866100D02*
X56997601Y20910500D01*
X56127496Y20866100D02*
X56953198D01*
X56994452Y20748650D02*
X56997601Y20745502D01*
X56717651Y20748650D02*
X56994452D01*
X56714502Y20751801D02*
X56717651Y20748650D01*
X56563147Y20745450D02*
X56569501Y20751801D01*
X56133850Y20745450D02*
X56563147D01*
X56127496Y20739101D02*
X56133850Y20745450D01*
X56127649Y19515050D02*
X56134003Y19521399D01*
X56127649Y19335750D02*
Y19515050D01*
X56121301Y19329401D02*
X56127649Y19335750D01*
X55570099Y19634200D02*
X55778400D01*
X55444952Y19759349D02*
X55570099Y19634200D01*
X55413953Y19759349D02*
X55444952D01*
X55403503Y19769798D02*
X55413953Y19759349D01*
X55403503Y19769798D02*
Y19800800D01*
X56039001Y19521399D02*
Y19772401D01*
X55218658Y19711339D02*
X55408600Y19521399D01*
X55213501Y19800800D02*
X55218658Y19795636D01*
X55408600Y19521399D02*
X55944000D01*
X55218658Y19711339D02*
Y19795636D01*
X55298883Y19810417D02*
X55308502Y19800800D01*
X55298883Y19810417D02*
Y19926300D01*
X55152600D02*
X55298883D01*
X55012701Y19786400D02*
X55152600Y19926300D01*
X55012701Y19773900D02*
Y19786400D01*
X55206897Y20058400D02*
X55213501Y20051801D01*
X55206897Y20058400D02*
Y20156599D01*
X55318201Y20267900D01*
X55321198D01*
X55564001Y20739101D02*
X55632501D01*
X55475104Y20828000D02*
X55564001Y20739101D01*
X55308502Y20828000D02*
X55475104D01*
X53699298Y20015401D02*
X53788397Y19926300D01*
X53911499D02*
X54006799Y20021600D01*
X53788397Y19926300D02*
X53911499D01*
X52305200Y19800800D02*
X52310364Y19795636D01*
Y19711339D02*
Y19795636D01*
X52500299Y19521399D02*
X53105298D01*
X52310364Y19711339D02*
X52500299Y19521399D01*
X52305200Y20051801D02*
X52315649Y20062251D01*
Y20122849D01*
X52447998Y20255200D01*
X52451001D01*
Y20798901D02*
X52463501D01*
X52523303Y20739101D01*
X52768500D01*
X53830853Y20041350D02*
X53844299Y20027901D01*
X53830853Y20041350D02*
Y20113249D01*
X53332001Y20612100D02*
X53830853Y20113249D01*
X53263501Y20612100D02*
X53332001D01*
X53699298Y20015401D02*
Y20027901D01*
X54006799Y20021600D02*
X54140100D01*
Y20186600D02*
X54238379D01*
X54279797Y20228018D01*
Y20732700D01*
X54140100Y20872398D02*
X54279797Y20732700D01*
X54136951Y20869250D02*
X54140100Y20872398D01*
X53266650Y20869250D02*
X54136951D01*
X53263501Y20866100D02*
X53266650Y20869250D01*
X54130603Y20716901D02*
X54140100Y20707401D01*
X53841101Y20716901D02*
X54130603D01*
X53831604Y20726401D02*
X53841101Y20716901D01*
X53263501Y20739101D02*
X53673895D01*
X53686597Y20726401D01*
D25*
X59524799Y12086300D02*
D03*
X57924805Y17606300D02*
D03*
X56730798Y12124400D02*
D03*
X55130804Y17644400D02*
D03*
X52336804Y17657100D02*
D03*
X53936798Y12137100D02*
D03*
X62369598Y12073600D02*
D03*
X60769604Y17593600D02*
D03*
D26*
X57924805Y11264301D02*
D03*
X55130804Y11302401D02*
D03*
X52336804Y11315101D02*
D03*
X60769604Y11251601D02*
D03*
D27*
X50939700Y12344400D02*
D03*
X63563501Y15036800D02*
D03*
X50926999Y9969500D02*
D03*
D28*
X50939700Y11836400D02*
D03*
X63563501Y14528799D02*
D03*
X50926999Y9461500D02*
D03*
D29*
X49682297Y18068102D02*
D03*
D30*
X49932300Y17698100D02*
D03*
D31*
X49402298Y17468098D02*
D03*
D32*
X55918103Y9436100D02*
D03*
X57505603D02*
D03*
X55422803Y9461500D02*
D03*
D33*
X56959497Y9398000D02*
D03*
X58546997D02*
D03*
X54381403Y9499600D02*
D03*
D34*
X52514502Y8382000D02*
D03*
X52768500D02*
D03*
Y9144000D02*
D03*
X53022498Y8382000D02*
D03*
Y9144000D02*
D03*
X53276501Y8382000D02*
D03*
X52514502Y9144000D02*
D03*
X57556403Y21424899D02*
D03*
X57302399Y22186900D02*
D03*
Y21424899D02*
D03*
X57048401Y22186900D02*
D03*
Y21424899D02*
D03*
X56794397Y22186900D02*
D03*
Y21424899D02*
D03*
D35*
X53276501Y9144000D02*
D03*
X57556403Y22186900D02*
D03*
D36*
X61869318Y8991600D02*
D03*
X61658502D02*
D03*
D37*
X51561102Y14503400D02*
D03*
X50711099D02*
D03*
D38*
X59423297Y9385300D02*
D03*
X62331598D02*
D03*
D39*
X51058902Y16586200D02*
D03*
X50718896D02*
D03*
X51228900D02*
D03*
X50888901D02*
D03*
X50548901D02*
D03*
D40*
X49923700Y13483002D02*
D03*
D41*
Y15473000D02*
D03*
D42*
X57391302Y8674100D02*
D03*
X52590698Y20650200D02*
D03*
Y20866100D02*
D03*
X57670697Y20231100D02*
D03*
X57988202Y20713699D02*
D03*
X55130701Y20320000D02*
D03*
X55435498Y20688300D02*
D03*
X53479700Y19761200D02*
D03*
X52870099Y20307300D02*
D03*
X56286401Y19735800D02*
D03*
X55765698Y20320000D02*
D03*
X61899799Y19824699D02*
D03*
X60642499Y19900900D02*
D03*
X58750201Y19913600D02*
D03*
X57848499D02*
D03*
X50304700Y16078200D02*
D03*
X52603400Y19329401D02*
D03*
X52844702Y19850101D02*
D03*
X60147198Y16916400D02*
D03*
X60210699Y10579100D02*
D03*
X55943500Y18084801D02*
D03*
X54279797Y14757401D02*
D03*
X55067200Y14960600D02*
D03*
X57238898Y10604500D02*
D03*
X58496198Y11468100D02*
D03*
X57531000Y15582899D02*
D03*
X57556403Y18656300D02*
D03*
X57378601Y20713699D02*
D03*
X57899298Y18427699D02*
D03*
X52984399Y18300700D02*
D03*
X53073297Y20269200D02*
D03*
X53594000Y21069299D02*
D03*
X55981598Y20256500D02*
D03*
X56299103Y21170900D02*
D03*
X58991498Y20218401D02*
D03*
X58940698Y21310600D02*
D03*
X61404498Y20116800D02*
D03*
X60363098Y20574001D02*
D03*
X61810901Y19303999D02*
D03*
X61315601Y19583400D02*
D03*
X53289203Y19354800D02*
D03*
X52832001Y19685001D02*
D03*
X58813702Y19329401D02*
D03*
X58381897Y19545300D02*
D03*
X56121301Y19329401D02*
D03*
X55778400Y19634200D02*
D03*
%TF.MD5,e99c83dcfb95b4a882ae156ee7e32b5d*%
M02*
