%TF.GenerationSoftware,Altium Limited,Altium Designer,25.4.2 (15)*%
G04 Layer_Color=65535*
%FSLAX45Y45*%
%MOMM*%
%TF.SameCoordinates,0640AC9D-8A5E-4001-91DE-6D45CD138FA6*%
%TF.FilePolarity,Positive*%
%TF.FileFunction,Legend,Top*%
%TF.Part,Single*%
G01*
G75*
%TA.AperFunction,NonConductor*%
%ADD43C,0.20000*%
%ADD44C,0.50800*%
%ADD45C,0.12700*%
%ADD46C,0.15240*%
%ADD47C,0.25400*%
G36*
X62661798Y21539200D02*
X59893201D01*
Y22422044D01*
X62661798D01*
Y21539200D01*
D02*
G37*
%LPC*%
G36*
X62611005Y22371243D02*
X62600165D01*
Y21837843D01*
X62611005D01*
Y22371243D01*
D02*
G37*
G36*
X62589325D02*
X62567639D01*
Y21837843D01*
X62589325D01*
Y22371243D01*
D02*
G37*
G36*
X62556799D02*
X62535114D01*
Y21837843D01*
X62556799D01*
Y22371243D01*
D02*
G37*
G36*
X62524274D02*
X62513434D01*
Y21837843D01*
X62524274D01*
Y22371243D01*
D02*
G37*
G36*
X62491748D02*
X62480908D01*
Y21837843D01*
X62491748D01*
Y22371243D01*
D02*
G37*
G36*
X62470062D02*
X62459222D01*
Y21837843D01*
X62470062D01*
Y22371243D01*
D02*
G37*
G36*
X62437543D02*
X62426697D01*
Y21837843D01*
X62437543D01*
Y22371243D01*
D02*
G37*
G36*
X62415857D02*
X62405017D01*
Y21837843D01*
X62415857D01*
Y22371243D01*
D02*
G37*
G36*
X62394177D02*
X62372491D01*
Y21837843D01*
X62394177D01*
Y22371243D01*
D02*
G37*
G36*
X62361652D02*
X62339966D01*
Y21837843D01*
X62361652D01*
Y22371243D01*
D02*
G37*
G36*
X62329126D02*
X62318286D01*
Y21837843D01*
X62329126D01*
Y22371243D01*
D02*
G37*
G36*
X62296600D02*
X62285760D01*
Y21837843D01*
X62296600D01*
Y22371243D01*
D02*
G37*
G36*
X62264075D02*
X62253235D01*
Y21837843D01*
X62264075D01*
Y22371243D01*
D02*
G37*
G36*
X62242395D02*
X62231555D01*
Y21837843D01*
X62242395D01*
Y22371243D01*
D02*
G37*
G36*
X62209869D02*
X62199030D01*
Y21837843D01*
X62209869D01*
Y22371243D01*
D02*
G37*
G36*
X62188190D02*
X62177344D01*
Y21837843D01*
X62188190D01*
Y22371243D01*
D02*
G37*
G36*
X62166504D02*
X62144818D01*
Y21837843D01*
X62166504D01*
Y22371243D01*
D02*
G37*
G36*
X62123138D02*
X62112299D01*
Y21837843D01*
X62123138D01*
Y22371243D01*
D02*
G37*
G36*
X62101453D02*
X62079773D01*
Y21837843D01*
X62101453D01*
Y22371243D01*
D02*
G37*
G36*
X62068927D02*
X62058087D01*
Y21837843D01*
X62068927D01*
Y22371243D01*
D02*
G37*
G36*
X62047247D02*
X62036407D01*
Y21837843D01*
X62047247D01*
Y22371243D01*
D02*
G37*
G36*
X62014722D02*
X62003882D01*
Y21837843D01*
X62014722D01*
Y22371243D01*
D02*
G37*
G36*
X61982196D02*
X61971356D01*
Y21837843D01*
X61982196D01*
Y22371243D01*
D02*
G37*
G36*
X61960516D02*
X61949677D01*
Y21837843D01*
X61960516D01*
Y22371243D01*
D02*
G37*
G36*
X61927991D02*
X61917151D01*
Y21837843D01*
X61927991D01*
Y22371243D01*
D02*
G37*
G36*
X61906311D02*
X61884625D01*
Y21837843D01*
X61906311D01*
Y22371243D01*
D02*
G37*
G36*
X61862939D02*
X61852100D01*
Y21837843D01*
X61862939D01*
Y22371243D01*
D02*
G37*
G36*
X61841260D02*
X61830420D01*
Y21837843D01*
X61841260D01*
Y22371243D01*
D02*
G37*
G36*
X61819574D02*
X61808734D01*
Y21837843D01*
X61819574D01*
Y22371243D01*
D02*
G37*
G36*
X61797894D02*
X61776208D01*
Y21837843D01*
X61797894D01*
Y22371243D01*
D02*
G37*
G36*
X61765369D02*
X61754529D01*
Y21837843D01*
X61765369D01*
Y22371243D01*
D02*
G37*
G36*
X61732843D02*
X61722003D01*
Y21837843D01*
X61732843D01*
Y22371243D01*
D02*
G37*
G36*
X61700317D02*
X61689478D01*
Y21837843D01*
X61700317D01*
Y22371243D01*
D02*
G37*
G36*
X61678638D02*
X61667798D01*
Y21837843D01*
X61678638D01*
Y22371243D01*
D02*
G37*
G36*
X61646112D02*
X61635272D01*
Y21837843D01*
X61646112D01*
Y22371243D01*
D02*
G37*
G36*
X61624432D02*
X61602747D01*
Y21837843D01*
X61624432D01*
Y22371243D01*
D02*
G37*
G36*
X61591907D02*
X61581067D01*
Y21837843D01*
X61591907D01*
Y22371243D01*
D02*
G37*
G36*
X61559381D02*
X61548541D01*
Y21837843D01*
X61559381D01*
Y22371243D01*
D02*
G37*
G36*
X61537695D02*
X61526855D01*
Y21837843D01*
X61537695D01*
Y22371243D01*
D02*
G37*
G36*
X61516016D02*
X61494330D01*
Y21837843D01*
X61516016D01*
Y22371243D01*
D02*
G37*
G36*
X61483490D02*
X61472650D01*
Y21837843D01*
X61483490D01*
Y22371243D01*
D02*
G37*
G36*
X61450964D02*
X61440125D01*
Y21837843D01*
X61450964D01*
Y22371243D01*
D02*
G37*
G36*
X61418445D02*
X61407599D01*
Y21837843D01*
X61418445D01*
Y22371243D01*
D02*
G37*
G36*
X61396759D02*
X61385919D01*
Y21837843D01*
X61396759D01*
Y22371243D01*
D02*
G37*
G36*
X61364233D02*
X61353394D01*
Y21837843D01*
X61364233D01*
Y22371243D01*
D02*
G37*
G36*
X61342554D02*
X61320868D01*
Y21837843D01*
X61342554D01*
Y22371243D01*
D02*
G37*
G36*
X61299182D02*
X61288342D01*
Y21837843D01*
X61299182D01*
Y22371243D01*
D02*
G37*
G36*
X61277502D02*
X61266663D01*
Y21837843D01*
X61277502D01*
Y22371243D01*
D02*
G37*
G36*
X61255817D02*
X61234137D01*
Y21837843D01*
X61255817D01*
Y22371243D01*
D02*
G37*
G36*
X61223297D02*
X61212451D01*
Y21837843D01*
X61223297D01*
Y22371243D01*
D02*
G37*
G36*
X61201611D02*
X61190771D01*
Y21837843D01*
X61201611D01*
Y22371243D01*
D02*
G37*
G36*
X61169086D02*
X61158246D01*
Y21837843D01*
X61169086D01*
Y22371243D01*
D02*
G37*
G36*
X61136560D02*
X61125720D01*
Y21837843D01*
X61136560D01*
Y22371243D01*
D02*
G37*
G36*
X61114880D02*
X61104041D01*
Y21837843D01*
X61114880D01*
Y22371243D01*
D02*
G37*
G36*
X61082355D02*
X61071515D01*
Y21837843D01*
X61082355D01*
Y22371243D01*
D02*
G37*
G36*
X61060675D02*
X61038989D01*
Y21837843D01*
X61060675D01*
Y22371243D01*
D02*
G37*
G36*
X61028149D02*
X61017310D01*
Y21837843D01*
X61028149D01*
Y22371243D01*
D02*
G37*
G36*
X61006464D02*
X60995624D01*
Y21837843D01*
X61006464D01*
Y22371243D01*
D02*
G37*
G36*
X60984784D02*
X60973938D01*
Y21837843D01*
X60984784D01*
Y22371243D01*
D02*
G37*
G36*
X60952258D02*
X60930573D01*
Y21837843D01*
X60952258D01*
Y22371243D01*
D02*
G37*
G36*
X60919733D02*
X60908893D01*
Y21837843D01*
X60919733D01*
Y22371243D01*
D02*
G37*
G36*
X60887207D02*
X60876367D01*
Y21837843D01*
X60887207D01*
Y22371243D01*
D02*
G37*
G36*
X60854681D02*
X60843842D01*
Y21837843D01*
X60854681D01*
Y22371243D01*
D02*
G37*
G36*
X60833002D02*
X60822162D01*
Y21837843D01*
X60833002D01*
Y22371243D01*
D02*
G37*
G36*
X60800476D02*
X60789636D01*
Y21837843D01*
X60800476D01*
Y22371243D01*
D02*
G37*
G36*
X60778796D02*
X60757111D01*
Y21837843D01*
X60778796D01*
Y22371243D01*
D02*
G37*
G36*
X60746271D02*
X60735431D01*
Y21837843D01*
X60746271D01*
Y22371243D01*
D02*
G37*
G36*
X60713745D02*
X60692059D01*
Y21837843D01*
X60713745D01*
Y22371243D01*
D02*
G37*
G36*
X60681219D02*
X60670380D01*
Y21837843D01*
X60681219D01*
Y22371243D01*
D02*
G37*
G36*
X60659540D02*
X60648694D01*
Y21837843D01*
X60659540D01*
Y22371243D01*
D02*
G37*
G36*
X60637854D02*
X60627014D01*
Y21837843D01*
X60637854D01*
Y22371243D01*
D02*
G37*
G36*
X60605328D02*
X60594489D01*
Y21837843D01*
X60605328D01*
Y22371243D01*
D02*
G37*
G36*
X60572809D02*
X60561963D01*
Y21837843D01*
X60572809D01*
Y22371243D01*
D02*
G37*
G36*
X60551123D02*
X60540283D01*
Y21837843D01*
X60551123D01*
Y22371243D01*
D02*
G37*
G36*
X60518597D02*
X60507758D01*
Y21837843D01*
X60518597D01*
Y22371243D01*
D02*
G37*
G36*
X60496918D02*
X60475232D01*
Y21837843D01*
X60496918D01*
Y22371243D01*
D02*
G37*
G36*
X60464392D02*
X60453552D01*
Y21837843D01*
X60464392D01*
Y22371243D01*
D02*
G37*
G36*
X60431866D02*
X60421027D01*
Y21837843D01*
X60431866D01*
Y22371243D01*
D02*
G37*
G36*
X60410187D02*
X60388501D01*
Y21837843D01*
X60410187D01*
Y22371243D01*
D02*
G37*
G36*
X60377661D02*
X60366815D01*
Y21837843D01*
X60377661D01*
Y22371243D01*
D02*
G37*
G36*
X60355975D02*
X60345135D01*
Y21837843D01*
X60355975D01*
Y22371243D01*
D02*
G37*
G36*
X60323450D02*
X60312610D01*
Y21837843D01*
X60323450D01*
Y22371243D01*
D02*
G37*
G36*
X60290924D02*
X60280084D01*
Y21837843D01*
X60290924D01*
Y22371243D01*
D02*
G37*
G36*
X60269244D02*
X60258405D01*
Y21837843D01*
X60269244D01*
Y22371243D01*
D02*
G37*
G36*
X60236719D02*
X60225879D01*
Y21837843D01*
X60236719D01*
Y22371243D01*
D02*
G37*
G36*
X60215039D02*
X60193353D01*
Y21837843D01*
X60215039D01*
Y22371243D01*
D02*
G37*
G36*
X60182513D02*
X60171674D01*
Y21837843D01*
X60182513D01*
Y22371243D01*
D02*
G37*
G36*
X60149988D02*
X60139148D01*
Y21837843D01*
X60149988D01*
Y22371243D01*
D02*
G37*
G36*
X60128302D02*
X60117462D01*
Y21837843D01*
X60128302D01*
Y22371243D01*
D02*
G37*
G36*
X60106622D02*
X60084937D01*
Y21837843D01*
X60106622D01*
Y22371243D01*
D02*
G37*
G36*
X60074097D02*
X60063257D01*
Y21837843D01*
X60074097D01*
Y22371243D01*
D02*
G37*
G36*
X60052417D02*
X60030731D01*
Y21837843D01*
X60052417D01*
Y22371243D01*
D02*
G37*
G36*
X60019891D02*
X59998206D01*
Y21837843D01*
X60019891D01*
Y22371243D01*
D02*
G37*
G36*
X59987366D02*
X59976526D01*
Y21837843D01*
X59987366D01*
Y22371243D01*
D02*
G37*
G36*
X59954840D02*
X59944000D01*
Y21837843D01*
X59954840D01*
Y22371243D01*
D02*
G37*
G36*
X62220160Y21833966D02*
X62190192D01*
Y21799768D01*
X62220160D01*
Y21833966D01*
D02*
G37*
G36*
X60675134D02*
X60645166D01*
Y21746533D01*
X60641992Y21750410D01*
X60638470Y21753584D01*
X60635297Y21756757D01*
X60631769Y21759225D01*
X60628949Y21760988D01*
X60626837Y21762750D01*
X60625427Y21763457D01*
X60624719Y21763808D01*
X60620135Y21766277D01*
X60615204Y21768039D01*
X60610266Y21769096D01*
X60605682Y21770154D01*
X60601807Y21770506D01*
X60598981Y21770859D01*
X60596161D01*
X60588409Y21770506D01*
X60581006Y21769096D01*
X60574304Y21767334D01*
X60568665Y21765218D01*
X60563727Y21762750D01*
X60560199Y21760988D01*
X60558789Y21760283D01*
X60557733Y21759578D01*
X60557379Y21759225D01*
X60557031D01*
X60550684Y21754642D01*
X60545398Y21749001D01*
X60540814Y21743713D01*
X60537286Y21738425D01*
X60534467Y21733488D01*
X60532349Y21729611D01*
X60531647Y21728200D01*
X60530939Y21727142D01*
X60530591Y21726437D01*
Y21726085D01*
X60527771Y21717976D01*
X60525653Y21709515D01*
X60523889Y21701405D01*
X60522833Y21694003D01*
X60522125Y21687657D01*
Y21684836D01*
X60521771Y21682721D01*
Y21680606D01*
Y21679196D01*
Y21678491D01*
Y21678139D01*
X60522125Y21668266D01*
X60523187Y21659100D01*
X60524945Y21650990D01*
X60526709Y21643941D01*
X60527417Y21640767D01*
X60528119Y21638300D01*
X60529181Y21635832D01*
X60529883Y21633716D01*
X60530591Y21632306D01*
X60530939Y21631248D01*
X60531293Y21630544D01*
Y21630191D01*
X60535168Y21622787D01*
X60539752Y21616441D01*
X60544336Y21610802D01*
X60548920Y21606216D01*
X60552802Y21602692D01*
X60555969Y21599870D01*
X60558087Y21598460D01*
X60558441Y21597755D01*
X60558789D01*
X60565491Y21593878D01*
X60572186Y21591058D01*
X60578888Y21588942D01*
X60584882Y21587532D01*
X60589819Y21586827D01*
X60594049Y21586475D01*
X60595459Y21586122D01*
X60597571D01*
X60603564Y21586475D01*
X60609204Y21587180D01*
X60614496Y21588589D01*
X60619080Y21590353D01*
X60623663Y21592114D01*
X60627893Y21594231D01*
X60631421Y21596698D01*
X60634589Y21599165D01*
X60637762Y21601634D01*
X60640234Y21604102D01*
X60642346Y21606216D01*
X60644110Y21607980D01*
X60645520Y21609743D01*
X60646576Y21611153D01*
X60646930Y21611858D01*
X60647284Y21612212D01*
Y21589999D01*
X60675134D01*
Y21833966D01*
D02*
G37*
G36*
X62540271Y21770859D02*
X62537805D01*
X62531458Y21770506D01*
X62525818Y21769449D01*
X62520178Y21768039D01*
X62514886Y21765923D01*
X62509955Y21763457D01*
X62505371Y21760988D01*
X62501489Y21758167D01*
X62497614Y21755347D01*
X62494086Y21752174D01*
X62491266Y21749355D01*
X62488800Y21746886D01*
X62486682Y21744418D01*
X62484918Y21742302D01*
X62483862Y21740892D01*
X62483160Y21739835D01*
X62482806Y21739482D01*
X62480688Y21744769D01*
X62477869Y21749355D01*
X62474695Y21753232D01*
X62471875Y21756406D01*
X62469055Y21759225D01*
X62466943Y21760988D01*
X62465533Y21762045D01*
X62464825Y21762398D01*
X62459888Y21765218D01*
X62454602Y21767334D01*
X62449310Y21768744D01*
X62444025Y21769801D01*
X62439795Y21770506D01*
X62435913Y21770859D01*
X62432745D01*
X62426398Y21770506D01*
X62420404Y21769449D01*
X62415118Y21768391D01*
X62410535Y21766982D01*
X62406653Y21765218D01*
X62403833Y21764162D01*
X62402069Y21763103D01*
X62401367Y21762750D01*
X62396429Y21759578D01*
X62392200Y21756052D01*
X62388324Y21752525D01*
X62385150Y21749001D01*
X62382678Y21746181D01*
X62380566Y21743713D01*
X62379510Y21742302D01*
X62379156Y21741597D01*
Y21766982D01*
X62352362D01*
Y21589999D01*
X62382330D01*
Y21681664D01*
X62382678Y21690125D01*
X62383032Y21697528D01*
X62383740Y21703874D01*
X62384796Y21709163D01*
X62385852Y21713042D01*
X62386560Y21715862D01*
X62386914Y21717624D01*
X62387262Y21718329D01*
X62389380Y21722913D01*
X62391846Y21726790D01*
X62394318Y21730316D01*
X62396783Y21733136D01*
X62399249Y21735251D01*
X62401013Y21736662D01*
X62402423Y21737720D01*
X62402777Y21738072D01*
X62407007Y21740187D01*
X62410883Y21741949D01*
X62415118Y21743008D01*
X62418640Y21744064D01*
X62421460Y21744418D01*
X62423932Y21744769D01*
X62426044D01*
X62432037Y21744418D01*
X62436975Y21743359D01*
X62441205Y21741597D01*
X62444379Y21739835D01*
X62446844Y21737720D01*
X62448608Y21736308D01*
X62449664Y21734898D01*
X62450018Y21734546D01*
X62452484Y21730316D01*
X62454248Y21725732D01*
X62455658Y21720798D01*
X62456366Y21715862D01*
X62457068Y21711630D01*
X62457422Y21707751D01*
Y21706342D01*
Y21705637D01*
Y21704932D01*
Y21704579D01*
Y21589999D01*
X62487390D01*
Y21692593D01*
X62488092Y21702112D01*
X62489502Y21710220D01*
X62491266Y21716919D01*
X62493738Y21722560D01*
X62495850Y21726790D01*
X62497968Y21729611D01*
X62499377Y21731374D01*
X62499725Y21732079D01*
X62504663Y21736308D01*
X62509955Y21739482D01*
X62515240Y21741597D01*
X62520178Y21743359D01*
X62524408Y21744064D01*
X62527930Y21744418D01*
X62529346Y21744769D01*
X62531104D01*
X62534985Y21744418D01*
X62538153Y21744064D01*
X62541327Y21743359D01*
X62543799Y21742302D01*
X62546265Y21741245D01*
X62547675Y21740540D01*
X62548730Y21740187D01*
X62549084Y21739835D01*
X62551904Y21737720D01*
X62554022Y21735603D01*
X62555786Y21733488D01*
X62557196Y21731374D01*
X62558252Y21729611D01*
X62558960Y21728200D01*
X62559662Y21727142D01*
Y21726790D01*
X62560718Y21723618D01*
X62561426Y21719386D01*
X62561780Y21715157D01*
X62562128Y21710925D01*
X62562482Y21707047D01*
Y21703874D01*
Y21701759D01*
Y21701405D01*
Y21701054D01*
Y21589999D01*
X62592450D01*
Y21711278D01*
Y21716919D01*
X62591742Y21721854D01*
X62591040Y21726790D01*
X62590332Y21731021D01*
X62589276Y21735251D01*
X62587866Y21738777D01*
X62586810Y21741949D01*
X62585400Y21745123D01*
X62583990Y21747591D01*
X62582928Y21750060D01*
X62580463Y21753232D01*
X62579053Y21755347D01*
X62578345Y21756052D01*
X62572705Y21760988D01*
X62566010Y21764513D01*
X62559308Y21767334D01*
X62552966Y21769096D01*
X62546973Y21770154D01*
X62544501Y21770506D01*
X62542035D01*
X62540271Y21770859D01*
D02*
G37*
G36*
X60942542Y21766982D02*
X60912573D01*
Y21672145D01*
X60912219Y21664037D01*
X60911865Y21656985D01*
X60911163Y21650990D01*
X60910107Y21646056D01*
X60909045Y21642178D01*
X60908344Y21639357D01*
X60907990Y21637947D01*
X60907635Y21637242D01*
X60905524Y21633011D01*
X60903052Y21629486D01*
X60900232Y21626312D01*
X60897412Y21623492D01*
X60894946Y21621378D01*
X60892828Y21619968D01*
X60891418Y21618909D01*
X60890717Y21618558D01*
X60886133Y21616441D01*
X60881549Y21614679D01*
X60877319Y21613622D01*
X60873438Y21612563D01*
X60870264Y21612212D01*
X60867798Y21611858D01*
X60865332D01*
X60860394Y21612212D01*
X60856165Y21612917D01*
X60852289Y21613974D01*
X60849115Y21615384D01*
X60846295Y21616441D01*
X60844531Y21617499D01*
X60843121Y21618204D01*
X60842767Y21618558D01*
X60839594Y21621378D01*
X60837128Y21624197D01*
X60835010Y21627371D01*
X60833246Y21630191D01*
X60832190Y21633011D01*
X60831488Y21635127D01*
X60830780Y21636537D01*
Y21636890D01*
X60830072Y21640767D01*
X60829724Y21645351D01*
X60829370Y21650639D01*
Y21655927D01*
X60829016Y21660863D01*
Y21664742D01*
Y21666504D01*
Y21667561D01*
Y21668266D01*
Y21668619D01*
Y21766982D01*
X60799054D01*
Y21657336D01*
Y21650639D01*
X60799402Y21644646D01*
X60799756Y21640062D01*
X60800110Y21635832D01*
Y21633011D01*
X60800464Y21630896D01*
X60800812Y21629486D01*
Y21629134D01*
X60801874Y21624550D01*
X60803284Y21620319D01*
X60804694Y21616441D01*
X60806451Y21613268D01*
X60807867Y21610448D01*
X60808923Y21608685D01*
X60809625Y21607275D01*
X60809979Y21606921D01*
X60812799Y21603751D01*
X60815973Y21600929D01*
X60819147Y21598460D01*
X60822675Y21596346D01*
X60825494Y21594583D01*
X60827960Y21593173D01*
X60829370Y21592468D01*
X60830072Y21592114D01*
X60835364Y21589999D01*
X60840302Y21588589D01*
X60845233Y21587532D01*
X60849817Y21586827D01*
X60853699Y21586475D01*
X60856866Y21586122D01*
X60859338D01*
X60865686Y21586475D01*
X60872028Y21587532D01*
X60877667Y21588942D01*
X60883313Y21590704D01*
X60888245Y21593173D01*
X60892828Y21595641D01*
X60897058Y21598109D01*
X60900940Y21600929D01*
X60904462Y21603751D01*
X60907281Y21606216D01*
X60909753Y21609038D01*
X60911865Y21611153D01*
X60913629Y21612917D01*
X60914685Y21614326D01*
X60915393Y21615384D01*
X60915747Y21615736D01*
Y21589999D01*
X60942542D01*
Y21766982D01*
D02*
G37*
G36*
X62220160D02*
X62190192D01*
Y21589999D01*
X62220160D01*
Y21766982D01*
D02*
G37*
G36*
X61906042Y21833966D02*
X61876074D01*
Y21589999D01*
X61906042D01*
Y21660158D01*
X61926843Y21680254D01*
X61985718Y21589999D01*
X62022736D01*
X61947998Y21701054D01*
X62016040Y21766982D01*
X61976904D01*
X61906042Y21694708D01*
Y21833966D01*
D02*
G37*
G36*
X61678473Y21770859D02*
X61674597D01*
X61666138Y21770506D01*
X61658734Y21769801D01*
X61651678Y21768744D01*
X61646039Y21767686D01*
X61641107Y21766629D01*
X61637579Y21765572D01*
X61636169Y21765218D01*
X61635114Y21764867D01*
X61634760Y21764513D01*
X61634406D01*
X61628412Y21762045D01*
X61623126Y21758871D01*
X61618542Y21756052D01*
X61614661Y21753232D01*
X61611841Y21750410D01*
X61609729Y21748296D01*
X61608319Y21746886D01*
X61607965Y21746533D01*
X61604791Y21741949D01*
X61601971Y21737013D01*
X61599854Y21732079D01*
X61598096Y21727495D01*
X61596686Y21722913D01*
X61595624Y21719739D01*
X61595276Y21718329D01*
Y21717271D01*
X61594922Y21716919D01*
Y21716566D01*
X61624182Y21712688D01*
X61626300Y21719034D01*
X61628412Y21724675D01*
X61630884Y21729259D01*
X61632996Y21732784D01*
X61635114Y21735603D01*
X61636871Y21737367D01*
X61638281Y21738425D01*
X61638635Y21738777D01*
X61642865Y21741245D01*
X61647803Y21743008D01*
X61653088Y21744418D01*
X61658026Y21745123D01*
X61662964Y21745828D01*
X61666486Y21746181D01*
X61670013D01*
X61678125Y21745828D01*
X61685175Y21744769D01*
X61690814Y21743008D01*
X61695752Y21741245D01*
X61699274Y21739130D01*
X61702094Y21737720D01*
X61703857Y21736308D01*
X61704211Y21735957D01*
X61707031Y21732784D01*
X61709149Y21728905D01*
X61710907Y21724675D01*
X61711969Y21720444D01*
X61712671Y21716566D01*
X61713025Y21713042D01*
Y21710925D01*
Y21710573D01*
Y21710220D01*
Y21709515D01*
Y21708105D01*
Y21705637D01*
X61712671Y21703522D01*
Y21702817D01*
Y21702464D01*
X61709149Y21701405D01*
X61705267Y21700349D01*
X61697162Y21698233D01*
X61687994Y21696471D01*
X61679535Y21694708D01*
X61675299Y21694003D01*
X61671423Y21693649D01*
X61667902Y21692944D01*
X61665076Y21692593D01*
X61662610Y21692239D01*
X61660846D01*
X61659436Y21691888D01*
X61659082D01*
X61652740Y21691182D01*
X61647449Y21690125D01*
X61642865Y21689420D01*
X61639343Y21688715D01*
X61636523Y21688362D01*
X61634406Y21687657D01*
X61632996Y21687305D01*
X61632642D01*
X61628058Y21685893D01*
X61624182Y21684483D01*
X61620306Y21682721D01*
X61617133Y21681311D01*
X61614313Y21679901D01*
X61612549Y21678491D01*
X61611139Y21677785D01*
X61610785Y21677432D01*
X61607257Y21674965D01*
X61604437Y21672145D01*
X61601617Y21669324D01*
X61599506Y21666504D01*
X61597742Y21664037D01*
X61596332Y21661922D01*
X61595624Y21660510D01*
X61595276Y21660158D01*
X61593512Y21656281D01*
X61592102Y21652049D01*
X61591040Y21648170D01*
X61590338Y21644293D01*
X61589984Y21641119D01*
X61589630Y21638652D01*
Y21637242D01*
Y21636537D01*
X61589984Y21632306D01*
X61590338Y21628781D01*
X61592102Y21621378D01*
X61594568Y21615384D01*
X61597388Y21610095D01*
X61600208Y21605865D01*
X61602673Y21602692D01*
X61604437Y21600929D01*
X61605145Y21600224D01*
X61611493Y21595641D01*
X61618542Y21592114D01*
X61626300Y21589647D01*
X61633350Y21587885D01*
X61639691Y21586827D01*
X61642517Y21586475D01*
X61644983D01*
X61647101Y21586122D01*
X61649921D01*
X61656262Y21586475D01*
X61662610Y21587180D01*
X61668250Y21587885D01*
X61673187Y21588942D01*
X61677063Y21589999D01*
X61680237Y21591058D01*
X61682355Y21591409D01*
X61683057Y21591763D01*
X61689050Y21594231D01*
X61694690Y21597404D01*
X61699982Y21600929D01*
X61705267Y21604102D01*
X61709497Y21607275D01*
X61712671Y21609743D01*
X61714789Y21611507D01*
X61715143Y21612212D01*
X61715491D01*
X61716199Y21607628D01*
X61716901Y21603397D01*
X61717609Y21599519D01*
X61718665Y21596346D01*
X61719727Y21593526D01*
X61720428Y21591763D01*
X61720782Y21590353D01*
X61721136Y21589999D01*
X61752509D01*
X61750751Y21593878D01*
X61748987Y21597755D01*
X61747577Y21601282D01*
X61746869Y21604456D01*
X61745813Y21607275D01*
X61745459Y21609390D01*
X61745105Y21610802D01*
Y21611153D01*
X61744757Y21613622D01*
X61744403Y21616794D01*
Y21620319D01*
X61744049Y21624197D01*
X61743695Y21633011D01*
Y21641824D01*
X61743347Y21650285D01*
Y21654164D01*
Y21657336D01*
Y21660158D01*
Y21662273D01*
Y21663683D01*
Y21664037D01*
Y21704227D01*
Y21710925D01*
X61742993Y21716919D01*
X61742639Y21721503D01*
Y21725380D01*
X61742285Y21728200D01*
X61741931Y21730316D01*
X61741583Y21731374D01*
Y21731726D01*
X61740521Y21736308D01*
X61739111Y21740187D01*
X61737701Y21743359D01*
X61735944Y21746533D01*
X61734534Y21748648D01*
X61733472Y21750410D01*
X61732770Y21751469D01*
X61732416Y21751820D01*
X61729596Y21754642D01*
X61726422Y21757462D01*
X61722894Y21759578D01*
X61719373Y21761693D01*
X61716199Y21763103D01*
X61713733Y21764162D01*
X61711969Y21764867D01*
X61711261Y21765218D01*
X61705621Y21766982D01*
X61699628Y21768391D01*
X61693634Y21769449D01*
X61687640Y21770154D01*
X61682355Y21770506D01*
X61678473Y21770859D01*
D02*
G37*
G36*
X61363123Y21833966D02*
X61333154D01*
Y21589999D01*
X61363123D01*
Y21686600D01*
X61363477Y21694003D01*
X61363831Y21700349D01*
X61364532Y21705991D01*
X61365588Y21710573D01*
X61366650Y21714098D01*
X61367352Y21716919D01*
X61367706Y21718329D01*
X61368060Y21719034D01*
X61370172Y21723265D01*
X61372644Y21727142D01*
X61375464Y21730316D01*
X61378284Y21733136D01*
X61380750Y21735251D01*
X61382867Y21736662D01*
X61384277Y21737720D01*
X61384631Y21738072D01*
X61389209Y21740540D01*
X61393445Y21742302D01*
X61397675Y21743359D01*
X61401196Y21744418D01*
X61404724Y21744769D01*
X61407190Y21745123D01*
X61409308D01*
X61415656Y21744769D01*
X61421295Y21743359D01*
X61425879Y21741949D01*
X61429755Y21739835D01*
X61432928Y21738072D01*
X61435040Y21736308D01*
X61436456Y21734898D01*
X61436804Y21734546D01*
X61439978Y21730316D01*
X61442450Y21725027D01*
X61444208Y21719739D01*
X61445618Y21714452D01*
X61446326Y21709515D01*
X61446680Y21705637D01*
Y21704227D01*
Y21703169D01*
Y21702464D01*
Y21702112D01*
Y21589999D01*
X61476648D01*
Y21701759D01*
X61476294Y21710925D01*
X61475586Y21719034D01*
X61474530Y21725732D01*
X61473474Y21731374D01*
X61472412Y21735957D01*
X61471356Y21739130D01*
X61470648Y21740892D01*
X61470300Y21741597D01*
X61467480Y21746533D01*
X61464307Y21750764D01*
X61460779Y21754289D01*
X61457605Y21757462D01*
X61454431Y21759930D01*
X61451965Y21761693D01*
X61450201Y21762750D01*
X61449500Y21763103D01*
X61443860Y21765572D01*
X61438214Y21767686D01*
X61432574Y21769096D01*
X61427289Y21769801D01*
X61422705Y21770506D01*
X61418823Y21770859D01*
X61415656D01*
X61410010Y21770506D01*
X61404370Y21769801D01*
X61399084Y21768744D01*
X61394147Y21766982D01*
X61384979Y21763103D01*
X61381104Y21760988D01*
X61377576Y21758871D01*
X61374408Y21756406D01*
X61371234Y21754289D01*
X61368762Y21752174D01*
X61366998Y21750410D01*
X61365240Y21748648D01*
X61364178Y21747591D01*
X61363477Y21746886D01*
X61363123Y21746533D01*
Y21833966D01*
D02*
G37*
G36*
X61152655D02*
X61122687D01*
Y21589999D01*
X61152655D01*
Y21833966D01*
D02*
G37*
G36*
X60086206D02*
X60050952D01*
X59957880Y21589999D01*
X59992078D01*
X60018518Y21664037D01*
X60120758D01*
X60149316Y21589999D01*
X60185980D01*
X60086206Y21833966D01*
D02*
G37*
G36*
X60295618D02*
X60265649D01*
Y21589999D01*
X60293500D01*
Y21612212D01*
X60297028Y21607628D01*
X60300555Y21603751D01*
X60304431Y21600224D01*
X60308661Y21597050D01*
X60312543Y21594583D01*
X60316772Y21592468D01*
X60320648Y21590704D01*
X60324530Y21589294D01*
X60331580Y21587532D01*
X60334753Y21586827D01*
X60337219Y21586475D01*
X60339331D01*
X60341095Y21586122D01*
X60342505D01*
X60348151Y21586475D01*
X60353790Y21587180D01*
X60359076Y21588237D01*
X60364014Y21589999D01*
X60373529Y21593878D01*
X60377411Y21596346D01*
X60381287Y21598460D01*
X60384814Y21600929D01*
X60387634Y21603044D01*
X60390100Y21605161D01*
X60392572Y21606921D01*
X60394330Y21608685D01*
X60395392Y21609743D01*
X60396094Y21610448D01*
X60396448Y21610802D01*
X60400323Y21615736D01*
X60403851Y21621025D01*
X60407025Y21626312D01*
X60409491Y21632306D01*
X60411609Y21637947D01*
X60413373Y21643941D01*
X60416193Y21655222D01*
X60417249Y21660510D01*
X60417950Y21665446D01*
X60418304Y21669678D01*
X60418658Y21673555D01*
X60419012Y21676727D01*
Y21678844D01*
Y21680606D01*
Y21680959D01*
X60418658Y21688010D01*
X60418304Y21694708D01*
X60417249Y21700700D01*
X60416193Y21705991D01*
X60415131Y21710573D01*
X60414429Y21714098D01*
X60414075Y21715157D01*
X60413721Y21716214D01*
X60413373Y21716566D01*
Y21716919D01*
X60411255Y21722913D01*
X60408789Y21728552D01*
X60406317Y21733488D01*
X60403851Y21737720D01*
X60401733Y21740892D01*
X60399976Y21743359D01*
X60398914Y21745123D01*
X60398566Y21745474D01*
X60395038Y21749706D01*
X60390808Y21753584D01*
X60386926Y21756757D01*
X60383051Y21759225D01*
X60379877Y21761340D01*
X60377057Y21763103D01*
X60375293Y21763808D01*
X60374591Y21764162D01*
X60369299Y21766277D01*
X60363660Y21768039D01*
X60358374Y21769096D01*
X60353790Y21770154D01*
X60349908Y21770506D01*
X60346741Y21770859D01*
X60343915D01*
X60338629Y21770506D01*
X60333344Y21769801D01*
X60328406Y21768744D01*
X60323822Y21766982D01*
X60315710Y21763457D01*
X60308661Y21758871D01*
X60305841Y21756757D01*
X60303021Y21754642D01*
X60300903Y21752525D01*
X60299146Y21750764D01*
X60297382Y21749001D01*
X60296326Y21747943D01*
X60295972Y21747238D01*
X60295618Y21746886D01*
Y21833966D01*
D02*
G37*
%LPD*%
G36*
X60603217Y21745828D02*
X60606738Y21745474D01*
X60613440Y21743359D01*
X60619434Y21740892D01*
X60624365Y21737720D01*
X60628247Y21734546D01*
X60631421Y21731726D01*
X60633179Y21729611D01*
X60633887Y21729259D01*
Y21728905D01*
X60636353Y21725380D01*
X60638470Y21721854D01*
X60641992Y21713393D01*
X60644464Y21704579D01*
X60646228Y21696118D01*
X60646930Y21691888D01*
X60647284Y21688010D01*
X60647638Y21684483D01*
Y21681664D01*
X60647986Y21679196D01*
Y21677432D01*
Y21676022D01*
Y21675670D01*
Y21669678D01*
X60647284Y21664037D01*
X60646576Y21659100D01*
X60645874Y21654164D01*
X60644812Y21649934D01*
X60643402Y21645703D01*
X60642346Y21642178D01*
X60640936Y21639005D01*
X60639526Y21636185D01*
X60638470Y21633363D01*
X60637061Y21631601D01*
X60635999Y21629839D01*
X60635297Y21628429D01*
X60634589Y21627371D01*
X60633887Y21627019D01*
Y21626665D01*
X60631421Y21623845D01*
X60628595Y21621378D01*
X60622955Y21617499D01*
X60617316Y21614679D01*
X60612030Y21612917D01*
X60607446Y21611507D01*
X60603564Y21611153D01*
X60602155Y21610802D01*
X60600391D01*
X60596869Y21611153D01*
X60593341Y21611507D01*
X60586993Y21613268D01*
X60581006Y21616089D01*
X60576068Y21619263D01*
X60572186Y21622083D01*
X60569019Y21624902D01*
X60567255Y21626665D01*
X60566901Y21627371D01*
X60566547D01*
X60564081Y21630896D01*
X60561963Y21634422D01*
X60558441Y21642529D01*
X60555969Y21650990D01*
X60554211Y21659100D01*
X60553149Y21666504D01*
X60552802Y21669678D01*
Y21672498D01*
X60552448Y21674965D01*
Y21676727D01*
Y21677785D01*
Y21678139D01*
Y21684483D01*
X60553149Y21690477D01*
X60553857Y21696118D01*
X60554559Y21701054D01*
X60555621Y21705637D01*
X60556677Y21709868D01*
X60557733Y21713747D01*
X60559143Y21717271D01*
X60560553Y21720091D01*
X60561615Y21722560D01*
X60562671Y21724675D01*
X60563727Y21726437D01*
X60564789Y21727847D01*
X60565137Y21728905D01*
X60565845Y21729259D01*
Y21729611D01*
X60568311Y21732431D01*
X60571130Y21735251D01*
X60576770Y21739130D01*
X60582416Y21742302D01*
X60587701Y21744064D01*
X60592285Y21745474D01*
X60596161Y21745828D01*
X60597571Y21746181D01*
X60599335D01*
X60603217Y21745828D01*
D02*
G37*
G36*
X61712671Y21667561D02*
X61712323Y21660510D01*
X61711969Y21654517D01*
X61711261Y21649580D01*
X61710205Y21645351D01*
X61709149Y21642178D01*
X61708441Y21639709D01*
X61708087Y21638300D01*
X61707739Y21637947D01*
X61704913Y21633363D01*
X61702094Y21629134D01*
X61698572Y21625607D01*
X61695398Y21622787D01*
X61692578Y21620319D01*
X61690106Y21618558D01*
X61688696Y21617499D01*
X61687994Y21617146D01*
X61682709Y21614679D01*
X61677417Y21612917D01*
X61672479Y21611507D01*
X61667548Y21610802D01*
X61663666Y21610095D01*
X61660144Y21609743D01*
X61657324D01*
X61650977Y21610095D01*
X61645691Y21610802D01*
X61641107Y21612212D01*
X61637225Y21613622D01*
X61634406Y21615031D01*
X61632294Y21616441D01*
X61630884Y21617146D01*
X61630530Y21617499D01*
X61627710Y21620673D01*
X61625592Y21624197D01*
X61623828Y21627371D01*
X61622772Y21630544D01*
X61622064Y21633363D01*
X61621716Y21635480D01*
Y21637242D01*
Y21637595D01*
X61622064Y21640414D01*
X61622418Y21643234D01*
X61623126Y21645351D01*
X61623828Y21647466D01*
X61624536Y21649229D01*
X61624884Y21650639D01*
X61625592Y21651344D01*
Y21651697D01*
X61629120Y21655927D01*
X61633350Y21658748D01*
X61634760Y21659805D01*
X61636169Y21660510D01*
X61637225Y21661217D01*
X61637579D01*
X61641107Y21662627D01*
X61644983Y21663683D01*
X61649213Y21664742D01*
X61653442Y21665446D01*
X61657324Y21666151D01*
X61660846Y21666856D01*
X61662964Y21667209D01*
X61663666D01*
X61669659Y21668266D01*
X61675299Y21668971D01*
X61680237Y21670029D01*
X61685175Y21671088D01*
X61689758Y21672145D01*
X61693634Y21673203D01*
X61697516Y21673907D01*
X61700684Y21674965D01*
X61703503Y21675670D01*
X61705975Y21676375D01*
X61708087Y21677080D01*
X61709851Y21677785D01*
X61711261Y21678139D01*
X61712323Y21678491D01*
X61712671Y21678844D01*
X61713025D01*
X61712671Y21667561D01*
D02*
G37*
G36*
X60070343Y21800475D02*
X60073163Y21792012D01*
X60075983Y21783551D01*
X60078802Y21775443D01*
X60080212Y21771918D01*
X60081274Y21768391D01*
X60082330Y21765218D01*
X60083386Y21762750D01*
X60084094Y21760635D01*
X60084796Y21758871D01*
X60085150Y21757816D01*
Y21757462D01*
X60110535Y21690477D01*
X60028033D01*
X60054480Y21761693D01*
X60057654Y21770506D01*
X60060120Y21778967D01*
X60062585Y21786723D01*
X60064349Y21793774D01*
X60065759Y21799768D01*
X60066467Y21802235D01*
X60066815Y21804704D01*
X60067523Y21806114D01*
Y21807526D01*
X60067877Y21808231D01*
Y21808582D01*
X60070343Y21800475D01*
D02*
G37*
G36*
X60348151Y21745474D02*
X60354846Y21743713D01*
X60360486Y21740892D01*
X60365424Y21738072D01*
X60369299Y21734898D01*
X60372119Y21732079D01*
X60373883Y21730316D01*
X60374591Y21729964D01*
Y21729611D01*
X60377057Y21726437D01*
X60379175Y21722560D01*
X60382697Y21714803D01*
X60385168Y21705991D01*
X60386578Y21697881D01*
X60387634Y21690477D01*
X60387988Y21686952D01*
Y21684131D01*
X60388336Y21681664D01*
Y21679901D01*
Y21678844D01*
Y21678491D01*
Y21672498D01*
X60387634Y21666504D01*
X60386926Y21661217D01*
X60386224Y21656281D01*
X60385168Y21651697D01*
X60383759Y21647466D01*
X60382349Y21643941D01*
X60381287Y21640414D01*
X60379877Y21637595D01*
X60378467Y21634773D01*
X60377411Y21632658D01*
X60376001Y21630896D01*
X60375293Y21629486D01*
X60374591Y21628429D01*
X60373883Y21628076D01*
Y21627724D01*
X60371063Y21624902D01*
X60368243Y21622083D01*
X60362604Y21617851D01*
X60356964Y21615031D01*
X60351672Y21612917D01*
X60347089Y21611858D01*
X60343213Y21611153D01*
X60341803Y21610802D01*
X60340039D01*
X60335455Y21611153D01*
X60331580Y21611858D01*
X60327350Y21612917D01*
X60323822Y21614326D01*
X60317120Y21618204D01*
X60311835Y21622435D01*
X60307251Y21626312D01*
X60304077Y21630191D01*
X60303021Y21631601D01*
X60302313Y21632658D01*
X60301611Y21633363D01*
Y21633716D01*
X60300201Y21636537D01*
X60298792Y21639709D01*
X60296674Y21646761D01*
X60295264Y21654517D01*
X60294208Y21661922D01*
X60293500Y21668619D01*
Y21671793D01*
X60293152Y21674260D01*
Y21676375D01*
Y21678139D01*
Y21679196D01*
Y21679549D01*
Y21685542D01*
X60293854Y21690829D01*
X60294562Y21696118D01*
X60295264Y21701054D01*
X60296326Y21705286D01*
X60297736Y21709515D01*
X60298792Y21713042D01*
X60300201Y21716566D01*
X60301611Y21719386D01*
X60302667Y21721854D01*
X60304077Y21723970D01*
X60305139Y21725732D01*
X60305841Y21727142D01*
X60306549Y21728200D01*
X60307251Y21728552D01*
Y21728905D01*
X60310071Y21732079D01*
X60312891Y21734546D01*
X60315710Y21737013D01*
X60318536Y21738777D01*
X60324176Y21741949D01*
X60329462Y21744064D01*
X60334045Y21745123D01*
X60337921Y21745828D01*
X60339331Y21746181D01*
X60344623D01*
X60348151Y21745474D01*
D02*
G37*
D43*
X60944598Y21014999D02*
G03*
X60944598Y21014999I-10000J0D01*
G01*
X58030103Y20926100D02*
G03*
X58030103Y20926100I-10000J0D01*
G01*
X55445502D02*
G03*
X55445502Y20926100I-10000J0D01*
G01*
X52581500D02*
G03*
X52581500Y20926100I-10000J0D01*
G01*
X51539697Y11836400D02*
G03*
X51539697Y11836400I-10000J0D01*
G01*
X64163501Y14528799D02*
G03*
X64163501Y14528799I-10000J0D01*
G01*
X53295502Y9323000D02*
G03*
X53295502Y9323000I-10000J0D01*
G01*
X57575403Y22365900D02*
G03*
X57575403Y22365900I-10000J0D01*
G01*
X51527002Y9461500D02*
G03*
X51527002Y9461500I-10000J0D01*
G01*
X50558899Y16346201D02*
G03*
X50558899Y16346201I-10000J0D01*
G01*
X55223499Y19670799D02*
G03*
X55223499Y19670799I-10000J0D01*
G01*
X61813800Y19877000D02*
G03*
X61813800Y19877000I-10000J0D01*
G01*
X58829303Y19889700D02*
G03*
X58829303Y19889700I-10000J0D01*
G01*
X58017499Y19594600D02*
G03*
X58017499Y19594600I-10000J0D01*
G01*
X56143500Y19889700D02*
G03*
X56143500Y19889700I-10000J0D01*
G01*
X53304797D02*
G03*
X53304797Y19889700I-10000J0D01*
G01*
X52315198Y19670799D02*
G03*
X52315198Y19670799I-10000J0D01*
G01*
X49522601Y17013901D02*
G03*
X49522601Y17013901I-10000J0D01*
G01*
X49933701Y15658000D02*
G03*
X49933701Y15658000I-10000J0D01*
G01*
X51345599Y17618100D02*
G03*
X51345599Y17618100I-10000J0D01*
G01*
X60963898Y19569200D02*
G03*
X60963898Y19569200I-10000J0D01*
G01*
X62519397Y20016499D02*
G03*
X62519397Y20016499I-10000J0D01*
G01*
X62506702Y20714999D02*
G03*
X62506702Y20714999I-10000J0D01*
G01*
X59649200Y19927600D02*
G03*
X59649200Y19927600I-10000J0D01*
G01*
X59623798Y20638800D02*
G03*
X59623798Y20638800I-10000J0D01*
G01*
X57020300Y19965700D02*
G03*
X57020300Y19965700I-10000J0D01*
G01*
X57007599Y20651500D02*
G03*
X57007599Y20651500I-10000J0D01*
G01*
X54150098Y19927600D02*
G03*
X54150098Y19927600I-10000J0D01*
G01*
Y20613400D02*
G03*
X54150098Y20613400I-10000J0D01*
G01*
X49617300Y17368098D02*
X50052289Y17368118D01*
X48982300Y17368098D02*
X49187299D01*
X48982300Y18268102D02*
X49612286D01*
X49747287Y18268117D02*
X50052289D01*
Y17368118D02*
Y18268117D01*
X48982300Y17368098D02*
Y18268102D01*
X56390601Y9553600D02*
X56855597D01*
Y9318600D02*
Y9553600D01*
X56390601Y9318600D02*
X56855597D01*
X56390601D02*
Y9553600D01*
Y9436100D02*
X56508099Y9553600D01*
X56024304Y9436100D02*
X56390601D01*
X56855597D02*
X57221899D01*
X57978101Y9553600D02*
X58443097D01*
Y9318600D02*
Y9553600D01*
X57978101Y9318600D02*
X58443097D01*
X57978101D02*
Y9553600D01*
Y9436100D02*
X58095599Y9553600D01*
X57611804Y9436100D02*
X57978101D01*
X58443097D02*
X58809399D01*
X54485303Y9344000D02*
X54950299D01*
X54485303D02*
Y9579000D01*
X54950299D01*
Y9344000D02*
Y9579000D01*
X54832800Y9344000D02*
X54950299Y9461500D01*
X55316602D01*
X54119000D02*
X54485303D01*
X51621100Y13443402D02*
Y14413399D01*
X50651099Y13443402D02*
X51621100D01*
X50651099D02*
Y14413399D01*
X51621100Y14593402D02*
Y15563399D01*
X50651099D02*
X51621100D01*
X50651099Y14593402D02*
Y15563399D01*
D44*
X61186060Y8991600D02*
G03*
X61109857Y8991600I-38100J0D01*
G01*
D02*
G03*
X61186060Y8991600I38100J0D01*
G01*
D45*
X57692297Y18698799D02*
X58369800D01*
X59079803D02*
X59757300D01*
X57692297Y10993801D02*
X58369800D01*
X59079803D02*
X59757300D01*
Y18698799D01*
X57692297Y10993801D02*
Y18698799D01*
X58324799Y19071300D02*
Y19171300D01*
X58274799Y10521300D02*
Y10621300D01*
X58224799Y10571302D02*
X58324799D01*
X61179102Y21019501D02*
X61579102D01*
X61179102Y20509499D02*
X61579102D01*
X58264600Y20930602D02*
X58664600D01*
X58264600Y20420599D02*
X58664600D01*
X55679999Y20930602D02*
X56079999D01*
X55679999Y20420599D02*
X56079999D01*
X52815997Y20930602D02*
X53216003D01*
X52815997Y20420599D02*
X53216003D01*
X60691400Y20731099D02*
Y20747101D01*
X60771399Y20731099D02*
Y20747101D01*
X57808502Y20769199D02*
Y20785201D01*
X57888501Y20769199D02*
Y20785201D01*
X55268500Y20747502D02*
Y20763499D01*
X55348499Y20747502D02*
Y20763499D01*
X52410999Y20718399D02*
Y20734401D01*
X52490997Y20718399D02*
Y20734401D01*
X51429700Y11582400D02*
Y12598400D01*
X50404700Y11582400D02*
Y12598400D01*
X51429700D01*
X50404700Y11582400D02*
X51429700D01*
X64053503Y14274800D02*
Y15290800D01*
X63028497Y14274800D02*
Y15290800D01*
X64053503D01*
X63028497Y14274800D02*
X64053503D01*
X54898297Y18736899D02*
X55575800D01*
X56285803D02*
X56963300D01*
X54898297Y11031901D02*
X55575800D01*
X56285803D02*
X56963300D01*
Y18736899D01*
X54898297Y11031901D02*
Y18736899D01*
X55530798Y19109399D02*
Y19209399D01*
X55480798Y10559400D02*
Y10659400D01*
X55430798Y10609402D02*
X55530798D01*
X52636798Y10622102D02*
X52736798D01*
X52686798Y10572100D02*
Y10672100D01*
X52736798Y19122099D02*
Y19222099D01*
X52104303Y11044601D02*
Y18749599D01*
X54169299Y11044601D02*
Y18749599D01*
X53491803Y11044601D02*
X54169299D01*
X52104303D02*
X52781799D01*
X53491803Y18749599D02*
X54169299D01*
X52104303D02*
X52781799D01*
X52316504Y9258000D02*
X53474500D01*
X52316504Y8268000D02*
Y9258000D01*
Y8268000D02*
X53474500D01*
Y9258000D01*
X60537097Y18686099D02*
X61214600D01*
X61924603D02*
X62602100D01*
X60537097Y10981101D02*
X61214600D01*
X61924603D02*
X62602100D01*
Y18686099D01*
X60537097Y10981101D02*
Y18686099D01*
X61169598Y19058600D02*
Y19158600D01*
X61119598Y10508600D02*
Y10608600D01*
X61069598Y10558602D02*
X61169598D01*
X57754401Y21310899D02*
Y22300900D01*
X56596405Y21310899D02*
X57754401D01*
X56596405D02*
Y22300900D01*
X57754401D01*
X51417004Y9207500D02*
Y10223500D01*
X50392001Y9207500D02*
Y10223500D01*
X51417004D01*
X50392001Y9207500D02*
X51417004D01*
X50380899Y16410899D02*
Y16855399D01*
Y16410899D02*
X51396899D01*
Y16855399D01*
X50380899D02*
X51396899D01*
X61269501Y20241901D02*
X61285498D01*
X61269501Y20321899D02*
X61285498D01*
X61869299Y19554201D02*
Y19714200D01*
X61549298Y19554201D02*
Y19714200D01*
X58884802Y19566901D02*
Y19726900D01*
X58564801Y19566901D02*
Y19726900D01*
X58297699Y20191100D02*
X58313702D01*
X58297699Y20271100D02*
X58313702D01*
X56621301Y19987900D02*
X56637299D01*
X56621301Y20067900D02*
X56637299D01*
X55757697Y20064101D02*
X55773700D01*
X55757697Y20144099D02*
X55773700D01*
X56198999Y19566901D02*
Y19726900D01*
X55878998Y19566901D02*
Y19726900D01*
X54932196Y19733900D02*
X54948199D01*
X54932196Y19813901D02*
X54948199D01*
X53751099Y20686400D02*
X53767102D01*
X53751099Y20766400D02*
X53767102D01*
X53763800Y20067900D02*
X53779803D01*
X53763800Y19987900D02*
X53779803D01*
X53360303Y19566901D02*
Y19726900D01*
X53040302Y19566901D02*
Y19726900D01*
X49047598Y16828902D02*
X49147598Y16928902D01*
X49047598Y16268898D02*
Y16828902D01*
X49707602Y16268898D02*
Y16828902D01*
X49607602Y16928902D02*
X49707602Y16828902D01*
X49569598Y16928902D02*
X49607602D01*
X49147598D02*
X49185602D01*
X49569598Y16268898D02*
X49707602D01*
X49047598D02*
X49185602D01*
X49923700Y13631001D02*
Y14027998D01*
Y14928001D02*
Y15324998D01*
X50188699Y14027998D02*
Y14928001D01*
X49923700Y14027998D02*
X50188699D01*
X49658701D02*
X49923700D01*
X49658701D02*
Y14928001D01*
X49923700D01*
X50188699D01*
X51120599Y18233099D02*
X51270599Y18083098D01*
X50440601Y18233099D02*
X51120599D01*
X50440601Y17403101D02*
X51120599D01*
X51270599Y17553102D01*
Y17661102D01*
Y17975102D02*
Y18083098D01*
X50440601Y17403101D02*
Y17661102D01*
Y17975102D02*
Y18233099D01*
X60697998Y19657700D02*
X60714001D01*
X60697998Y19737700D02*
X60714001D01*
X62111401Y20076801D02*
X62127399D01*
X62111401Y20156799D02*
X62127399D01*
X62107697Y20775301D02*
X62123700D01*
X62107697Y20855299D02*
X62123700D01*
X62469397Y20182500D02*
Y20203500D01*
X62549402Y20182500D02*
Y20203500D01*
X62456702Y20881000D02*
Y20902000D01*
X62536700Y20881000D02*
Y20902000D01*
X57751599Y19670399D02*
X57767603D01*
X57751599Y19750400D02*
X57767603D01*
X59262897Y19987900D02*
X59278900D01*
X59262897Y20067900D02*
X59278900D01*
X59262897Y20686400D02*
X59278900D01*
X59262897Y20766400D02*
X59278900D01*
X59599200Y20093600D02*
Y20114600D01*
X59679199Y20093600D02*
Y20114600D01*
X59573798Y20804800D02*
Y20825800D01*
X59653802Y20804800D02*
Y20825800D01*
X56633997Y20711800D02*
X56650000D01*
X56633997Y20791800D02*
X56650000D01*
X56970300Y20131700D02*
Y20152699D01*
X57050299Y20131700D02*
Y20152699D01*
X56957599Y20817500D02*
Y20838499D01*
X57037598Y20817500D02*
Y20838499D01*
X52798596Y20080600D02*
X52814600D01*
X52798596Y20000600D02*
X52814600D01*
X54100098Y20093600D02*
Y20114600D01*
X54180103Y20093600D02*
Y20114600D01*
X54100098Y20779401D02*
Y20800400D01*
X54180103Y20779401D02*
Y20800400D01*
X56692798Y22466283D02*
Y22415500D01*
X56718195D01*
X56726654Y22423964D01*
Y22432428D01*
X56718195Y22440892D01*
X56692798D01*
X56718195D01*
X56726654Y22449356D01*
Y22457820D01*
X56718195Y22466283D01*
X56692798D01*
X56752051Y22449356D02*
X56768976D01*
X56777441Y22440892D01*
Y22415500D01*
X56752051D01*
X56743585Y22423964D01*
X56752051Y22432428D01*
X56777441D01*
X56802832Y22457820D02*
Y22449356D01*
X56794366D01*
X56811298D01*
X56802832D01*
Y22423964D01*
X56811298Y22415500D01*
X56862079D02*
Y22466283D01*
X56836688Y22440892D01*
X56870544D01*
X56946802Y22466283D02*
Y22415500D01*
X56972192D01*
X56980658Y22423964D01*
Y22432428D01*
X56972192Y22440892D01*
X56946802D01*
X56972192D01*
X56980658Y22449356D01*
Y22457820D01*
X56972192Y22466283D01*
X56946802D01*
X57006049Y22449356D02*
X57022974D01*
X57031439Y22440892D01*
Y22415500D01*
X57006049D01*
X56997583Y22423964D01*
X57006049Y22432428D01*
X57031439D01*
X57056830Y22457820D02*
Y22449356D01*
X57048364D01*
X57065295D01*
X57056830D01*
Y22423964D01*
X57065295Y22415500D01*
X57090686Y22457820D02*
X57099152Y22466283D01*
X57116077D01*
X57124542Y22457820D01*
Y22449356D01*
X57116077Y22440892D01*
X57107617D01*
X57116077D01*
X57124542Y22432428D01*
Y22423964D01*
X57116077Y22415500D01*
X57099152D01*
X57090686Y22423964D01*
X57213501Y22466283D02*
Y22415500D01*
X57238892D01*
X57247357Y22423964D01*
Y22432428D01*
X57238892Y22440892D01*
X57213501D01*
X57238892D01*
X57247357Y22449356D01*
Y22457820D01*
X57238892Y22466283D01*
X57213501D01*
X57272748Y22449356D02*
X57289673D01*
X57298138Y22440892D01*
Y22415500D01*
X57272748D01*
X57264282Y22423964D01*
X57272748Y22432428D01*
X57298138D01*
X57323529Y22457820D02*
Y22449356D01*
X57315070D01*
X57331995D01*
X57323529D01*
Y22423964D01*
X57331995Y22415500D01*
X57391241D02*
X57357385D01*
X57391241Y22449356D01*
Y22457820D01*
X57382782Y22466283D01*
X57365851D01*
X57357385Y22457820D01*
X57480200Y22466283D02*
Y22415500D01*
X57505591D01*
X57514056Y22423964D01*
Y22432428D01*
X57505591Y22440892D01*
X57480200D01*
X57505591D01*
X57514056Y22449356D01*
Y22457820D01*
X57505591Y22466283D01*
X57480200D01*
X57539447Y22449356D02*
X57556372D01*
X57564838Y22440892D01*
Y22415500D01*
X57539447D01*
X57530981Y22423964D01*
X57539447Y22432428D01*
X57564838D01*
X57590228Y22457820D02*
Y22449356D01*
X57581769D01*
X57598694D01*
X57590228D01*
Y22423964D01*
X57598694Y22415500D01*
X57624084D02*
X57641016D01*
X57632550D01*
Y22466283D01*
X57624084Y22457820D01*
X52933600Y8204183D02*
Y8153400D01*
X52958990D01*
X52967456Y8161864D01*
Y8170328D01*
X52958990Y8178792D01*
X52933600D01*
X52958990D01*
X52967456Y8187256D01*
Y8195720D01*
X52958990Y8204183D01*
X52933600D01*
X52992847Y8187256D02*
X53009778D01*
X53018237Y8178792D01*
Y8153400D01*
X52992847D01*
X52984381Y8161864D01*
X52992847Y8170328D01*
X53018237D01*
X53043634Y8195720D02*
Y8187256D01*
X53035168D01*
X53052094D01*
X53043634D01*
Y8161864D01*
X53052094Y8153400D01*
X53111340D02*
X53077484D01*
X53111340Y8187256D01*
Y8195720D01*
X53102881Y8204183D01*
X53085950D01*
X53077484Y8195720D01*
X52400201Y8204183D02*
Y8153400D01*
X52425592D01*
X52434058Y8161864D01*
Y8170328D01*
X52425592Y8178792D01*
X52400201D01*
X52425592D01*
X52434058Y8187256D01*
Y8195720D01*
X52425592Y8204183D01*
X52400201D01*
X52459448Y8187256D02*
X52476373D01*
X52484839Y8178792D01*
Y8153400D01*
X52459448D01*
X52450983Y8161864D01*
X52459448Y8170328D01*
X52484839D01*
X52510229Y8195720D02*
Y8187256D01*
X52501770D01*
X52518695D01*
X52510229D01*
Y8161864D01*
X52518695Y8153400D01*
X52569476D02*
Y8204183D01*
X52544086Y8178792D01*
X52577942D01*
X52666901Y8204183D02*
Y8153400D01*
X52692291D01*
X52700757Y8161864D01*
Y8170328D01*
X52692291Y8178792D01*
X52666901D01*
X52692291D01*
X52700757Y8187256D01*
Y8195720D01*
X52692291Y8204183D01*
X52666901D01*
X52726147Y8187256D02*
X52743073D01*
X52751538Y8178792D01*
Y8153400D01*
X52726147D01*
X52717682Y8161864D01*
X52726147Y8170328D01*
X52751538D01*
X52776929Y8195720D02*
Y8187256D01*
X52768469D01*
X52785394D01*
X52776929D01*
Y8161864D01*
X52785394Y8153400D01*
X52810785Y8195720D02*
X52819250Y8204183D01*
X52836182D01*
X52844641Y8195720D01*
Y8187256D01*
X52836182Y8178792D01*
X52827716D01*
X52836182D01*
X52844641Y8170328D01*
Y8161864D01*
X52836182Y8153400D01*
X52819250D01*
X52810785Y8161864D01*
X53200299Y8204183D02*
Y8153400D01*
X53225690D01*
X53234155Y8161864D01*
Y8170328D01*
X53225690Y8178792D01*
X53200299D01*
X53225690D01*
X53234155Y8187256D01*
Y8195720D01*
X53225690Y8204183D01*
X53200299D01*
X53259546Y8187256D02*
X53276477D01*
X53284937Y8178792D01*
Y8153400D01*
X53259546D01*
X53251080Y8161864D01*
X53259546Y8170328D01*
X53284937D01*
X53310333Y8195720D02*
Y8187256D01*
X53301868D01*
X53318793D01*
X53310333D01*
Y8161864D01*
X53318793Y8153400D01*
X53344189D02*
X53361115D01*
X53352649D01*
Y8204183D01*
X53344189Y8195720D01*
D46*
X61325763Y8633460D02*
Y9387840D01*
X62062360D01*
Y8633460D02*
Y9387840D01*
X61325763Y8633460D02*
X62062360D01*
D47*
X59715332Y10668024D02*
Y10820375D01*
X59639160D01*
X59613770Y10794983D01*
Y10769591D01*
X59639160Y10744199D01*
X59715332D01*
X59639160D01*
X59613770Y10718808D01*
Y10693416D01*
X59639160Y10668024D01*
X59715332D01*
X59562982D02*
X59461414D01*
X59512201D01*
Y10820375D01*
X59309064D02*
X59410632D01*
X59309064Y10718808D01*
Y10693416D01*
X59334454Y10668024D01*
X59385242D01*
X59410632Y10693416D01*
X61150531Y21259775D02*
Y21132817D01*
X61175928Y21107425D01*
X61226709D01*
X61252100Y21132817D01*
Y21259775D01*
X61302887Y21107425D02*
X61353668D01*
X61328278D01*
Y21259775D01*
X61302887Y21234383D01*
X58026300Y21186092D02*
Y21059132D01*
X58051691Y21033740D01*
X58102478D01*
X58127869Y21059132D01*
Y21186092D01*
X58178650Y21160699D02*
X58204041Y21186092D01*
X58254828D01*
X58280219Y21160699D01*
Y21135307D01*
X58254828Y21109915D01*
X58229431D01*
X58254828D01*
X58280219Y21084523D01*
Y21059132D01*
X58254828Y21033740D01*
X58204041D01*
X58178650Y21059132D01*
X55740338Y21183575D02*
Y21056618D01*
X55765735Y21031226D01*
X55816516D01*
X55841907Y21056618D01*
Y21183575D01*
X55994257D02*
X55892694D01*
Y21107401D01*
X55943475Y21132793D01*
X55968866D01*
X55994257Y21107401D01*
Y21056618D01*
X55968866Y21031226D01*
X55918085D01*
X55892694Y21056618D01*
X52959039Y21208975D02*
Y21082018D01*
X52984436Y21056625D01*
X53035217D01*
X53060608Y21082018D01*
Y21208975D01*
X53111389D02*
X53212958D01*
Y21183583D01*
X53111389Y21082018D01*
Y21056625D01*
X60683142Y20947380D02*
Y21099731D01*
X60759314D01*
X60784705Y21074339D01*
Y21023555D01*
X60759314Y20998163D01*
X60683142D01*
X60733923D02*
X60784705Y20947380D01*
X60937061Y21099731D02*
X60835492D01*
Y21023555D01*
X60886273Y21048947D01*
X60911664D01*
X60937061Y21023555D01*
Y20972772D01*
X60911664Y20947380D01*
X60860883D01*
X60835492Y20972772D01*
X57543762Y20967725D02*
Y21120074D01*
X57619934D01*
X57645331Y21094682D01*
Y21043900D01*
X57619934Y21018507D01*
X57543762D01*
X57594543D02*
X57645331Y20967725D01*
X57696112D02*
X57746893D01*
X57721503D01*
Y21120074D01*
X57696112Y21094682D01*
X57823071D02*
X57848462Y21120074D01*
X57899249D01*
X57924640Y21094682D01*
Y20993117D01*
X57899249Y20967725D01*
X57848462D01*
X57823071Y20993117D01*
Y21094682D01*
X55067261Y20955025D02*
Y21107375D01*
X55143439D01*
X55168829Y21081982D01*
Y21031200D01*
X55143439Y21005807D01*
X55067261D01*
X55118042D02*
X55168829Y20955025D01*
X55219611D02*
X55270398D01*
X55245001D01*
Y21107375D01*
X55219611Y21081982D01*
X55448138Y21107375D02*
X55346570D01*
Y21031200D01*
X55397357Y21056592D01*
X55422748D01*
X55448138Y21031200D01*
Y20980417D01*
X55422748Y20955025D01*
X55371960D01*
X55346570Y20980417D01*
X52082764Y20942325D02*
Y21094675D01*
X52158942D01*
X52184332Y21069283D01*
Y21018500D01*
X52158942Y20993108D01*
X52082764D01*
X52133551D02*
X52184332Y20942325D01*
X52336682D02*
X52235120D01*
X52336682Y21043892D01*
Y21069283D01*
X52311292Y21094675D01*
X52260510D01*
X52235120Y21069283D01*
X52387469D02*
X52412860Y21094675D01*
X52463641D01*
X52489032Y21069283D01*
Y20967717D01*
X52463641Y20942325D01*
X52412860D01*
X52387469Y20967717D01*
Y21069283D01*
X50505328Y12854890D02*
X50454544D01*
X50479935D01*
Y12727932D01*
X50454544Y12702540D01*
X50429153D01*
X50403760Y12727932D01*
X50657678Y12702540D02*
X50556110D01*
X50657678Y12804108D01*
Y12829498D01*
X50632285Y12854890D01*
X50581503D01*
X50556110Y12829498D01*
X48696265Y18482712D02*
X48730121D01*
X48713193D01*
Y18381145D01*
X48696265D01*
X48730121D01*
X48780905D02*
Y18448856D01*
X48831689D01*
X48848615Y18431927D01*
Y18381145D01*
X48882471Y18347289D02*
Y18448856D01*
X48933255D01*
X48950183Y18431927D01*
Y18398071D01*
X48933255Y18381145D01*
X48882471D01*
X48984039Y18448856D02*
Y18398071D01*
X49000967Y18381145D01*
X49051752D01*
Y18448856D01*
X49102536Y18465784D02*
Y18448856D01*
X49085608D01*
X49119461D01*
X49102536D01*
Y18398071D01*
X49119461Y18381145D01*
X49271814Y18465784D02*
X49288742Y18482712D01*
X49322598D01*
X49339526Y18465784D01*
Y18448856D01*
X49322598Y18431927D01*
X49305670D01*
X49322598D01*
X49339526Y18414999D01*
Y18398071D01*
X49322598Y18381145D01*
X49288742D01*
X49271814Y18398071D01*
X49441092Y18482712D02*
X49407236Y18465784D01*
X49373380Y18431927D01*
Y18398071D01*
X49390308Y18381145D01*
X49424164D01*
X49441092Y18398071D01*
Y18414999D01*
X49424164Y18431927D01*
X49373380D01*
X49474948D02*
X49542661D01*
X49576514Y18381145D02*
X49610370D01*
X49593442D01*
Y18482712D01*
X49576514Y18465784D01*
X49728867Y18381145D02*
X49661154D01*
X49728867Y18448856D01*
Y18465784D01*
X49711938Y18482712D01*
X49678082D01*
X49661154Y18465784D01*
X49762723Y18482712D02*
Y18414999D01*
X49796576Y18381145D01*
X49830432Y18414999D01*
Y18482712D01*
X49965857Y18465784D02*
X49982785Y18482712D01*
X50016641D01*
X50033566Y18465784D01*
Y18448856D01*
X50016641Y18431927D01*
X49999713D01*
X50016641D01*
X50033566Y18414999D01*
Y18398071D01*
X50016641Y18381145D01*
X49982785D01*
X49965857Y18398071D01*
X50067422Y18381145D02*
Y18448856D01*
X50101279Y18482712D01*
X50135135Y18448856D01*
Y18381145D01*
Y18431927D01*
X50067422D01*
X62877905Y15557484D02*
X62844049D01*
X62827124Y15540556D01*
Y15472844D01*
X62844049Y15455917D01*
X62877905D01*
X62894830Y15472844D01*
Y15540556D01*
X62877905Y15557484D01*
X62928687D02*
Y15472844D01*
X62945618Y15455917D01*
X62979474D01*
X62996399Y15472844D01*
Y15557484D01*
X63030255D02*
X63097968D01*
X63064111D01*
Y15455917D01*
X63131824D02*
Y15557484D01*
X63182605D01*
X63199536Y15540556D01*
Y15506700D01*
X63182605Y15489772D01*
X63131824D01*
X63233392Y15557484D02*
Y15472844D01*
X63250317Y15455917D01*
X63284174D01*
X63301099Y15472844D01*
Y15557484D01*
X63334955D02*
X63402667D01*
X63368811D01*
Y15455917D01*
X63588873D02*
Y15557484D01*
X63538092Y15506700D01*
X63605804D01*
X63639661Y15455917D02*
Y15472844D01*
X63656586D01*
Y15455917D01*
X63639661D01*
X63724298Y15540556D02*
X63741223Y15557484D01*
X63775079D01*
X63792010Y15540556D01*
Y15523628D01*
X63775079Y15506700D01*
X63758154D01*
X63775079D01*
X63792010Y15489772D01*
Y15472844D01*
X63775079Y15455917D01*
X63741223D01*
X63724298Y15472844D01*
X63825867Y15557484D02*
Y15489772D01*
X63859723Y15455917D01*
X63893579Y15489772D01*
Y15557484D01*
X64096710Y15455917D02*
X64028998D01*
X64096710Y15523628D01*
Y15540556D01*
X64079785Y15557484D01*
X64045929D01*
X64028998Y15540556D01*
X64130566Y15455917D02*
Y15523628D01*
X64164423Y15557484D01*
X64198279Y15523628D01*
Y15455917D01*
Y15506700D01*
X64130566D01*
X56857837Y10795024D02*
Y10947375D01*
X56781659D01*
X56756268Y10921983D01*
Y10896591D01*
X56781659Y10871199D01*
X56857837D01*
X56781659D01*
X56756268Y10845808D01*
Y10820416D01*
X56781659Y10795024D01*
X56857837D01*
X56705481D02*
X56603918D01*
X56654700D01*
Y10947375D01*
X56553131Y10820416D02*
X56527740Y10795024D01*
X56476959D01*
X56451569Y10820416D01*
Y10845808D01*
X56476959Y10871199D01*
X56502350D01*
X56476959D01*
X56451569Y10896591D01*
Y10921983D01*
X56476959Y10947375D01*
X56527740D01*
X56553131Y10921983D01*
X55844440Y9819591D02*
Y9667240D01*
X55920618D01*
X55946008Y9692632D01*
Y9794199D01*
X55920618Y9819591D01*
X55844440D01*
X55996790Y9667240D02*
X56047577D01*
X56022180D01*
Y9819591D01*
X55996790Y9794199D01*
X56225317Y9667240D02*
X56123749D01*
X56225317Y9768807D01*
Y9794199D01*
X56199927Y9819591D01*
X56149139D01*
X56123749Y9794199D01*
X54165436Y10718824D02*
Y10871175D01*
X54089258D01*
X54063867Y10845783D01*
Y10820391D01*
X54089258Y10794999D01*
X54165436D01*
X54089258D01*
X54063867Y10769608D01*
Y10744216D01*
X54089258Y10718824D01*
X54165436D01*
X54013086D02*
X53911517D01*
X53962299D01*
Y10871175D01*
X53784558D02*
Y10718824D01*
X53860730Y10794999D01*
X53759167D01*
X62522040Y10642624D02*
Y10794975D01*
X62445868D01*
X62420477Y10769583D01*
Y10744191D01*
X62445868Y10718799D01*
X62522040D01*
X62445868D01*
X62420477Y10693408D01*
Y10668016D01*
X62445868Y10642624D01*
X62522040D01*
X62369690D02*
X62268121D01*
X62318909D01*
Y10794975D01*
X62217340D02*
X62166559D01*
X62191949D01*
Y10642624D01*
X62217340Y10668016D01*
X56413416Y21247279D02*
X56396490Y21230351D01*
Y21196497D01*
X56413416Y21179568D01*
X56481128D01*
X56498053Y21196497D01*
Y21230351D01*
X56481128Y21247279D01*
X56396490Y21281136D02*
X56498053D01*
X56447272D01*
X56430347Y21298064D01*
Y21331918D01*
X56447272Y21348846D01*
X56498053D01*
X56430347Y21399631D02*
Y21433487D01*
X56447272Y21450415D01*
X56498053D01*
Y21399631D01*
X56481128Y21382703D01*
X56464203Y21399631D01*
Y21450415D01*
X56430347Y21484270D02*
X56498053D01*
X56464203D01*
X56447272Y21501198D01*
X56430347Y21518126D01*
Y21535054D01*
X56531909Y21619693D02*
Y21636621D01*
X56514984Y21653549D01*
X56430347D01*
Y21602766D01*
X56447272Y21585838D01*
X56481128D01*
X56498053Y21602766D01*
Y21653549D01*
Y21738188D02*
Y21704333D01*
X56481128Y21687405D01*
X56447272D01*
X56430347Y21704333D01*
Y21738188D01*
X56447272Y21755116D01*
X56464203D01*
Y21687405D01*
X56413416Y21958250D02*
X56396490Y21941322D01*
Y21907468D01*
X56413416Y21890540D01*
X56430347D01*
X56447272Y21907468D01*
Y21941322D01*
X56464203Y21958250D01*
X56481128D01*
X56498053Y21941322D01*
Y21907468D01*
X56481128Y21890540D01*
X56430347Y21992107D02*
X56481128D01*
X56498053Y22009035D01*
X56481128Y22025961D01*
X56498053Y22042889D01*
X56481128Y22059818D01*
X56430347D01*
X56498053Y22093674D02*
Y22127530D01*
Y22110602D01*
X56430347D01*
Y22093674D01*
X56413416Y22195241D02*
X56430347D01*
Y22178313D01*
Y22212169D01*
Y22195241D01*
X56481128D01*
X56498053Y22212169D01*
X56430347Y22330664D02*
Y22279881D01*
X56447272Y22262953D01*
X56481128D01*
X56498053Y22279881D01*
Y22330664D01*
X56396490Y22364520D02*
X56498053D01*
X56447272D01*
X56430347Y22381448D01*
Y22415303D01*
X56447272Y22432231D01*
X56498053D01*
X49657416Y10540967D02*
X49606631D01*
X49581241Y10515575D01*
Y10414008D01*
X49606631Y10388617D01*
X49657416D01*
X49682806Y10414008D01*
Y10515575D01*
X49657416Y10540967D01*
X49733591Y10490184D02*
Y10414008D01*
X49758981Y10388617D01*
X49835159D01*
Y10490184D01*
X49911334Y10515575D02*
Y10490184D01*
X49885941D01*
X49936725D01*
X49911334D01*
Y10414008D01*
X49936725Y10388617D01*
X50012900Y10337833D02*
Y10490184D01*
X50089075D01*
X50114468Y10464792D01*
Y10414008D01*
X50089075Y10388617D01*
X50012900D01*
X50165250Y10490184D02*
Y10414008D01*
X50190643Y10388617D01*
X50266818D01*
Y10490184D01*
X50342993Y10515575D02*
Y10490184D01*
X50317599D01*
X50368384D01*
X50342993D01*
Y10414008D01*
X50368384Y10388617D01*
X50596912Y10515575D02*
X50622302Y10540967D01*
X50673087D01*
X50698477Y10515575D01*
Y10490184D01*
X50673087Y10464792D01*
X50647693D01*
X50673087D01*
X50698477Y10439400D01*
Y10414008D01*
X50673087Y10388617D01*
X50622302D01*
X50596912Y10414008D01*
X50749261Y10388617D02*
Y10414008D01*
X50774655D01*
Y10388617D01*
X50749261D01*
X50876221Y10540967D02*
X50977789D01*
Y10515575D01*
X50876221Y10414008D01*
Y10388617D01*
X51028571Y10464792D02*
X51130139D01*
X51180923Y10388617D02*
X51231708D01*
X51206311D01*
Y10540967D01*
X51180923Y10515575D01*
X51409448Y10540967D02*
X51307880D01*
Y10464792D01*
X51358667Y10490184D01*
X51384058D01*
X51409448Y10464792D01*
Y10414008D01*
X51384058Y10388617D01*
X51333270D01*
X51307880Y10414008D01*
X51460229Y10540967D02*
Y10439400D01*
X51511017Y10388617D01*
X51561798Y10439400D01*
Y10540967D01*
X51764935Y10515575D02*
X51790326Y10540967D01*
X51841107D01*
X51866498Y10515575D01*
Y10414008D01*
X51841107Y10388617D01*
X51790326D01*
X51764935Y10414008D01*
Y10515575D01*
X51917285Y10388617D02*
Y10414008D01*
X51942676D01*
Y10388617D01*
X51917285D01*
X52145813Y10540967D02*
X52044244D01*
Y10464792D01*
X52095026Y10490184D01*
X52120416D01*
X52145813Y10464792D01*
Y10414008D01*
X52120416Y10388617D01*
X52069635D01*
X52044244Y10414008D01*
X52196594Y10388617D02*
Y10490184D01*
X52247375Y10540967D01*
X52298163Y10490184D01*
Y10388617D01*
Y10464792D01*
X52196594D01*
X60794867Y20584119D02*
X60769476Y20609511D01*
X60718689D01*
X60693298Y20584119D01*
Y20482552D01*
X60718689Y20457159D01*
X60769476D01*
X60794867Y20482552D01*
X60845648Y20457159D02*
X60896436D01*
X60871045D01*
Y20609511D01*
X60845648Y20584119D01*
X61747418Y20218408D02*
X61722028Y20193018D01*
Y20142233D01*
X61747418Y20116841D01*
X61848981D01*
X61874377Y20142233D01*
Y20193018D01*
X61848981Y20218408D01*
X61874377Y20370760D02*
Y20269193D01*
X61772809Y20370760D01*
X61747418D01*
X61722028Y20345367D01*
Y20294585D01*
X61747418Y20269193D01*
X57594519Y20332709D02*
X57569122Y20307317D01*
Y20256532D01*
X57594519Y20231142D01*
X57696082D01*
X57721472Y20256532D01*
Y20307317D01*
X57696082Y20332709D01*
X57594519Y20383492D02*
X57569122Y20408884D01*
Y20459666D01*
X57594519Y20485059D01*
X57619910D01*
X57645300Y20459666D01*
Y20434274D01*
Y20459666D01*
X57670691Y20485059D01*
X57696082D01*
X57721472Y20459666D01*
Y20408884D01*
X57696082Y20383492D01*
X58559717Y20256508D02*
X58534326Y20231117D01*
Y20180333D01*
X58559717Y20154941D01*
X58661285D01*
X58686676Y20180333D01*
Y20231117D01*
X58661285Y20256508D01*
X58686676Y20383467D02*
X58534326D01*
X58610498Y20307292D01*
Y20408859D01*
X54965607Y20408884D02*
X54940216Y20434274D01*
X54889435D01*
X54864038Y20408884D01*
Y20307317D01*
X54889435Y20281924D01*
X54940216D01*
X54965607Y20307317D01*
X55117957Y20434274D02*
X55016394D01*
Y20358099D01*
X55067175Y20383492D01*
X55092566D01*
X55117957Y20358099D01*
Y20307317D01*
X55092566Y20281924D01*
X55041785D01*
X55016394Y20307317D01*
X56286420Y20129507D02*
X56261023Y20104117D01*
Y20053333D01*
X56286420Y20027940D01*
X56387982D01*
X56413373Y20053333D01*
Y20104117D01*
X56387982Y20129507D01*
X56261023Y20281859D02*
X56286420Y20231075D01*
X56337201Y20180292D01*
X56387982D01*
X56413373Y20205684D01*
Y20256467D01*
X56387982Y20281859D01*
X56362592D01*
X56337201Y20256467D01*
Y20180292D01*
X52209717Y20624808D02*
X52184326Y20599417D01*
Y20548633D01*
X52209717Y20523241D01*
X52311285D01*
X52336676Y20548633D01*
Y20599417D01*
X52311285Y20624808D01*
X52184326Y20675592D02*
Y20777159D01*
X52209717D01*
X52311285Y20675592D01*
X52336676D01*
X53403510Y20383482D02*
X53378119Y20408875D01*
X53327332D01*
X53301941Y20383482D01*
Y20281917D01*
X53327332Y20256525D01*
X53378119D01*
X53403510Y20281917D01*
X53454291Y20383482D02*
X53479681Y20408875D01*
X53530469D01*
X53555859Y20383482D01*
Y20358092D01*
X53530469Y20332700D01*
X53555859Y20307307D01*
Y20281917D01*
X53530469Y20256525D01*
X53479681D01*
X53454291Y20281917D01*
Y20307307D01*
X53479681Y20332700D01*
X53454291Y20358092D01*
Y20383482D01*
X53479681Y20332700D02*
X53530469D01*
X57431940Y9819591D02*
Y9667240D01*
X57508118D01*
X57533508Y9692632D01*
Y9794199D01*
X57508118Y9819591D01*
X57431940D01*
X57584290Y9667240D02*
X57635077D01*
X57609680D01*
Y9819591D01*
X57584290Y9794199D01*
X57711249D02*
X57736639Y9819591D01*
X57787427D01*
X57812817Y9794199D01*
Y9692632D01*
X57787427Y9667240D01*
X57736639D01*
X57711249Y9692632D01*
Y9794199D01*
X53939441Y9844991D02*
Y9692640D01*
X54015613D01*
X54041010Y9718032D01*
Y9819599D01*
X54015613Y9844991D01*
X53939441D01*
X54091791Y9692640D02*
X54142572D01*
X54117181D01*
Y9844991D01*
X54091791Y9819599D01*
X54218750Y9692640D02*
X54269531D01*
X54244141D01*
Y9844991D01*
X54218750Y9819599D01*
X50637439Y15811452D02*
Y15659100D01*
X50739008D01*
X50789792D02*
X50840573D01*
X50815182D01*
Y15811452D01*
X50789792Y15786060D01*
X49467816Y19338605D02*
Y19374513D01*
X49503726Y19410423D01*
X49539636D01*
X49557590Y19392468D01*
Y19356560D01*
X49539636Y19338605D01*
X49557590Y19356560D01*
X49593500D01*
X49611453Y19338605D01*
Y19302695D01*
X49575546Y19266785D01*
X49539636D01*
X49665320Y19356560D02*
X49647363Y19374513D01*
X49665320Y19392468D01*
X49683273Y19374513D01*
X49665320Y19356560D01*
X49647363Y19554060D02*
X49719183Y19625879D01*
X49737137Y19607924D01*
Y19464287D01*
X49755093Y19446332D01*
X49808957Y19607924D02*
X49880774Y19679742D01*
X49970547Y19661789D02*
X50006458Y19697697D01*
X49988504Y19679742D01*
X49880774Y19787471D01*
Y19751562D01*
X50024414Y19931110D02*
X49952594Y19859290D01*
X50006458Y19805426D01*
X50024414Y19859290D01*
X50042368Y19877245D01*
X50078278D01*
X50114185Y19841336D01*
Y19805426D01*
X50078278Y19769518D01*
X50042368D01*
X50060321Y19967018D02*
X50132141Y19895200D01*
X50203961D01*
Y19967018D01*
X50132141Y20038837D01*
X50293732Y20164520D02*
Y20200430D01*
X50329642Y20236339D01*
X50365552D01*
X50437372Y20164520D01*
Y20128612D01*
X50401462Y20092702D01*
X50365552D01*
X50293732Y20164520D01*
X50491235Y20182475D02*
X50473279Y20200430D01*
X50491235Y20218385D01*
X50509189Y20200430D01*
X50491235Y20182475D01*
Y20362022D02*
Y20397932D01*
X50527145Y20433841D01*
X50563055D01*
X50581009Y20415886D01*
Y20379977D01*
X50616919D01*
X50634872Y20362022D01*
Y20326112D01*
X50598962Y20290202D01*
X50563055D01*
X50545099Y20308157D01*
Y20344067D01*
X50509189D01*
X50491235Y20362022D01*
X50545099Y20344067D02*
X50581009Y20379977D01*
X50688736D02*
X50616919Y20451796D01*
Y20523615D01*
X50688736Y20523615D01*
X50760556Y20451796D01*
X50706693Y20505659D01*
X50634872Y20433841D01*
X50904193Y20595433D02*
X50796466Y20703162D01*
X50850330Y20757027D01*
X50886240D01*
X50922147Y20721117D01*
Y20685207D01*
X50868283Y20631343D01*
X51029877Y20721117D02*
X51065787Y20757027D01*
Y20792935D01*
X51029877Y20828844D01*
X50993967D01*
X50958057Y20792935D01*
Y20757027D01*
X50993967Y20721117D01*
X51029877D01*
X51047830Y20882709D02*
X51101694Y20828844D01*
X51137604D01*
Y20864754D01*
X51173514D01*
Y20900664D01*
X51119650Y20954527D01*
X51281244Y20972482D02*
X51245331Y20936572D01*
X51209424D01*
X51173514Y20972482D01*
Y21008392D01*
X51209424Y21044301D01*
X51245331D01*
X51263287Y21026346D01*
X51191470Y20954527D01*
X51263287Y21098164D02*
X51335107Y21026346D01*
X51299194Y21062254D01*
Y21098164D01*
X51299194Y21134074D01*
X51317151Y21152029D01*
X51532605Y21403395D02*
X51496698D01*
X51460791Y21367487D01*
Y21331577D01*
X51478741Y21313622D01*
X51514655D01*
X51550562Y21349532D01*
X51586475D01*
X51604425Y21331577D01*
Y21295667D01*
X51568518Y21259756D01*
X51532605D01*
X51586475Y21421350D02*
X51640338Y21367487D01*
X51676245D01*
X51730109Y21421350D01*
X51658289Y21493169D01*
X51801929Y21421350D02*
X51694202Y21529079D01*
X51748065Y21582942D01*
X51783972D01*
X51819885Y21547034D01*
Y21511124D01*
X51766022Y21457259D01*
X51909656Y21529079D02*
X51801929Y21636806D01*
X51855792Y21690669D01*
X51891699D01*
X51927612Y21654761D01*
Y21618851D01*
X51873749Y21564987D01*
X51981476Y21672716D02*
X52017383Y21708624D01*
X51999432Y21690669D01*
X51891699Y21798398D01*
X51873749Y21780444D01*
X51999432Y21834308D02*
X52053296Y21780444D01*
X52089203D01*
X52143066Y21834308D01*
X52161023Y21816353D01*
X52161023Y21780444D01*
X52143066Y21762489D01*
X52143066Y21834308D02*
X52071246Y21906126D01*
X49649554Y19886894D02*
X49541827Y19994623D01*
Y19886894D01*
X49613647Y19958713D01*
X49703418Y19940759D02*
X49685464Y19958713D01*
X49703418Y19976668D01*
X49721375Y19958713D01*
X49703418Y19940759D01*
Y20120306D02*
Y20156215D01*
X49739328Y20192123D01*
X49775238D01*
X49793192Y20174170D01*
Y20138260D01*
X49775238Y20120306D01*
X49793192Y20138260D01*
X49829102D01*
X49847058Y20120306D01*
Y20084396D01*
X49811148Y20048486D01*
X49775238D01*
X49793192Y20245988D02*
X49865012Y20174170D01*
X49936829D01*
X49936829Y20245988D01*
X49865012Y20317807D01*
X50188196Y20425536D02*
X50116376Y20353717D01*
Y20497354D01*
X50098422Y20515309D01*
X50062512D01*
X50026605Y20479401D01*
Y20443491D01*
X50224106Y20461446D02*
X50152286Y20533264D01*
Y20605083D01*
X50224106D01*
X50295923Y20533264D01*
X50242059Y20587128D01*
X50170242Y20515309D01*
X50439563Y20676901D02*
X50331833Y20784630D01*
X50385699Y20838493D01*
X50421606D01*
X50457516Y20802585D01*
Y20766675D01*
X50403653Y20712811D01*
X50565244Y20802585D02*
X50601154Y20838493D01*
Y20874403D01*
X50565244Y20910313D01*
X50529333D01*
X50493427Y20874403D01*
Y20838493D01*
X50529333Y20802585D01*
X50565244D01*
X50583200Y20964177D02*
X50637064Y20910313D01*
X50672974D01*
X50672974Y20946222D01*
X50708881D01*
Y20982132D01*
X50655017Y21035995D01*
X50816611Y21053951D02*
X50780701Y21018040D01*
X50744791D01*
X50708881Y21053951D01*
Y21089861D01*
X50744791Y21125769D01*
X50780701D01*
X50798657Y21107816D01*
X50726837Y21035995D01*
X50798657Y21179633D02*
X50870474Y21107816D01*
X50834564Y21143724D01*
Y21179633D01*
Y21215543D01*
X50852521Y21233498D01*
X51067978Y21484863D02*
X51032068D01*
X50996158Y21448953D01*
Y21413045D01*
X51014111Y21395090D01*
X51050021D01*
X51085931Y21431000D01*
X51121841D01*
X51139795Y21413045D01*
Y21377135D01*
X51103885Y21341226D01*
X51067975D01*
X51121841Y21502818D02*
X51175705Y21448953D01*
X51211615D01*
X51265479Y21502818D01*
X51193658Y21574637D01*
X51337299Y21502818D02*
X51229572Y21610545D01*
X51283435Y21664410D01*
X51319342D01*
X51355249Y21628500D01*
Y21592592D01*
X51301385Y21538727D01*
X51445026Y21610545D02*
X51337299Y21718275D01*
X51391162Y21772139D01*
X51427069D01*
X51462982Y21736229D01*
Y21700320D01*
X51409119Y21646455D01*
X51516846Y21754184D02*
X51552753Y21790092D01*
X51534796Y21772139D01*
X51427069Y21879868D01*
X51409119Y21861913D01*
X51534796Y21915776D02*
X51588666Y21861913D01*
X51624573D01*
X51678436Y21915776D01*
X51696393Y21897821D01*
Y21861913D01*
X51678436Y21843958D01*
Y21915776D02*
X51606616Y21987595D01*
X48976456Y19734494D02*
X48868726Y19842223D01*
Y19734494D01*
X48940546Y19806313D01*
X48976456Y19842223D02*
X49048273Y19914043D01*
X49120093Y20057680D02*
X49084183D01*
X49048273Y20021770D01*
Y19985860D01*
X49120093Y19914043D01*
X49156003D01*
X49191910Y19949951D01*
Y19985860D01*
X49299640Y20057680D02*
X49263730Y20021770D01*
X49227820D01*
X49191910Y20057680D01*
Y20093588D01*
X49227820Y20129498D01*
X49263730D01*
X49281686Y20111543D01*
X49209866Y20039725D01*
X49353503Y20111543D02*
X49389413Y20147453D01*
X49371460Y20129498D01*
X49263730Y20237225D01*
X49245776Y20219270D01*
X49443277Y20201317D02*
X49479187Y20237225D01*
X49461234Y20219270D01*
X49353503Y20327000D01*
X49335550Y20309045D01*
X49533051Y20506548D02*
X49640778Y20398817D01*
X49712598Y20470638D01*
X49748508Y20506548D02*
X49784415Y20542456D01*
X49766461Y20524501D01*
X49694644Y20596321D01*
X49676688Y20578366D01*
X49784415Y20650185D02*
X49856235Y20722003D01*
X49838281Y20811777D02*
X49874191Y20847685D01*
X49856235Y20829732D01*
X49963965Y20722003D01*
X49946008Y20704050D01*
X49981918Y20739958D01*
X50053738Y20811777D02*
X50089645Y20847685D01*
Y20883595D01*
X50053738Y20919505D01*
X50017828D01*
X49981918Y20883595D01*
Y20847685D01*
X50017828Y20811777D01*
X50053738D01*
X50143509Y20901550D02*
X50071692Y20973369D01*
X50125555Y21027232D01*
X50161465D01*
X50215329Y20973369D01*
X50358966Y21117007D02*
X50394876Y21152916D01*
X50376923Y21134961D01*
X50269193Y21242690D01*
Y21206779D01*
X50358966Y21296555D02*
Y21332463D01*
X50394876Y21368372D01*
X50430786D01*
X50448740Y21350418D01*
Y21314508D01*
X50484650D01*
X50502606Y21296555D01*
Y21260645D01*
X50466696Y21224734D01*
X50430786D01*
X50412830Y21242690D01*
Y21278600D01*
X50376923D01*
X50358966Y21296555D01*
X50412830Y21278600D02*
X50448740Y21314508D01*
X50520560Y21494055D02*
X50502606Y21440192D01*
Y21368372D01*
X50538513Y21332463D01*
X50574423D01*
X50610333Y21368372D01*
Y21404282D01*
X50592377Y21422237D01*
X50556470D01*
X50502606Y21368372D01*
X50628287Y21601784D02*
X50556470Y21529965D01*
X50610333Y21476102D01*
X50628287Y21529965D01*
X50646243Y21547920D01*
X50682153D01*
X50718060Y21512010D01*
Y21476102D01*
X50682153Y21440192D01*
X50646243D01*
X50682153Y21619737D02*
Y21655647D01*
X50718060Y21691557D01*
X50753970D01*
X50825790Y21619737D01*
Y21583829D01*
X50789880Y21547920D01*
X50753970D01*
X50682153Y21619737D01*
X50969427Y21907014D02*
X50933517D01*
X50897607Y21871104D01*
Y21835194D01*
X50969427Y21763376D01*
X51005338D01*
X51041245Y21799284D01*
Y21835194D01*
X50987381Y21960878D02*
X51095111Y21853149D01*
X51041245Y21907014D01*
Y21942923D01*
X51077155Y21978831D01*
X51113065D01*
X51166928Y21924968D01*
X51148975Y22050652D02*
X51184882Y22086562D01*
X51220795D01*
X51274658Y22032697D01*
X51220795Y21978831D01*
X51184882D01*
X51184882Y22014742D01*
X51238745Y22068607D01*
Y22140425D02*
X51310565Y22068607D01*
X51274658Y22104515D01*
Y22140425D01*
X51274658Y22176334D01*
X51292609Y22194289D01*
X51490112Y22176334D02*
X51508069Y22194289D01*
X51508069Y22230199D01*
X51418292Y22319972D01*
X51364429Y22266109D01*
Y22230199D01*
X51400342Y22194289D01*
X51436249D01*
X51490112Y22248154D01*
X51579889Y22337926D02*
X51543976Y22302017D01*
X51508069D01*
X51472162Y22337926D01*
Y22373836D01*
X51508069Y22409744D01*
X51543976D01*
X51561932Y22391791D01*
X51490112Y22319972D01*
X51561932Y22463609D02*
X51633752Y22391791D01*
X51597839Y22427699D01*
Y22463609D01*
Y22499519D01*
X51615796Y22517474D01*
X59791602Y8470851D02*
Y8369283D01*
X59842383Y8318500D01*
X59893164Y8369283D01*
Y8470851D01*
X59969342Y8318500D02*
X60020123D01*
X60045520Y8343892D01*
Y8394675D01*
X60020123Y8420067D01*
X59969342D01*
X59943951Y8394675D01*
Y8343892D01*
X59969342Y8318500D01*
X60096301D02*
X60147083D01*
X60121692D01*
Y8470851D01*
X60096301D01*
X60248651Y8445459D02*
Y8420067D01*
X60223260D01*
X60274042D01*
X60248651D01*
Y8343892D01*
X60274042Y8318500D01*
X60350220D02*
Y8420067D01*
X60375610D01*
X60401001Y8394675D01*
Y8318500D01*
Y8394675D01*
X60426398Y8420067D01*
X60451788Y8394675D01*
Y8318500D01*
X60578748D02*
X60527960D01*
X60502570Y8343892D01*
Y8394675D01*
X60527960Y8420067D01*
X60578748D01*
X60604138Y8394675D01*
Y8369283D01*
X60502570D01*
X60680310Y8445459D02*
Y8420067D01*
X60654919D01*
X60705707D01*
X60680310D01*
Y8343892D01*
X60705707Y8318500D01*
X60858057D02*
X60807269D01*
X60781879Y8343892D01*
Y8394675D01*
X60807269Y8420067D01*
X60858057D01*
X60883447Y8394675D01*
Y8369283D01*
X60781879D01*
X60934229Y8420067D02*
Y8318500D01*
Y8369283D01*
X60959619Y8394675D01*
X60985016Y8420067D01*
X61010406D01*
X61238934Y8318500D02*
Y8470851D01*
X61289716Y8420067D01*
X61340497Y8470851D01*
Y8318500D01*
X61416675D02*
X61467456D01*
X61492853Y8343892D01*
Y8394675D01*
X61467456Y8420067D01*
X61416675D01*
X61391284Y8394675D01*
Y8343892D01*
X61416675Y8318500D01*
X61645203Y8470851D02*
Y8318500D01*
X61569025D01*
X61543634Y8343892D01*
Y8394675D01*
X61569025Y8420067D01*
X61645203D01*
X61695984D02*
Y8343892D01*
X61721375Y8318500D01*
X61797552D01*
Y8420067D01*
X61848334Y8318500D02*
X61899115D01*
X61873724D01*
Y8470851D01*
X61848334D01*
X62051471Y8318500D02*
X62000684D01*
X61975293Y8343892D01*
Y8394675D01*
X62000684Y8420067D01*
X62051471D01*
X62076862Y8394675D01*
Y8369283D01*
X61975293D01*
X50232745Y11137900D02*
X50131177D01*
Y11188683D01*
X50148105Y11205611D01*
X50181961D01*
X50198889Y11188683D01*
Y11137900D01*
Y11171756D02*
X50232745Y11205611D01*
Y11290251D02*
Y11256395D01*
X50215817Y11239467D01*
X50181961D01*
X50165033Y11256395D01*
Y11290251D01*
X50181961Y11307179D01*
X50198889D01*
Y11239467D01*
X50266599Y11374890D02*
Y11391818D01*
X50249673Y11408746D01*
X50165033D01*
Y11357962D01*
X50181961Y11341034D01*
X50215817D01*
X50232745Y11357962D01*
Y11408746D01*
X50165033Y11442602D02*
X50215817D01*
X50232745Y11459530D01*
Y11510313D01*
X50165033D01*
X50232745Y11544169D02*
Y11578025D01*
Y11561097D01*
X50131177D01*
Y11544169D01*
X50165033Y11645736D02*
Y11679592D01*
X50181961Y11696520D01*
X50232745D01*
Y11645736D01*
X50215817Y11628808D01*
X50198889Y11645736D01*
Y11696520D01*
X50148105Y11747303D02*
X50165033D01*
Y11730376D01*
Y11764231D01*
Y11747303D01*
X50215817D01*
X50232745Y11764231D01*
Y11865798D02*
Y11831943D01*
X50215817Y11815015D01*
X50181961D01*
X50165033Y11831943D01*
Y11865798D01*
X50181961Y11882726D01*
X50198889D01*
Y11815015D01*
X50131177Y11984294D02*
X50232745D01*
Y11933510D01*
X50215817Y11916582D01*
X50181961D01*
X50165033Y11933510D01*
Y11984294D01*
X50131177Y12187428D02*
Y12119717D01*
X50181961D01*
X50165033Y12153572D01*
Y12170500D01*
X50181961Y12187428D01*
X50215817D01*
X50232745Y12170500D01*
Y12136645D01*
X50215817Y12119717D01*
X50131177Y12221284D02*
X50198889D01*
X50232745Y12255140D01*
X50198889Y12288995D01*
X50131177D01*
X50232745Y12492130D02*
Y12424418D01*
X50165033Y12492130D01*
X50148105D01*
X50131177Y12475202D01*
Y12441346D01*
X50148105Y12424418D01*
X50232745Y12525986D02*
X50165033D01*
X50131177Y12559841D01*
X50165033Y12593697D01*
X50232745D01*
X50181961D01*
Y12525986D01*
X50131177Y12729120D02*
Y12762976D01*
Y12746048D01*
X50232745D01*
Y12729120D01*
Y12762976D01*
Y12813759D02*
X50165033D01*
Y12864543D01*
X50181961Y12881471D01*
X50232745D01*
X50266599Y12915327D02*
X50165033D01*
Y12966110D01*
X50181961Y12983038D01*
X50215817D01*
X50232745Y12966110D01*
Y12915327D01*
X50165033Y13016895D02*
X50215817D01*
X50232745Y13033823D01*
Y13084605D01*
X50165033D01*
X50148105Y13135390D02*
X50165033D01*
Y13118462D01*
Y13152316D01*
Y13135390D01*
X50215817D01*
X50232745Y13152316D01*
X52023474Y8127983D02*
Y8094128D01*
X52040405Y8077200D01*
X52108118D01*
X52125043Y8094128D01*
Y8127983D01*
X52108118Y8144911D01*
X52040405D01*
X52023474Y8127983D01*
X52057330Y8178767D02*
X52108118D01*
X52125043Y8195695D01*
Y8246479D01*
X52057330D01*
X52040405Y8297262D02*
X52057330D01*
Y8280334D01*
Y8314190D01*
Y8297262D01*
X52108118D01*
X52125043Y8314190D01*
X52158899Y8364974D02*
X52057330D01*
Y8415757D01*
X52074261Y8432685D01*
X52108118D01*
X52125043Y8415757D01*
Y8364974D01*
X52057330Y8466541D02*
X52108118D01*
X52125043Y8483469D01*
Y8534252D01*
X52057330D01*
X52040405Y8585036D02*
X52057330D01*
Y8568108D01*
Y8601964D01*
Y8585036D01*
X52108118D01*
X52125043Y8601964D01*
X52040405Y8822026D02*
X52023474Y8805098D01*
Y8771243D01*
X52040405Y8754315D01*
X52057330D01*
X52074261Y8771243D01*
Y8805098D01*
X52091187Y8822026D01*
X52108118D01*
X52125043Y8805098D01*
Y8771243D01*
X52108118Y8754315D01*
X52057330Y8855882D02*
X52108118D01*
X52125043Y8872810D01*
X52108118Y8889738D01*
X52125043Y8906666D01*
X52108118Y8923594D01*
X52057330D01*
X52125043Y8957449D02*
Y8991305D01*
Y8974377D01*
X52057330D01*
Y8957449D01*
X52040405Y9059017D02*
X52057330D01*
Y9042089D01*
Y9075945D01*
Y9059017D01*
X52108118D01*
X52125043Y9075945D01*
X52057330Y9194440D02*
Y9143656D01*
X52074261Y9126728D01*
X52108118D01*
X52125043Y9143656D01*
Y9194440D01*
X52023474Y9228295D02*
X52125043D01*
X52074261D01*
X52057330Y9245223D01*
Y9279079D01*
X52074261Y9296007D01*
X52125043D01*
X50175159Y17332912D02*
Y17231343D01*
X50225943Y17180560D01*
X50276727Y17231343D01*
Y17332912D01*
X50327512Y17180560D02*
Y17332912D01*
X50403687D01*
X50429077Y17307520D01*
Y17256735D01*
X50403687Y17231343D01*
X50327512D01*
X50378293D02*
X50429077Y17180560D01*
X50479861D02*
X50530646D01*
X50505252D01*
Y17332912D01*
X50479861Y17307520D01*
X52006543Y20459676D02*
Y20332716D01*
X52031934Y20307326D01*
X52082715D01*
X52108105Y20332716D01*
Y20459676D01*
X52158893Y20434283D02*
X52184283Y20459676D01*
X52235065D01*
X52260461Y20434283D01*
Y20408891D01*
X52235065Y20383501D01*
X52260461Y20358109D01*
Y20332716D01*
X52235065Y20307326D01*
X52184283D01*
X52158893Y20332716D01*
Y20358109D01*
X52184283Y20383501D01*
X52158893Y20408891D01*
Y20434283D01*
X52184283Y20383501D02*
X52235065D01*
X55232343Y19494475D02*
Y19367517D01*
X55257733Y19342125D01*
X55308514D01*
X55333905Y19367517D01*
Y19494475D01*
X55486261D02*
X55435474Y19469083D01*
X55384692Y19418300D01*
Y19367517D01*
X55410083Y19342125D01*
X55460864D01*
X55486261Y19367517D01*
Y19392908D01*
X55460864Y19418300D01*
X55384692D01*
X58127942Y19608775D02*
Y19481818D01*
X58153333Y19456425D01*
X58204120D01*
X58229510Y19481818D01*
Y19608775D01*
X58356470Y19456425D02*
Y19608775D01*
X58280292Y19532600D01*
X58381860D01*
X60901581Y20266611D02*
Y20139651D01*
X60926971Y20114259D01*
X60977753D01*
X61003149Y20139651D01*
Y20266611D01*
X61155499Y20114259D02*
X61053931D01*
X61155499Y20215826D01*
Y20241219D01*
X61130109Y20266611D01*
X61079321D01*
X61053931Y20241219D01*
X53619464Y20815324D02*
Y20967674D01*
X53695636D01*
X53721027Y20942284D01*
Y20891499D01*
X53695636Y20866109D01*
X53619464D01*
X53670245D02*
X53721027Y20815324D01*
X53771814D02*
X53822595D01*
X53797205D01*
Y20967674D01*
X53771814Y20942284D01*
X53898773Y20840717D02*
X53924164Y20815324D01*
X53974945D01*
X54000342Y20840717D01*
Y20942284D01*
X53974945Y20967674D01*
X53924164D01*
X53898773Y20942284D01*
Y20916891D01*
X53924164Y20891499D01*
X54000342D01*
X53568665Y19773924D02*
Y19926276D01*
X53644836D01*
X53670227Y19900883D01*
Y19850101D01*
X53644836Y19824709D01*
X53568665D01*
X53619446D02*
X53670227Y19773924D01*
X53721014D02*
X53771796D01*
X53746405D01*
Y19926276D01*
X53721014Y19900883D01*
X53847974D02*
X53873364Y19926276D01*
X53924146D01*
X53949536Y19900883D01*
Y19875491D01*
X53924146Y19850101D01*
X53949536Y19824709D01*
Y19799316D01*
X53924146Y19773924D01*
X53873364D01*
X53847974Y19799316D01*
Y19824709D01*
X53873364Y19850101D01*
X53847974Y19875491D01*
Y19900883D01*
X53873364Y19850101D02*
X53924146D01*
X52699921Y20190460D02*
Y20342812D01*
X52776093D01*
X52801489Y20317419D01*
Y20266635D01*
X52776093Y20241243D01*
X52699921D01*
X52750702D02*
X52801489Y20190460D01*
X52852271D02*
X52903052D01*
X52877661D01*
Y20342812D01*
X52852271Y20317419D01*
X53080798Y20342812D02*
X53030011Y20317419D01*
X52979230Y20266635D01*
Y20215852D01*
X53004620Y20190460D01*
X53055408D01*
X53080798Y20215852D01*
Y20241243D01*
X53055408Y20266635D01*
X52979230D01*
X56535321Y20901660D02*
Y21054012D01*
X56611493D01*
X56636890Y21028619D01*
Y20977835D01*
X56611493Y20952443D01*
X56535321D01*
X56586102D02*
X56636890Y20901660D01*
X56687671D02*
X56738452D01*
X56713062D01*
Y21054012D01*
X56687671Y21028619D01*
X56890802Y20901660D02*
Y21054012D01*
X56814630Y20977835D01*
X56916199D01*
X56515063Y20180325D02*
Y20332675D01*
X56591235D01*
X56616626Y20307283D01*
Y20256500D01*
X56591235Y20231108D01*
X56515063D01*
X56565845D02*
X56616626Y20180325D01*
X56667413D02*
X56718195D01*
X56692804D01*
Y20332675D01*
X56667413Y20307283D01*
X56794373D02*
X56819763Y20332675D01*
X56870544D01*
X56895941Y20307283D01*
Y20281892D01*
X56870544Y20256500D01*
X56845154D01*
X56870544D01*
X56895941Y20231108D01*
Y20205717D01*
X56870544Y20180325D01*
X56819763D01*
X56794373Y20205717D01*
X54711664Y19939024D02*
Y20091376D01*
X54787836D01*
X54813226Y20065984D01*
Y20015199D01*
X54787836Y19989809D01*
X54711664D01*
X54762445D02*
X54813226Y19939024D01*
X54864014D02*
X54914795D01*
X54889404D01*
Y20091376D01*
X54864014Y20065984D01*
X55092542Y19939024D02*
X54990973D01*
X55092542Y20040591D01*
Y20065984D01*
X55067145Y20091376D01*
X55016364D01*
X54990973Y20065984D01*
X55600653Y20205725D02*
Y20358075D01*
X55676831D01*
X55702222Y20332683D01*
Y20281900D01*
X55676831Y20256508D01*
X55600653D01*
X55651434D02*
X55702222Y20205725D01*
X55753003D02*
X55803790D01*
X55778394D01*
Y20358075D01*
X55753003Y20332683D01*
X55879962Y20205725D02*
X55930750D01*
X55905353D01*
Y20358075D01*
X55879962Y20332683D01*
X59164221Y20876260D02*
Y21028612D01*
X59240393D01*
X59265790Y21003220D01*
Y20952435D01*
X59240393Y20927043D01*
X59164221D01*
X59215002D02*
X59265790Y20876260D01*
X59316571Y20901653D02*
X59341962Y20876260D01*
X59392749D01*
X59418140Y20901653D01*
Y21003220D01*
X59392749Y21028612D01*
X59341962D01*
X59316571Y21003220D01*
Y20977827D01*
X59341962Y20952435D01*
X59418140D01*
X59164221Y20177760D02*
Y20330112D01*
X59240393D01*
X59265790Y20304720D01*
Y20253935D01*
X59240393Y20228543D01*
X59164221D01*
X59215002D02*
X59265790Y20177760D01*
X59316571Y20304720D02*
X59341962Y20330112D01*
X59392749D01*
X59418140Y20304720D01*
Y20279327D01*
X59392749Y20253935D01*
X59418140Y20228543D01*
Y20203152D01*
X59392749Y20177760D01*
X59341962D01*
X59316571Y20203152D01*
Y20228543D01*
X59341962Y20253935D01*
X59316571Y20279327D01*
Y20304720D01*
X59341962Y20253935D02*
X59392749D01*
X57652917Y19860260D02*
Y20012611D01*
X57729095D01*
X57754486Y19987219D01*
Y19936435D01*
X57729095Y19911043D01*
X57652917D01*
X57703705D02*
X57754486Y19860260D01*
X57805273Y20012611D02*
X57906836D01*
Y19987219D01*
X57805273Y19885652D01*
Y19860260D01*
X58254944Y20002525D02*
Y20154875D01*
X58331116D01*
X58356506Y20129483D01*
Y20078700D01*
X58331116Y20053308D01*
X58254944D01*
X58305725D02*
X58356506Y20002525D01*
X58508856Y20154875D02*
X58458075Y20129483D01*
X58407294Y20078700D01*
Y20027917D01*
X58432684Y20002525D01*
X58483466D01*
X58508856Y20027917D01*
Y20053308D01*
X58483466Y20078700D01*
X58407294D01*
X62009021Y20965160D02*
Y21117511D01*
X62085193D01*
X62110590Y21092119D01*
Y21041335D01*
X62085193Y21015942D01*
X62009021D01*
X62059802D02*
X62110590Y20965160D01*
X62237549D02*
Y21117511D01*
X62161371Y21041335D01*
X62262939D01*
X62011560Y20266660D02*
Y20419011D01*
X62087738D01*
X62113129Y20393619D01*
Y20342834D01*
X62087738Y20317442D01*
X62011560D01*
X62062341D02*
X62113129Y20266660D01*
X62163910Y20393619D02*
X62189301Y20419011D01*
X62240088D01*
X62265479Y20393619D01*
Y20368227D01*
X62240088Y20342834D01*
X62214691D01*
X62240088D01*
X62265479Y20317442D01*
Y20292052D01*
X62240088Y20266660D01*
X62189301D01*
X62163910Y20292052D01*
X60599323Y19847560D02*
Y19999911D01*
X60675494D01*
X60700885Y19974519D01*
Y19923735D01*
X60675494Y19898343D01*
X60599323D01*
X60650104D02*
X60700885Y19847560D01*
X60853241D02*
X60751672D01*
X60853241Y19949127D01*
Y19974519D01*
X60827844Y19999911D01*
X60777063D01*
X60751672Y19974519D01*
X61239435Y20027925D02*
Y20180275D01*
X61315607D01*
X61340997Y20154883D01*
Y20104100D01*
X61315607Y20078708D01*
X61239435D01*
X61290216D02*
X61340997Y20027925D01*
X61391785D02*
X61442566D01*
X61417175D01*
Y20180275D01*
X61391785Y20154883D01*
X53530505Y19418317D02*
Y19519884D01*
X53505115Y19545274D01*
X53454333D01*
X53428943Y19519884D01*
Y19418317D01*
X53454333Y19392924D01*
X53505115D01*
X53479724Y19443707D02*
X53530505Y19392924D01*
X53505115D02*
X53530505Y19418317D01*
X53657465Y19392924D02*
Y19545274D01*
X53581293Y19469099D01*
X53682861D01*
X55676807Y19596117D02*
Y19697684D01*
X55651416Y19723074D01*
X55600635D01*
X55575238Y19697684D01*
Y19596117D01*
X55600635Y19570724D01*
X55651416D01*
X55626025Y19621507D02*
X55676807Y19570724D01*
X55651416D02*
X55676807Y19596117D01*
X55727594Y19697684D02*
X55752985Y19723074D01*
X55803766D01*
X55829156Y19697684D01*
Y19672292D01*
X55803766Y19646899D01*
X55778375D01*
X55803766D01*
X55829156Y19621507D01*
Y19596117D01*
X55803766Y19570724D01*
X55752985D01*
X55727594Y19596117D01*
X59067706Y19570717D02*
Y19672282D01*
X59042316Y19697675D01*
X58991534D01*
X58966144Y19672282D01*
Y19570717D01*
X58991534Y19545325D01*
X59042316D01*
X59016925Y19596107D02*
X59067706Y19545325D01*
X59042316D02*
X59067706Y19570717D01*
X59220056Y19545325D02*
X59118494D01*
X59220056Y19646892D01*
Y19672282D01*
X59194666Y19697675D01*
X59143884D01*
X59118494Y19672282D01*
X62039502Y19570717D02*
Y19672282D01*
X62014105Y19697675D01*
X61963324D01*
X61937933Y19672282D01*
Y19570717D01*
X61963324Y19545325D01*
X62014105D01*
X61988715Y19596107D02*
X62039502Y19545325D01*
X62014105D02*
X62039502Y19570717D01*
X62090283Y19545325D02*
X62141064D01*
X62115674D01*
Y19697675D01*
X62090283Y19672282D01*
X49657001Y15905431D02*
Y15753081D01*
X49733176D01*
X49758566Y15778471D01*
Y15880038D01*
X49733176Y15905431D01*
X49657001D01*
X49809351Y15778471D02*
X49834744Y15753081D01*
X49885526D01*
X49910919Y15778471D01*
Y15880038D01*
X49885526Y15905431D01*
X49834744D01*
X49809351Y15880038D01*
Y15854646D01*
X49834744Y15829256D01*
X49910919D01*
X54096918Y20482510D02*
Y20330161D01*
X54173096D01*
X54198486Y20355553D01*
Y20457120D01*
X54173096Y20482510D01*
X54096918D01*
X54249274Y20457120D02*
X54274664Y20482510D01*
X54325446D01*
X54350836Y20457120D01*
Y20431728D01*
X54325446Y20406335D01*
X54350836Y20380943D01*
Y20355553D01*
X54325446Y20330161D01*
X54274664D01*
X54249274Y20355553D01*
Y20380943D01*
X54274664Y20406335D01*
X54249274Y20431728D01*
Y20457120D01*
X54274664Y20406335D02*
X54325446D01*
X54096918Y21168311D02*
Y21015961D01*
X54173096D01*
X54198486Y21041351D01*
Y21142918D01*
X54173096Y21168311D01*
X54096918D01*
X54249274D02*
X54350836D01*
Y21142918D01*
X54249274Y21041351D01*
Y21015961D01*
X56967120Y20520612D02*
Y20368260D01*
X57043292D01*
X57068689Y20393652D01*
Y20495219D01*
X57043292Y20520612D01*
X56967120D01*
X57221039D02*
X57170251Y20495219D01*
X57119470Y20444435D01*
Y20393652D01*
X57144861Y20368260D01*
X57195648D01*
X57221039Y20393652D01*
Y20419043D01*
X57195648Y20444435D01*
X57119470D01*
X56954419Y21206412D02*
Y21054060D01*
X57030597D01*
X57055988Y21079453D01*
Y21181020D01*
X57030597Y21206412D01*
X56954419D01*
X57208337D02*
X57106769D01*
Y21130235D01*
X57157556Y21155627D01*
X57182947D01*
X57208337Y21130235D01*
Y21079453D01*
X57182947Y21054060D01*
X57132166D01*
X57106769Y21079453D01*
X59596021Y20482510D02*
Y20330161D01*
X59672192D01*
X59697589Y20355553D01*
Y20457120D01*
X59672192Y20482510D01*
X59596021D01*
X59824548Y20330161D02*
Y20482510D01*
X59748370Y20406335D01*
X59849939D01*
X59570618Y21193710D02*
Y21041360D01*
X59646796D01*
X59672186Y21066753D01*
Y21168320D01*
X59646796Y21193710D01*
X59570618D01*
X59722974Y21168320D02*
X59748364Y21193710D01*
X59799146D01*
X59824536Y21168320D01*
Y21142928D01*
X59799146Y21117535D01*
X59773755D01*
X59799146D01*
X59824536Y21092143D01*
Y21066753D01*
X59799146Y21041360D01*
X59748364D01*
X59722974Y21066753D01*
X62466217Y20571411D02*
Y20419060D01*
X62542395D01*
X62567786Y20444452D01*
Y20546019D01*
X62542395Y20571411D01*
X62466217D01*
X62720135Y20419060D02*
X62618573D01*
X62720135Y20520627D01*
Y20546019D01*
X62694745Y20571411D01*
X62643964D01*
X62618573Y20546019D01*
X62453522Y21269911D02*
Y21117560D01*
X62529694D01*
X62555084Y21142952D01*
Y21244519D01*
X62529694Y21269911D01*
X62453522D01*
X62605872Y21117560D02*
X62656653D01*
X62631262D01*
Y21269911D01*
X62605872Y21244519D01*
X50418967Y18463219D02*
X50393576Y18488611D01*
X50342792D01*
X50317401Y18463219D01*
Y18361652D01*
X50342792Y18336259D01*
X50393576D01*
X50418967Y18361652D01*
X50469751Y18336259D02*
X50520535D01*
X50495142D01*
Y18488611D01*
X50469751Y18463219D01*
X50596710D02*
X50622101Y18488611D01*
X50672885D01*
X50698276Y18463219D01*
Y18361652D01*
X50672885Y18336259D01*
X50622101D01*
X50596710Y18361652D01*
Y18463219D01*
X49146426Y17249100D02*
X49121036Y17274490D01*
X49070251D01*
X49044861Y17249100D01*
Y17147533D01*
X49070251Y17122141D01*
X49121036D01*
X49146426Y17147533D01*
X49197211D02*
X49222604Y17122141D01*
X49273386D01*
X49298779Y17147533D01*
Y17249100D01*
X49273386Y17274490D01*
X49222604D01*
X49197211Y17249100D01*
Y17223708D01*
X49222604Y17198315D01*
X49298779D01*
%TF.MD5,5bdd8699fe29a7a42664d55f370dd8b8*%
M02*
