%TF.GenerationSoftware,Altium Limited,Altium Designer,25.4.2 (15)*%
G04 Layer_Color=16711935*
%FSLAX45Y45*%
%MOMM*%
%TF.SameCoordinates,0640AC9D-8A5E-4001-91DE-6D45CD138FA6*%
%TF.FilePolarity,Negative*%
%TF.FileFunction,Soldermask,Bot*%
%TF.Part,Single*%
G01*
G75*
%TA.AperFunction,ComponentPad*%
%ADD57C,3.65320*%
%ADD58C,2.59320*%
%ADD59C,2.60320*%
%ADD60R,2.60320X2.60320*%
%ADD61O,1.40320X4.20320*%
%ADD62O,1.40320X4.00320*%
%ADD63O,5.20320X1.80320*%
%ADD64R,1.62900X1.62900*%
%ADD65C,1.62900*%
%ADD66C,1.78320*%
%ADD67R,1.78320X1.78320*%
%ADD68C,1.80340*%
%ADD69C,1.71120*%
%TA.AperFunction,ViaPad*%
%ADD70C,1.72720*%
%TA.AperFunction,ComponentPad*%
%ADD71O,1.74320X3.28320*%
%ADD72C,2.45400*%
%ADD73R,2.45400X2.45400*%
%TA.AperFunction,ViaPad*%
%ADD74C,1.47320*%
D57*
X59524799Y12086300D02*
D03*
X57924805Y17606300D02*
D03*
X56730798Y12124400D02*
D03*
X55130804Y17644400D02*
D03*
X52336804Y17657100D02*
D03*
X53936798Y12137100D02*
D03*
X62369598Y12073600D02*
D03*
X60769604Y17593600D02*
D03*
D58*
X57924805Y11264301D02*
D03*
X55130804Y11302401D02*
D03*
X52336804Y11315101D02*
D03*
X60769604Y11251601D02*
D03*
D59*
X50939700Y12344400D02*
D03*
X63563501Y15036800D02*
D03*
X50926999Y9969500D02*
D03*
D60*
X50939700Y11836400D02*
D03*
X63563501Y14528799D02*
D03*
X50926999Y9461500D02*
D03*
D61*
X49682297Y18068102D02*
D03*
D62*
X49932300Y17698100D02*
D03*
D63*
X49402298Y17468098D02*
D03*
D64*
X55918103Y9436100D02*
D03*
X57505603D02*
D03*
X55422803Y9461500D02*
D03*
D65*
X56959497Y9398000D02*
D03*
X58546997D02*
D03*
X54381403Y9499600D02*
D03*
D66*
X52514502Y8382000D02*
D03*
X52768500D02*
D03*
Y9144000D02*
D03*
X53022498Y8382000D02*
D03*
Y9144000D02*
D03*
X53276501Y8382000D02*
D03*
X52514502Y9144000D02*
D03*
X57556403Y21424899D02*
D03*
X57302399Y22186900D02*
D03*
Y21424899D02*
D03*
X57048401Y22186900D02*
D03*
Y21424899D02*
D03*
X56794397Y22186900D02*
D03*
Y21424899D02*
D03*
D67*
X53276501Y9144000D02*
D03*
X57556403Y22186900D02*
D03*
D68*
X61869318Y8991600D02*
D03*
X61658502D02*
D03*
D69*
X51561102Y14503400D02*
D03*
X50711099D02*
D03*
D70*
X59423297Y9385300D02*
D03*
X62331598D02*
D03*
D71*
X51058902Y16586200D02*
D03*
X50718896D02*
D03*
X51228900D02*
D03*
X50888901D02*
D03*
X50548901D02*
D03*
D72*
X49923700Y13483002D02*
D03*
D73*
Y15473000D02*
D03*
D74*
X57391302Y8674100D02*
D03*
X52590698Y20650200D02*
D03*
Y20866100D02*
D03*
X57670697Y20231100D02*
D03*
X57988202Y20713699D02*
D03*
X55130701Y20320000D02*
D03*
X55435498Y20688300D02*
D03*
X53479700Y19761200D02*
D03*
X52870099Y20307300D02*
D03*
X56286401Y19735800D02*
D03*
X55765698Y20320000D02*
D03*
X61899799Y19824699D02*
D03*
X60642499Y19900900D02*
D03*
X58750201Y19913600D02*
D03*
X57848499D02*
D03*
X50304700Y16078200D02*
D03*
X52603400Y19329401D02*
D03*
X52844702Y19850101D02*
D03*
X60147198Y16916400D02*
D03*
X60210699Y10579100D02*
D03*
X55943500Y18084801D02*
D03*
X54279797Y14757401D02*
D03*
X55067200Y14960600D02*
D03*
X57238898Y10604500D02*
D03*
X58496198Y11468100D02*
D03*
X57531000Y15582899D02*
D03*
X57556403Y18656300D02*
D03*
X57378601Y20713699D02*
D03*
X57899298Y18427699D02*
D03*
X52984399Y18300700D02*
D03*
X53073297Y20269200D02*
D03*
X53594000Y21069299D02*
D03*
X55981598Y20256500D02*
D03*
X56299103Y21170900D02*
D03*
X58991498Y20218401D02*
D03*
X58940698Y21310600D02*
D03*
X61404498Y20116800D02*
D03*
X60363098Y20574001D02*
D03*
X61810901Y19303999D02*
D03*
X61315601Y19583400D02*
D03*
X53289203Y19354800D02*
D03*
X52832001Y19685001D02*
D03*
X58813702Y19329401D02*
D03*
X58381897Y19545300D02*
D03*
X56121301Y19329401D02*
D03*
X55778400Y19634200D02*
D03*
%TF.MD5,8c94532ac587b083a4ffa8b9795929b8*%
M02*
